<svg width="177" height="210" viewBox="0 0 177 210" fill="none" xmlns="http://www.w3.org/2000/svg">
<rect width="176.435" height="210" rx="10" fill="#D9A5B5"/>
<path d="M17.09 183V170.148H24.02C25.148 170.148 26.066 170.496 26.774 171.192C27.446 171.864 27.782 172.698 27.782 173.694C27.782 175.29 27.104 176.364 25.748 176.916V176.952C26.876 177.24 27.5 178.242 27.62 179.958C27.656 180.474 27.692 180.99 27.728 181.506C27.8 182.202 27.944 182.7 28.16 183H25.334C25.202 182.676 25.1 182.19 25.028 181.542C24.98 181.002 24.932 180.462 24.884 179.922C24.788 179.226 24.578 178.728 24.254 178.428C23.942 178.128 23.438 177.978 22.742 177.978H19.916V183H17.09ZM19.916 172.344V175.962H23.012C24.308 175.962 24.956 175.35 24.956 174.126C24.956 172.938 24.308 172.344 23.012 172.344H19.916ZM38.6303 178.968H31.9163C31.9883 180.54 32.7503 181.326 34.2023 181.326C34.6943 181.326 35.1383 181.194 35.5343 180.93C35.9063 180.702 36.1343 180.432 36.2183 180.12H38.4683C37.7843 182.208 36.3323 183.252 34.1123 183.252C32.6603 183.252 31.5023 182.802 30.6383 181.902C29.7863 180.99 29.3603 179.808 29.3603 178.356C29.3603 176.94 29.7983 175.77 30.6743 174.846C31.5623 173.91 32.7083 173.442 34.1123 173.442C35.6243 173.442 36.7943 174.006 37.6223 175.134C38.3903 176.166 38.7263 177.444 38.6303 178.968ZM31.9163 177.348H36.0743C35.8343 176.028 35.1563 175.368 34.0403 175.368C33.3203 175.368 32.7683 175.608 32.3843 176.088C32.0963 176.448 31.9403 176.868 31.9163 177.348ZM46.7882 183V181.812H46.7522C46.1882 182.772 45.2462 183.252 43.9262 183.252C42.5942 183.252 41.5502 182.742 40.7942 181.722C40.0982 180.798 39.7502 179.646 39.7502 178.266C39.7502 176.922 40.0982 175.806 40.7942 174.918C41.5502 173.934 42.5762 173.442 43.8722 173.442C45.1202 173.442 46.0442 173.904 46.6442 174.828H46.6622V170.148H49.2182V183H46.7882ZM46.7522 178.32C46.7522 177.468 46.5962 176.784 46.2842 176.268C45.9002 175.668 45.3242 175.368 44.5562 175.368C43.7762 175.368 43.1942 175.674 42.8102 176.286C42.4742 176.802 42.3062 177.486 42.3062 178.338C42.3062 179.154 42.4862 179.832 42.8462 180.372C43.2422 181.008 43.8122 181.326 44.5562 181.326C46.0202 181.326 46.7522 180.324 46.7522 178.32ZM59.8801 173.694V183H57.4501V181.704H57.3961C56.7601 182.736 55.8121 183.252 54.5521 183.252C53.2681 183.252 52.3621 182.898 51.8341 182.19C51.3781 181.602 51.1501 180.678 51.1501 179.418V173.694H53.7061V178.95C53.7061 180.474 54.2521 181.236 55.3441 181.236C56.0401 181.236 56.5441 181.026 56.8561 180.606C57.1681 180.186 57.3241 179.508 57.3241 178.572V173.694H59.8801ZM70.658 176.97H68.156C67.988 175.902 67.358 175.368 66.266 175.368C65.522 175.368 64.952 175.698 64.556 176.358C64.244 176.91 64.088 177.588 64.088 178.392C64.088 179.172 64.244 179.826 64.556 180.354C64.928 181.002 65.48 181.326 66.212 181.326C67.388 181.326 68.066 180.696 68.246 179.436H70.712C70.556 180.66 70.076 181.602 69.272 182.262C68.48 182.922 67.466 183.252 66.23 183.252C64.838 183.252 63.704 182.808 62.828 181.92C61.964 181.032 61.532 179.886 61.532 178.482C61.532 176.994 61.946 175.794 62.774 174.882C63.638 173.922 64.808 173.442 66.284 173.442C67.46 173.442 68.444 173.73 69.236 174.306C70.112 174.954 70.586 175.842 70.658 176.97ZM80.976 178.968H74.262C74.334 180.54 75.096 181.326 76.548 181.326C77.04 181.326 77.484 181.194 77.88 180.93C78.252 180.702 78.48 180.432 78.564 180.12H80.814C80.13 182.208 78.678 183.252 76.458 183.252C75.006 183.252 73.848 182.802 72.984 181.902C72.132 180.99 71.706 179.808 71.706 178.356C71.706 176.94 72.144 175.77 73.02 174.846C73.908 173.91 75.054 173.442 76.458 173.442C77.97 173.442 79.14 174.006 79.968 175.134C80.736 176.166 81.072 177.444 80.976 178.968ZM74.262 177.348H78.42C78.18 176.028 77.502 175.368 76.386 175.368C75.666 175.368 75.114 175.608 74.73 176.088C74.442 176.448 74.286 176.868 74.262 177.348ZM86.9617 178.734H89.6977C89.6977 179.538 89.9857 180.15 90.5617 180.57C91.0537 180.93 91.7137 181.11 92.5417 181.11C93.1897 181.11 93.7297 181.008 94.1617 180.804C94.7497 180.528 95.0437 180.096 95.0437 179.508C95.0437 178.776 94.3837 178.224 93.0637 177.852C90.7837 177.204 89.5537 176.832 89.3737 176.736C88.0537 176.1 87.3937 175.098 87.3937 173.73C87.3937 172.494 87.9037 171.516 88.9237 170.796C89.8357 170.16 90.9277 169.842 92.1997 169.842C93.6757 169.842 94.8697 170.16 95.7817 170.796C96.8257 171.528 97.3477 172.59 97.3477 173.982H94.6117C94.5397 172.686 93.6937 172.038 92.0737 172.038C91.5577 172.038 91.1197 172.146 90.7597 172.362C90.3397 172.626 90.1297 173.004 90.1297 173.496C90.1297 173.964 90.3637 174.306 90.8317 174.522C91.1917 174.69 92.2357 174.996 93.9637 175.44C94.9717 175.692 95.7217 175.98 96.2137 176.304C97.2577 176.976 97.7797 177.936 97.7797 179.184C97.7797 180.408 97.3237 181.392 96.4117 182.136C95.4517 182.916 94.1257 183.306 92.4337 183.306C90.8857 183.306 89.6137 182.94 88.6177 182.208C87.5017 181.38 86.9497 180.222 86.9617 178.734ZM102.431 170.904V173.694H104.303V175.404H102.431V180.012C102.431 180.444 102.503 180.732 102.647 180.876C102.791 181.02 103.079 181.092 103.511 181.092C103.799 181.092 104.063 181.068 104.303 181.02V183.018C103.943 183.078 103.445 183.108 102.809 183.108C100.853 183.108 99.8751 182.37 99.8751 180.894V175.404H98.3271V173.694H99.8751V170.904H102.431ZM114.339 178.968H107.625C107.697 180.54 108.459 181.326 109.911 181.326C110.403 181.326 110.847 181.194 111.243 180.93C111.615 180.702 111.843 180.432 111.927 180.12H114.177C113.493 182.208 112.041 183.252 109.821 183.252C108.369 183.252 107.211 182.802 106.347 181.902C105.495 180.99 105.069 179.808 105.069 178.356C105.069 176.94 105.507 175.77 106.383 174.846C107.271 173.91 108.417 173.442 109.821 173.442C111.333 173.442 112.503 174.006 113.331 175.134C114.099 176.166 114.435 177.444 114.339 178.968ZM107.625 177.348H111.783C111.543 176.028 110.865 175.368 109.749 175.368C109.029 175.368 108.477 175.608 108.093 176.088C107.805 176.448 107.649 176.868 107.625 177.348ZM115.405 179.976H117.835C117.847 180.504 118.051 180.906 118.447 181.182C118.795 181.422 119.245 181.542 119.797 181.542C120.241 181.542 120.613 181.458 120.913 181.29C121.285 181.074 121.471 180.762 121.471 180.354C121.471 179.994 121.219 179.706 120.715 179.49C120.355 179.334 119.641 179.142 118.573 178.914C117.661 178.722 116.983 178.47 116.539 178.158C115.927 177.75 115.621 177.174 115.621 176.43C115.621 174.438 116.971 173.442 119.671 173.442C122.239 173.442 123.607 174.432 123.775 176.412H121.345C121.285 175.572 120.703 175.152 119.599 175.152C118.651 175.152 118.177 175.44 118.177 176.016C118.177 176.412 118.477 176.718 119.077 176.934C119.149 176.958 119.815 177.114 121.075 177.402C121.999 177.618 122.677 177.882 123.109 178.194C123.721 178.626 124.027 179.232 124.027 180.012C124.027 181.14 123.583 181.986 122.695 182.55C121.963 183.018 120.991 183.252 119.779 183.252C118.567 183.252 117.583 183.012 116.827 182.532C115.927 181.968 115.453 181.116 115.405 179.976ZM125.073 179.976H127.503C127.515 180.504 127.719 180.906 128.115 181.182C128.463 181.422 128.913 181.542 129.465 181.542C129.909 181.542 130.281 181.458 130.581 181.29C130.953 181.074 131.139 180.762 131.139 180.354C131.139 179.994 130.887 179.706 130.383 179.49C130.023 179.334 129.309 179.142 128.241 178.914C127.329 178.722 126.651 178.47 126.207 178.158C125.595 177.75 125.289 177.174 125.289 176.43C125.289 174.438 126.639 173.442 129.339 173.442C131.907 173.442 133.275 174.432 133.443 176.412H131.013C130.953 175.572 130.371 175.152 129.267 175.152C128.319 175.152 127.845 175.44 127.845 176.016C127.845 176.412 128.145 176.718 128.745 176.934C128.817 176.958 129.483 177.114 130.743 177.402C131.667 177.618 132.345 177.882 132.777 178.194C133.389 178.626 133.695 179.232 133.695 180.012C133.695 181.14 133.251 181.986 132.363 182.55C131.631 183.018 130.659 183.252 129.447 183.252C128.235 183.252 127.251 183.012 126.495 182.532C125.595 181.968 125.121 181.116 125.073 179.976Z" fill="#D9A5B5"/>
</svg>
