<svg width="177" height="210" viewBox="0 0 177 210" fill="none" xmlns="http://www.w3.org/2000/svg">
<rect width="177" height="210" rx="10" fill="#8E97FD"/>
<mask id="mask0_0_1" style="mask-type:alpha" maskUnits="userSpaceOnUse" x="0" y="0" width="177" height="210">
<rect width="177" height="210" rx="10" fill="#8E97FD"/>
</mask>
<g mask="url(#mask0_0_1)">
<path d="M148.413 -5.50246C142.938 -2.19066 138.35 2.5551 132.55 5.25234C126.165 8.2196 118.885 8.44618 112.109 10.355C100.243 13.6979 90.038 22.5159 84.9974 33.7828C79.9568 45.0497 80.1736 58.5514 85.5767 69.6476C87.1599 72.9005 89.2046 75.995 91.996 78.2949C97.9816 83.23 106.427 83.8073 114.138 83.019C121.849 82.2306 129.545 80.3062 137.256 81.0884C142.647 81.6377 147.852 83.4969 153.258 83.8694C158.636 84.2388 164.021 83.1152 169.139 81.4174C178.734 78.2328 187.855 72.7918 193.809 64.6101C199.764 56.4284 202.106 45.2546 198.292 35.8779C194.794 27.2741 186.835 21.2557 182.495 13.043C180.438 9.15076 179.239 4.84263 177.079 1.00629C171.472 -8.96013 157.781 -11.1701 148.413 -5.50246Z" fill="#808AFF"/>
<path d="M121.069 -6.67233C120.133 -6.20986 119.21 -5.68842 118.475 -4.9466C117.763 -4.22651 117.261 -3.3326 116.775 -2.44491C115.913 -0.868159 115.052 0.969312 115.669 2.65469C116.074 3.76276 117.072 4.57597 118.175 4.99499C119.278 5.4109 120.477 5.47918 121.654 5.46367C125.223 5.41711 128.78 4.63494 132.042 3.18545C133.024 2.74781 133.991 2.24499 134.806 1.54352C135.633 0.832743 136.29 -0.0673695 136.788 -1.03887C137.659 -2.73356 138.009 -4.9435 136.841 -6.45196C136.008 -7.52899 134.613 -7.97905 133.281 -8.24908C128.993 -9.11816 125 -8.61844 121.069 -6.67233Z" fill="#808AFF"/>
<path d="M176.11 82.9296C176.054 82.9296 175.998 82.9048 175.964 82.8551C175.902 82.7744 175.921 82.6596 176.001 82.5975C182.405 77.7586 187.402 71.2716 190.448 63.841C190.971 62.5653 191.259 60.6689 190.661 59.5143C190.404 59.0177 190.001 58.7042 189.469 58.5862C188.759 58.4248 188.022 58.7135 187.384 58.999C186.048 59.5888 184.753 60.3026 183.536 61.1189C182.941 61.5162 182.352 61.9477 181.791 62.3946C181.723 62.4474 181.627 62.5436 181.513 62.6554C180.949 63.2047 180.49 63.6175 180.131 63.481C180.041 63.4468 179.991 63.3475 180.019 63.2575C180.109 62.9533 180.218 62.6678 180.32 62.3915C180.555 61.7645 180.775 61.1686 180.788 60.4454C180.797 59.8712 180.67 59.4677 180.41 59.2473C180.174 59.0487 179.812 58.9804 179.335 59.0394C178.272 59.1728 177.284 59.7781 176.624 60.6968C176.577 60.762 176.491 60.7899 176.416 60.762C176.339 60.7341 176.289 60.6627 176.292 60.5789C176.314 60.0978 176.413 59.6043 176.509 59.1294C176.559 58.8842 176.608 58.639 176.646 58.3969C177.541 52.7231 177.987 46.9344 177.965 41.1923C177.959 39.1841 177.59 34.4353 174.331 33.6593C172.317 33.1813 170.304 34.6308 169.086 36.1455C166.127 39.8359 165.43 44.9324 164.87 49.0295C164.857 49.1226 164.777 49.1878 164.684 49.1878C164.591 49.1847 164.513 49.1133 164.504 49.0202C164.402 47.9028 163.776 46.8289 162.788 46.0778C161.799 45.3266 160.597 45.0131 159.494 45.2149C158.391 45.4197 157.385 46.1429 156.728 47.1982C156.285 47.909 156.049 48.6974 156.037 49.464C156.173 49.8396 156.226 50.2338 156.179 50.6311C156.17 50.718 156.099 50.7863 156.012 50.7925C155.916 50.7987 155.845 50.7428 155.82 50.659C155.718 50.2928 155.668 49.9141 155.668 49.5292C155.501 49.1133 155.21 48.7253 154.807 48.4056C153.884 47.6669 152.573 47.4124 151.548 47.7725C149.484 48.4988 148.409 50.7708 148.09 52.6548C148.09 52.6548 148.09 52.6548 148.09 52.6579C148.075 52.7572 147.982 52.8224 147.88 52.81C147.78 52.7945 147.712 52.6982 147.728 52.5989C147.898 51.5374 147.415 50.5162 146.396 49.7899C145.02 48.8091 143.118 48.6353 141.77 49.3647C139.106 50.8111 138.189 54.1664 137.888 56.727C137.879 56.8201 137.798 56.8884 137.705 56.8884C137.705 56.8884 137.702 56.8884 137.699 56.8884C137.603 56.8853 137.529 56.8108 137.523 56.7177L136.937 47.4466C136.788 45.0721 136.101 41.0185 133.182 40.5622C130.409 40.1277 128.538 43.4209 128.033 44.4389C126.462 47.5955 125.654 51.1153 125.685 54.6412C125.697 54.7933 125.7 54.9454 125.694 55.0975C125.688 55.1968 125.601 55.2682 125.508 55.2713C125.409 55.2713 125.328 55.1906 125.325 55.0944C125.322 54.9485 125.319 54.8057 125.316 54.6599C125.232 53.7256 124.731 52.8007 123.919 52.124C122.986 51.345 121.806 51.0284 120.762 51.2767C119.718 51.525 118.804 52.3351 118.314 53.4494C117.828 54.5637 117.85 55.7866 118.376 56.7239C118.42 56.7984 118.404 56.8946 118.339 56.9505C118.274 57.0064 118.178 57.0126 118.11 56.9629C117.01 56.1714 116.62 54.7778 116.242 53.4276C115.823 51.9378 115.427 50.5287 114.138 50.0538C112.809 49.5634 111.325 50.5597 110.712 51.7671C110.042 53.0831 110.064 54.6599 110.083 56.0504C110.083 56.1435 110.018 56.2211 109.925 56.2335C109.835 56.249 109.748 56.1901 109.72 56.1032C108.125 50.5504 104.72 45.5563 100.141 42.0459C98.1829 40.5436 95.4318 39.6621 94.019 41.2668C93.387 41.9869 93.2259 43.036 93.1453 44.0603C92.6744 50.1407 93.954 56.4756 96.7484 61.8949C96.7918 61.9756 96.767 62.0749 96.6927 62.1277C96.6183 62.1805 96.5161 62.1712 96.4541 62.1029C95.6517 61.24 94.7409 60.2654 93.5822 59.806C92.5474 59.3963 91.0665 59.4925 90.3632 60.4796C90.0039 60.9855 89.9016 61.6373 89.8583 62.1494C89.7157 63.7386 89.9698 65.3557 90.5956 66.8238C90.6328 66.9138 90.5956 67.0162 90.5089 67.0597C90.4221 67.1031 90.3168 67.0721 90.2672 66.9883C89.3626 65.4085 88.2101 63.6672 86.5185 62.6988C85.0035 61.8328 82.6675 61.6714 81.3199 63.0744C78.8848 65.6133 81.7381 69.8594 83.0796 71.5665C86.1064 75.4214 89.5392 79.7947 94.3505 81.9178C94.4435 81.9581 94.4837 82.0667 94.4435 82.1599C94.4032 82.253 94.2947 82.2964 94.2018 82.253C89.3068 80.0927 85.8462 75.6822 82.7915 71.793C81.3911 70.0083 78.4169 65.5667 81.0534 62.8167C82.5312 61.2772 85.0624 61.4417 86.6982 62.376C87.9746 63.1054 88.9505 64.2445 89.7436 65.4333C89.4772 64.3531 89.3873 63.2265 89.4896 62.1153C89.5392 61.5597 89.6507 60.8458 90.0627 60.2654C90.8837 59.1139 92.5226 58.9897 93.7154 59.4646C94.5612 59.7998 95.2706 60.3802 95.8965 60.9979C93.4056 55.7121 92.3274 49.8738 92.7798 44.0292C92.8634 42.9398 93.04 41.8224 93.7433 41.0216C95.3109 39.2369 98.2727 40.1494 100.364 41.751C104.689 45.0659 107.976 49.6782 109.714 54.843C109.739 53.7473 109.869 52.6113 110.383 51.5964C111.068 50.2524 112.744 49.1475 114.262 49.7061C115.731 50.2462 116.167 51.8105 116.595 53.3252C116.874 54.3153 117.159 55.3303 117.726 56.0721C117.496 55.1999 117.58 54.2129 117.98 53.2973C118.513 52.0775 119.523 51.1867 120.678 50.9135C121.834 50.6404 123.135 50.9849 124.154 51.8354C124.675 52.2699 125.078 52.7976 125.344 53.3687C125.493 50.2152 126.298 47.102 127.705 44.2713C128.241 43.1974 130.22 39.7273 133.238 40.196C136.407 40.6895 137.145 44.9324 137.303 47.4186L137.786 55.0634C138.275 52.7541 139.335 50.2617 141.594 49.0357C143.059 48.2411 145.119 48.4274 146.606 49.4827C147.334 50.001 147.818 50.659 148.019 51.3853C148.552 49.7186 149.642 48.0456 151.424 47.4217C152.579 47.0151 153.998 47.2883 155.033 48.1139C155.309 48.3342 155.541 48.5826 155.721 48.8495C155.82 48.2132 156.052 47.58 156.415 46.9965C157.124 45.8512 158.224 45.069 159.426 44.8455C160.628 44.6221 161.936 44.9604 163.008 45.7767C163.776 46.3602 164.343 47.1269 164.643 47.9649C165.198 44.0168 166.016 39.3735 168.801 35.9065C169.424 35.1274 171.673 32.6381 174.415 33.2931C175.868 33.6376 178.312 35.1243 178.331 41.183C178.349 46.9437 177.903 52.751 177.005 58.4434C176.965 58.6886 176.915 58.9401 176.866 59.1915C176.813 59.4553 176.757 59.7253 176.717 59.9923C177.411 59.2598 178.319 58.7818 179.285 58.6607C179.871 58.5862 180.326 58.6855 180.642 58.9525C180.995 59.2504 181.163 59.7377 181.15 60.4392C181.138 61.2276 180.905 61.8484 180.658 62.5064C180.589 62.6864 180.521 62.8695 180.456 63.0588C180.713 62.9037 181.098 62.5281 181.249 62.3791C181.373 62.2581 181.482 62.1525 181.553 62.0936C182.123 61.6373 182.718 61.2028 183.322 60.7993C184.558 59.9705 185.872 59.2473 187.226 58.6483C187.969 58.3193 188.762 58.0399 189.54 58.2138C190.184 58.3596 190.668 58.7352 190.977 59.3311C191.634 60.5944 191.352 62.5715 190.779 63.9652C187.709 71.4609 182.671 78.0007 176.212 82.8768C176.187 82.9172 176.147 82.9296 176.11 82.9296Z" fill="#8E97FD"/>
<path d="M161.213 83.354C161.145 83.3571 161.08 83.3105 161.065 83.2392C160.25 79.7908 159.692 76.2524 159.407 72.7203C159.33 71.7612 159.255 70.6283 159.296 69.4861C159.413 66.106 160.504 62.729 162.453 59.7152C164.256 56.9248 166.815 54.4542 169.848 52.5639C169.916 52.5205 170.009 52.5422 170.052 52.6105C170.096 52.6788 170.074 52.7719 170.006 52.8153C167.007 54.6807 164.482 57.1204 162.703 59.8735C160.786 62.8407 159.711 66.168 159.596 69.4923C159.556 70.6189 159.63 71.7425 159.708 72.6923C159.993 76.209 160.547 79.7349 161.356 83.1678C161.374 83.2485 161.325 83.3261 161.247 83.3447C161.232 83.3509 161.223 83.354 161.213 83.354Z" fill="#565D70"/>
<path d="M170.353 51.5956C170.496 51.4683 170.666 51.3721 170.84 51.2914C171.379 51.0338 172.005 50.8755 172.572 51.0617C172.624 51.0773 172.674 51.099 172.714 51.1393C172.751 51.1766 172.77 51.2293 172.779 51.279C172.813 51.4745 172.708 51.6639 172.593 51.8222C172.243 52.2971 171.729 52.6354 171.168 52.7968C170.846 52.8899 169.697 53.1258 169.833 52.5174C169.904 52.1791 170.093 51.8253 170.353 51.5956Z" fill="#565D70"/>
<path d="M167.8 55.0319C168.476 54.9667 169.157 55.0101 169.833 55.0629C170.263 55.0971 170.694 55.1374 171.125 55.1809C171.211 55.1902 171.317 55.2181 171.332 55.3019C171.351 55.395 171.239 55.4571 171.153 55.4974C170.552 55.7675 170.183 56.3851 169.635 56.7514C169.238 57.0152 168.764 57.1363 168.29 57.2015C167.893 57.2542 167.491 57.2697 167.091 57.248C166.766 57.2294 166.428 57.1797 166.162 56.9935C165.892 56.8042 165.728 56.4752 165.722 56.1461C165.715 55.7364 166.034 55.4912 166.385 55.3578C166.837 55.1809 167.323 55.0753 167.8 55.0319Z" fill="#565D70"/>
<path d="M163.615 60.6964C164.29 60.6312 164.972 60.6746 165.647 60.7274C166.078 60.7615 166.508 60.8019 166.939 60.8454C167.026 60.8547 167.131 60.8795 167.147 60.9664C167.165 61.0595 167.054 61.1216 166.967 61.1619C166.366 61.432 165.997 62.0496 165.449 62.4159C165.052 62.6797 164.578 62.8008 164.104 62.866C163.708 62.9187 163.305 62.9342 162.905 62.9125C162.58 62.8939 162.242 62.8442 161.976 62.658C161.706 62.4687 161.542 62.1397 161.536 61.8107C161.53 61.4009 161.849 61.1557 162.199 61.0223C162.651 60.8485 163.134 60.7429 163.615 60.6964Z" fill="#565D70"/>
<path d="M161.381 66.0009C162.001 65.7278 162.664 65.554 163.32 65.3926C163.742 65.2901 164.163 65.1908 164.584 65.0977C164.668 65.0791 164.777 65.0729 164.82 65.1473C164.866 65.2312 164.783 65.3243 164.712 65.3863C164.225 65.8333 164.07 66.5348 163.664 67.0531C163.37 67.4287 162.958 67.6925 162.53 67.9004C162.171 68.0743 161.793 68.217 161.406 68.3195C161.093 68.4033 160.755 68.4622 160.442 68.3691C160.126 68.2729 159.869 68.0153 159.758 67.7018C159.621 67.3169 159.847 66.9817 160.139 66.7458C160.514 66.4448 160.941 66.1933 161.381 66.0009Z" fill="#565D70"/>
<path d="M161.111 72.5125C161.703 72.1773 162.341 71.9414 162.983 71.7148C163.392 71.5721 163.801 71.4324 164.213 71.2989C164.293 71.271 164.402 71.2524 164.451 71.3238C164.504 71.4014 164.43 71.5038 164.368 71.5752C163.928 72.0656 163.841 72.7826 163.488 73.3381C163.234 73.7416 162.846 74.0458 162.441 74.2941C162.1 74.5052 161.737 74.6821 161.362 74.8218C161.059 74.9366 160.73 75.0297 160.411 74.9645C160.089 74.8994 159.804 74.6697 159.665 74.3686C159.491 73.9962 159.683 73.6423 159.95 73.3785C160.294 73.0402 160.693 72.7484 161.111 72.5125Z" fill="#565D70"/>
<path d="M164.461 55.8104C164.461 55.4225 164.449 55.0314 164.38 54.6496C164.328 54.3454 164.241 54.0444 164.151 53.7495C163.863 52.7873 163.532 51.791 162.822 51.0802C162.8 51.0585 162.776 51.0336 162.745 51.0243C162.667 50.9964 162.584 51.0585 162.553 51.1361C162.522 51.2105 162.528 51.2975 162.525 51.3782C162.518 51.5582 162.463 51.732 162.407 51.9027C162.261 52.3559 162.116 52.8121 161.97 53.2653C161.75 53.9481 161.53 54.6403 161.481 55.3573C161.431 56.0743 161.567 56.8285 162.004 57.3965C162.15 57.5858 162.326 57.7534 162.515 57.8993C162.695 58.039 162.893 58.1663 163.113 58.2159C163.411 58.2842 163.736 58.2004 163.965 57.9987C164.229 57.769 164.322 57.3934 164.359 57.0582C164.411 56.6423 164.458 56.2295 164.461 55.8104Z" fill="#565D70"/>
<path d="M160.823 60.1438C160.662 59.7899 160.489 59.4392 160.269 59.1195C160.092 58.865 159.891 58.6291 159.686 58.3963C159.026 57.639 158.311 56.8723 157.372 56.5216C157.341 56.5092 157.31 56.4999 157.279 56.503C157.199 56.5092 157.146 56.6023 157.149 56.683C157.152 56.7637 157.192 56.8413 157.223 56.9158C157.292 57.0834 157.313 57.2634 157.335 57.4403C157.391 57.9152 157.446 58.387 157.502 58.8619C157.586 59.5758 157.673 60.2959 157.924 60.9663C158.174 61.6398 158.614 62.2668 159.246 62.6051C159.457 62.7169 159.686 62.7945 159.922 62.8503C160.142 62.9031 160.374 62.9372 160.597 62.8907C160.895 62.8286 161.158 62.6175 161.285 62.3382C161.431 62.0185 161.356 61.6398 161.254 61.3201C161.124 60.9197 160.994 60.5224 160.823 60.1438Z" fill="#565D70"/>
<path d="M157.701 66.4381C157.35 66.2705 156.991 66.1184 156.616 66.016C156.319 65.9353 156.012 65.8856 155.705 65.839C154.714 65.6869 153.673 65.5628 152.728 65.9011C152.697 65.9135 152.666 65.9228 152.644 65.9477C152.586 66.0066 152.607 66.1091 152.66 66.1711C152.716 66.2332 152.793 66.2612 152.867 66.3015C153.025 66.3853 153.159 66.5095 153.289 66.6305C153.636 66.9564 153.983 67.2823 154.333 67.6082C154.856 68.0986 155.386 68.5953 156.012 68.946C156.638 69.2967 157.375 69.4954 158.075 69.3433C158.311 69.2936 158.534 69.2036 158.748 69.095C158.952 68.9925 159.147 68.8684 159.29 68.6884C159.479 68.4494 159.541 68.1173 159.46 67.8224C159.364 67.4841 159.067 67.242 158.782 67.0619C158.432 66.8416 158.078 66.6181 157.701 66.4381Z" fill="#565D70"/>
<path d="M157.923 72.9253C157.573 72.7577 157.214 72.6056 156.839 72.5032C156.542 72.4225 156.235 72.3728 155.928 72.3263C154.937 72.1742 153.896 72.05 152.951 72.3883C152.92 72.4008 152.889 72.4101 152.867 72.4349C152.808 72.4939 152.83 72.5963 152.883 72.6584C152.939 72.7205 153.016 72.7484 153.09 72.7887C153.248 72.8725 153.382 72.9967 153.512 73.1177C153.859 73.4437 154.206 73.7696 154.556 74.0955C155.079 74.5859 155.609 75.0825 156.235 75.4332C156.861 75.7839 157.598 75.9826 158.298 75.8305C158.534 75.7808 158.757 75.6908 158.971 75.5822C159.175 75.4798 159.37 75.3556 159.513 75.1756C159.702 74.9366 159.764 74.6045 159.683 74.3096C159.587 73.9713 159.29 73.7292 159.005 73.5492C158.651 73.3257 158.298 73.1053 157.923 72.9253Z" fill="#565D70"/>
<path d="M156.192 68.7098C156.505 67.2728 157.497 65.5719 158.94 65.845C159.956 66.0374 160.508 67.1393 160.808 68.1325C161.468 70.299 161.676 72.6052 161.416 74.8554C161.465 71.8944 162.277 68.9519 163.755 66.3882C164.226 65.5688 164.889 64.7121 165.827 64.6283C166.816 64.5383 167.686 65.4074 167.956 66.3633C168.225 67.3224 168.042 68.3405 167.857 69.3182C168.417 63.6289 169.663 57.3188 174.344 54.0504C175.289 53.3893 176.389 52.8772 177.541 52.8772C178.694 52.8772 179.896 53.4917 180.339 54.5595C180.581 55.1399 180.584 55.7886 180.54 56.4155C180.172 61.6672 176.86 66.2175 173.371 70.1593C174.205 69.79 175.069 69.4144 175.98 69.402C176.891 69.3896 177.873 69.8365 178.207 70.687C178.619 71.7361 177.91 72.9093 177.027 73.6108C176.147 74.3123 175.069 74.7685 174.304 75.5973C175.909 75.2217 178.025 75.0603 178.784 76.5284C179.118 77.1802 179.047 77.9624 178.895 78.6794C177.981 82.9347 174.26 86.4328 169.963 87.0784C160.207 88.5372 154.386 76.9909 156.192 68.7098Z" fill="#F2EDE4"/>
<path d="M164.111 85.2411C164.102 85.2411 164.092 85.2411 164.083 85.238C164.027 85.2224 163.996 85.1635 164.012 85.1107C164.08 84.8748 170.849 61.4812 178.613 54.6745C178.656 54.6372 178.721 54.6403 178.759 54.6838C178.796 54.7273 178.793 54.7924 178.749 54.8297C171.032 61.5991 164.278 84.9307 164.213 85.1666C164.198 85.2131 164.154 85.2411 164.111 85.2411Z" fill="#D9C9AC"/>
<path d="M164.777 83.053C164.752 83.053 164.73 83.0468 164.712 83.0282C157.472 77.1154 158.274 68.6047 158.28 68.5209C158.286 68.465 158.339 68.4215 158.395 68.4277C158.451 68.434 158.494 68.4836 158.488 68.5426C158.478 68.6264 157.692 77.0285 164.842 82.8668C164.885 82.904 164.895 82.9692 164.857 83.0127C164.836 83.0406 164.805 83.053 164.777 83.053Z" fill="#D9C9AC"/>
<path d="M166.661 77.4228C166.62 77.4228 166.58 77.398 166.564 77.3607C164.631 72.7701 165.818 66.1621 165.83 66.0969C165.84 66.041 165.892 66.0007 165.951 66.0131C166.007 66.0224 166.044 66.0783 166.035 66.1341C166.022 66.1993 164.848 72.7453 166.757 77.28C166.778 77.3328 166.753 77.3949 166.701 77.4166C166.688 77.4197 166.676 77.4228 166.661 77.4228Z" fill="#D9C9AC"/>
<path d="M165.182 84.1764C164.714 84.1764 164.442 84.1516 164.426 84.1516C164.371 84.1454 164.327 84.0957 164.333 84.0367C164.34 83.9809 164.389 83.9343 164.448 83.9436C164.532 83.9529 172.859 84.6792 177.07 77.6801C177.101 77.6304 177.163 77.6149 177.212 77.6459C177.262 77.677 177.277 77.739 177.246 77.7887C173.721 83.6487 167.363 84.1764 165.182 84.1764Z" fill="#D9C9AC"/>
<path d="M167.801 74.3251C167.745 74.3251 167.699 74.2816 167.695 74.2258C167.692 74.1699 167.739 74.1202 167.795 74.1171C167.844 74.114 172.786 73.9216 176.206 70.9605C176.249 70.9233 176.314 70.9264 176.352 70.9698C176.389 71.0133 176.386 71.0785 176.342 71.1157C172.866 74.1264 167.853 74.322 167.804 74.3251C167.801 74.3251 167.801 74.3251 167.801 74.3251Z" fill="#D9C9AC"/>
<path d="M172.389 63.8434C172.336 63.8434 172.289 63.8031 172.283 63.7472C172.28 63.7099 172.035 59.9729 173.801 56.8908C173.829 56.8411 173.894 56.8256 173.944 56.8536C173.993 56.8815 174.012 56.9467 173.981 56.9963C172.246 60.0195 172.488 63.6975 172.491 63.7348C172.494 63.7906 172.45 63.8434 172.395 63.8465C172.395 63.8434 172.392 63.8434 172.389 63.8434Z" fill="#D9C9AC"/>
<path d="M174.727 59.7306C174.684 59.7306 174.641 59.7026 174.628 59.6592C174.61 59.6033 174.641 59.5444 174.696 59.5288C174.734 59.5164 178.34 58.3742 179.393 57.0985C179.43 57.0551 179.495 57.0489 179.539 57.0861C179.582 57.1234 179.588 57.1885 179.551 57.232C178.458 58.5542 174.907 59.6809 174.755 59.7275C174.749 59.7275 174.74 59.7306 174.727 59.7306Z" fill="#D9C9AC"/>
<path d="M171.01 67.5861C170.747 67.5861 170.595 67.5427 170.573 67.5364C170.517 67.5178 170.489 67.4619 170.505 67.4061C170.524 67.3502 170.579 67.3192 170.635 67.3378C170.651 67.3409 172.193 67.7785 174.418 65.5096C174.458 65.4693 174.523 65.4662 174.563 65.5096C174.604 65.55 174.604 65.6152 174.563 65.6555C172.925 67.3285 171.645 67.5861 171.01 67.5861Z" fill="#D9C9AC"/>
<path d="M165.489 73.0958C165.071 73.0958 164.067 72.8754 163.423 70.9231C163.404 70.8672 163.435 70.8082 163.488 70.7927C163.544 70.7741 163.603 70.8051 163.618 70.8579C164.371 73.133 165.582 72.8878 165.632 72.8754C165.688 72.8599 165.743 72.8971 165.756 72.953C165.768 73.0089 165.734 73.0647 165.678 73.0772C165.669 73.0803 165.601 73.0958 165.489 73.0958Z" fill="#D9C9AC"/>
<path d="M160.322 77.587C160.319 77.587 160.319 77.587 160.316 77.587C160.244 77.5807 158.528 77.4473 157.453 75.2218C157.428 75.1691 157.45 75.107 157.502 75.0822C157.552 75.0573 157.617 75.0791 157.642 75.1318C158.664 77.2486 160.312 77.3759 160.328 77.379C160.384 77.3821 160.43 77.4318 160.424 77.4907C160.424 77.5435 160.377 77.587 160.322 77.587Z" fill="#D9C9AC"/>
<path d="M162.119 80.3616C162.097 80.3616 162.075 80.3554 162.057 80.3399C162.01 80.3058 162.004 80.2406 162.038 80.194C162.047 80.1816 163.02 78.8594 162.212 75.3893C162.199 75.3334 162.233 75.2775 162.289 75.2651C162.345 75.2527 162.401 75.2869 162.413 75.3427C163.246 78.9246 162.243 80.2685 162.199 80.3213C162.177 80.3492 162.15 80.3616 162.119 80.3616Z" fill="#D9C9AC"/>
<path d="M168.82 83.7603C168.811 83.7603 168.802 83.7603 168.795 83.7572C168.74 83.7417 168.706 83.6858 168.721 83.63C168.774 83.4251 170.044 78.5738 172.395 77.4533C172.448 77.4285 172.51 77.4502 172.535 77.503C172.56 77.5558 172.538 77.6178 172.485 77.6427C170.224 78.7228 168.938 83.6331 168.926 83.6827C168.91 83.7293 168.867 83.7603 168.82 83.7603Z" fill="#D9C9AC"/>
<path d="M173.997 83.016C173.827 83.016 173.669 82.9881 173.526 82.9291C172.938 82.6932 172.807 82.0693 172.801 82.0414C172.789 81.9855 172.826 81.9296 172.882 81.9203C172.941 81.9079 172.993 81.9451 173.006 82.001C173.006 82.0072 173.12 82.5442 173.607 82.7366C174.112 82.9353 174.861 82.7025 175.779 82.0538C175.825 82.0196 175.89 82.0321 175.924 82.0786C175.958 82.1252 175.946 82.1904 175.899 82.2245C175.15 82.7491 174.514 83.016 173.997 83.016Z" fill="#D9C9AC"/>
<rect x="133.726" y="15.009" width="5.86056" height="14.6514" rx="2.93028" fill="#FDFFFC"/>
<rect x="123.958" y="19.8858" width="5.86056" height="14.6514" rx="2.93028" transform="rotate(-41.7192 123.958 19.8858)" fill="#FDFFFC"/>
<rect x="144.774" y="15.9854" width="5.86056" height="14.6514" rx="2.93028" transform="rotate(43.4252 144.774 15.9854)" fill="#FDFFFC"/>
<path d="M103.97 52.9902C101.426 52.9902 98.9137 51.671 96.491 49.0607C96.2958 48.8496 96.3082 48.5206 96.5189 48.3251C96.7295 48.1296 97.0579 48.142 97.2531 48.353C99.6201 50.9044 102.04 52.1087 104.438 51.9317C108.205 51.6524 110.717 48.0489 110.742 48.0116C110.906 47.7757 111.229 47.7136 111.464 47.8781C111.7 48.0395 111.762 48.3654 111.597 48.6013C111.483 48.7658 108.772 52.6549 104.512 52.9715C104.332 52.9808 104.15 52.9902 103.97 52.9902Z" fill="#E9F2DE"/>
<path d="M95.1469 50.1129C95.0663 50.1129 94.9858 50.1098 94.9052 50.1005C94.614 50.0664 94.3631 49.9764 94.1617 49.8336C93.5266 49.3773 93.4925 48.5083 93.7868 47.9216C93.9138 47.664 94.2267 47.5585 94.4839 47.6888C94.741 47.8161 94.8433 48.1296 94.7162 48.3872C94.6078 48.6045 94.6326 48.89 94.7689 48.9893C94.8247 49.0297 94.9114 49.0545 95.023 49.0701C95.3607 49.1073 95.7107 48.9956 95.9617 48.7659C96.2126 48.5362 96.3582 48.1979 96.3551 47.8596C96.352 47.7509 96.3366 47.6578 96.3056 47.5864C96.2405 47.4343 96.0825 47.3102 95.8997 47.2698C95.7107 47.2295 95.4846 47.276 95.3018 47.3971C95.0601 47.5523 94.7379 47.484 94.583 47.245C94.4281 47.0029 94.4963 46.6801 94.7348 46.5249C95.15 46.2549 95.6519 46.1524 96.1135 46.2518C96.6247 46.3604 97.0646 46.7173 97.2629 47.1829C97.3465 47.3785 97.3899 47.6019 97.393 47.844C97.4023 48.4772 97.1297 49.1104 96.6619 49.5387C96.2498 49.905 95.6983 50.1129 95.1469 50.1129Z" fill="#E9F2DE"/>
<path d="M95.7602 52.459C95.5402 52.459 95.3358 52.3193 95.2645 52.0958C94.5891 49.9728 96.0948 48.5947 96.1599 48.5357C96.3736 48.3433 96.702 48.365 96.8941 48.5792C97.0831 48.7934 97.0676 49.1193 96.8538 49.3117C96.8074 49.3551 95.7881 50.3111 96.2528 51.7792C96.3395 52.0524 96.1877 52.3472 95.9151 52.4341C95.8655 52.4528 95.8129 52.459 95.7602 52.459Z" fill="#E9F2DE"/>
<path d="M94.412 52.7509C94.2106 52.7509 94.0185 52.6329 93.9348 52.4374C93.3338 51.0407 94.3221 49.3894 94.3655 49.3211C94.5142 49.0759 94.8333 48.9983 95.0811 49.1473C95.3259 49.2963 95.4034 49.616 95.2546 49.8612C95.044 50.2088 94.57 51.2765 94.8922 52.0246C95.0068 52.2884 94.886 52.5957 94.6195 52.7074C94.5514 52.7385 94.4801 52.7509 94.412 52.7509Z" fill="#E9F2DE"/>
<path d="M166.23 33.6715C154.863 16.8022 137.114 29.5683 137.114 29.5683C137.114 29.5683 120.567 15.272 107.75 31.0674C94.9335 46.8597 116.081 71.647 135.187 72.9661C154.337 73.351 177.597 50.544 166.23 33.6715Z" fill="#93BFA8"/>
<path d="M166.23 33.6718C159.956 24.3602 151.74 24.0778 145.637 25.6949C150.364 27.6038 163.897 34.3267 161.871 48.2008C160.359 58.5645 149.11 67.3049 140.738 72.4666C158.453 69.0586 176.512 48.9364 166.23 33.6718Z" fill="#80B996"/>
<path d="M137.114 29.5716C137.114 29.5716 128.086 21.7748 118.203 24.0623C128.201 26.2909 133.842 31.3874 133.842 31.3874C135.261 30.4966 137.114 29.5716 137.114 29.5716Z" fill="#80B996"/>
<path d="M113.385 28.2804C111.446 29.5157 109.887 31.468 109.494 33.737C109.441 34.0349 109.41 34.3484 109.509 34.634C109.67 35.0995 110.157 35.3944 110.646 35.4565C111.136 35.5186 111.625 35.3913 112.093 35.2361C114.398 34.4695 116.474 33.0169 118.862 32.5792C120.111 32.3495 121.412 32.4054 122.617 32.0081C123.823 31.6139 124.966 30.5617 124.885 29.2954C124.746 27.1103 121.737 26.5361 120.012 26.3374C117.837 26.0891 115.188 27.132 113.385 28.2804Z" fill="#66A986"/>
<path d="M139.853 30.2325C139.788 30.4497 139.745 30.6856 139.81 30.9029C139.943 31.3405 140.454 31.533 140.903 31.6106C142.015 31.803 143.18 31.6788 144.224 31.2598C144.881 30.996 145.504 30.6049 145.944 30.0493C146.684 29.112 146.861 26.9672 145.327 26.691C144.15 26.4768 142.316 27.4452 141.418 28.1094C140.708 28.6371 140.113 29.3665 139.853 30.2325Z" fill="#66A986"/>
<path d="M136.547 30.7854C136.373 31.0833 136.358 31.4899 136.575 31.7569C136.761 31.9866 137.074 32.0735 137.365 32.1293C137.662 32.1852 137.984 32.2193 138.251 32.0735C138.393 31.9959 138.505 31.8748 138.601 31.7444C138.861 31.403 139.047 30.9312 138.849 30.5495C138.725 30.3136 138.477 30.1615 138.217 30.0994C137.579 29.9411 136.891 30.2018 136.547 30.7854Z" fill="#66A986"/>
<path d="M125.995 40.4132C126.075 40.8353 126.094 41.2295 126.082 41.6486C126.06 42.0614 125.998 42.4835 125.84 42.8963C125.688 43.3091 125.419 43.7157 125.028 43.9951C124.644 44.2806 124.176 44.411 123.733 44.4389C123.507 44.4544 123.272 44.4327 123.036 44.3768C122.801 44.3148 122.568 44.203 122.373 44.0478C121.973 43.7343 121.757 43.2936 121.642 42.8777C121.416 42.0334 121.45 41.2264 121.586 40.4132C121.617 40.2301 121.791 40.1059 121.973 40.137C122.147 40.168 122.268 40.3263 122.252 40.5001L122.249 40.5219C122.215 40.8695 122.203 41.2513 122.224 41.6082C122.246 41.9682 122.293 42.3252 122.398 42.6449C122.503 42.9615 122.655 43.2408 122.875 43.4022C122.983 43.4829 123.104 43.5419 123.241 43.576C123.38 43.604 123.529 43.6195 123.69 43.6071C124.012 43.5885 124.319 43.5015 124.554 43.3308C124.799 43.1632 124.976 42.9025 125.106 42.6014C125.236 42.2973 125.304 41.9496 125.338 41.5958C125.375 41.2451 125.369 40.8664 125.338 40.525L125.335 40.5063C125.316 40.3201 125.453 40.1556 125.639 40.1401C125.809 40.1246 125.964 40.2456 125.995 40.4132Z" fill="#3F4553"/>
<path d="M141.262 40.5251C141.231 40.8665 141.225 41.2452 141.262 41.5959C141.293 41.9497 141.364 42.2974 141.495 42.6016C141.625 42.9057 141.801 43.1634 142.046 43.331C142.285 43.5048 142.588 43.5917 142.91 43.6072C143.068 43.6196 143.22 43.6041 143.36 43.5762C143.496 43.542 143.617 43.483 143.725 43.4023C143.942 43.2409 144.097 42.9616 144.202 42.645C144.308 42.3284 144.354 41.9684 144.376 41.6083C144.401 41.2514 144.385 40.8696 144.351 40.522L144.348 40.5003C144.329 40.314 144.466 40.1495 144.652 40.134C144.828 40.1185 144.986 40.2426 145.014 40.4133C145.15 41.2266 145.184 42.0305 144.958 42.8778C144.844 43.2937 144.624 43.7345 144.227 44.0479C144.032 44.2031 143.8 44.3149 143.564 44.377C143.329 44.4328 143.09 44.4546 142.867 44.439C142.427 44.4142 141.959 44.2807 141.572 43.9952C141.185 43.7158 140.912 43.3092 140.76 42.8964C140.602 42.4836 140.54 42.0615 140.519 41.6487C140.506 41.2297 140.525 40.8355 140.605 40.4133C140.639 40.2302 140.816 40.1092 140.999 40.1433C141.169 40.1743 141.287 40.3326 141.271 40.5034L141.262 40.5251Z" fill="#3F4553"/>
<path d="M133.133 46.4254C132.563 46.4254 132.055 46.3509 131.63 46.2516C130.295 45.935 129.474 45.3111 129.437 45.2832C129.291 45.1684 129.264 44.9573 129.375 44.8114C129.49 44.6655 129.7 44.6376 129.846 44.7494C129.967 44.8425 132.857 46.9934 136.575 44.7276C136.733 44.6314 136.941 44.6811 137.037 44.8394C137.133 44.9977 137.083 45.2056 136.925 45.3018C135.519 46.1585 134.211 46.4254 133.133 46.4254Z" fill="#3F4553"/>
<path d="M175.983 56.3363C175.242 56.3363 174.511 56.2649 173.783 56.1253C167.457 54.8993 163.971 48.8188 163.826 48.5612C163.683 48.3098 163.773 47.9932 164.024 47.8535C164.275 47.7139 164.591 47.8008 164.731 48.0522C164.765 48.1112 168.135 53.9774 173.988 55.1072C177.653 55.8149 181.532 54.5423 185.528 51.3329C185.751 51.1529 186.08 51.1902 186.259 51.4136C186.439 51.6371 186.402 51.9661 186.179 52.1462C182.706 54.9303 179.285 56.3363 175.983 56.3363Z" fill="#E9F2DE"/>
<path d="M129.233 75.6723C128.852 75.6723 128.474 75.6661 128.096 75.6568C127.808 75.6475 127.581 75.4085 127.591 75.123C127.6 74.8343 127.835 74.617 128.124 74.617C132.585 74.7381 137.328 74.1297 141.842 72.8571C142.517 72.6678 143.301 72.4164 144.004 71.9974C144.314 71.8112 144.398 71.6839 144.413 71.6094C144.444 71.4542 144.218 71.2121 143.915 71.0662C143.208 70.731 142.356 70.7217 141.777 70.7403C139.745 70.8117 137.756 71.4108 136.021 72.4785C135.776 72.6275 135.457 72.553 135.305 72.3078C135.156 72.0626 135.231 71.7429 135.475 71.5908C137.362 70.4299 139.528 69.7781 141.74 69.7005C142.424 69.6757 143.444 69.6943 144.355 70.1258C144.946 70.4051 145.584 71.0135 145.43 71.8049C145.321 72.3636 144.866 72.6926 144.534 72.8913C143.723 73.3755 142.818 73.6641 142.121 73.8597C137.889 75.0516 133.455 75.6723 129.233 75.6723Z" fill="#E9F2DE"/>
<path d="M140.826 75.688C136.6 75.688 132.278 75.0735 127.962 73.8599C127.265 73.6643 126.36 73.3757 125.549 72.8915C125.217 72.6928 124.762 72.3638 124.653 71.8051C124.502 71.0137 125.137 70.4053 125.728 70.126C126.639 69.6945 127.659 69.6759 128.343 69.7007C130.555 69.7783 132.721 70.4301 134.608 71.591C134.852 71.74 134.93 72.0628 134.778 72.308C134.629 72.5532 134.307 72.6308 134.062 72.4787C132.327 71.414 130.338 70.8119 128.306 70.7405C127.73 70.7219 126.878 70.7312 126.171 71.0664C125.865 71.2123 125.642 71.4544 125.673 71.6065C125.688 71.681 125.769 71.8113 126.079 71.9945C126.782 72.4135 127.566 72.6649 128.241 72.8542C132.854 74.1516 137.47 74.7538 141.959 74.6296C142.251 74.6327 142.486 74.85 142.492 75.1356C142.498 75.4242 142.272 75.6632 141.987 75.6694C141.603 75.6818 141.213 75.688 140.826 75.688Z" fill="#E9F2DE"/>
<path d="M140.943 76.4204C140.844 76.6531 140.757 76.8952 140.754 77.1467C140.748 77.3981 140.838 77.665 141.033 77.8202C141.303 78.0375 141.718 77.994 142 77.7892C142.282 77.5843 142.446 77.2584 142.545 76.9263C142.719 76.3552 142.725 75.7344 142.567 75.1602C142.514 74.9708 142.409 74.7194 142.183 74.6884C141.972 74.6574 141.867 74.8498 141.764 75.0019C141.455 75.4582 141.16 75.9144 140.943 76.4204Z" fill="#E9F2DE"/>
<path d="M129.17 76.4204C129.27 76.6531 129.356 76.8952 129.359 77.1467C129.366 77.3981 129.276 77.665 129.081 77.8202C128.811 78.0375 128.396 77.994 128.114 77.7892C127.832 77.5843 127.668 77.2584 127.569 76.9263C127.395 76.3552 127.389 75.7344 127.547 75.1602C127.6 74.9708 127.705 74.7194 127.931 74.6884C128.142 74.6574 128.247 74.8498 128.349 75.0019C128.659 75.4582 128.954 75.9144 129.17 76.4204Z" fill="#E9F2DE"/>
<path d="M135.685 89.0002C144.663 89.0002 151.941 88.1094 151.941 87.0106C151.941 85.9118 144.663 85.0211 135.685 85.0211C126.708 85.0211 119.43 85.9118 119.43 87.0106C119.43 88.1094 126.708 89.0002 135.685 89.0002Z" fill="#808AFF"/>
<path d="M114.541 84.9149C114.609 84.918 114.674 84.8714 114.689 84.8C115.504 81.3517 116.062 77.8133 116.347 74.2811C116.424 73.3221 116.499 72.1891 116.459 71.0469C116.341 67.6669 115.25 64.2899 113.302 61.2761C111.498 58.4857 108.939 56.015 105.906 54.1248C105.838 54.0814 105.745 54.1031 105.702 54.1714C105.658 54.2397 105.68 54.3328 105.748 54.3762C108.747 56.2416 111.272 58.6812 113.051 61.4343C114.968 64.4016 116.043 67.7289 116.158 71.0531C116.198 72.1798 116.124 73.3034 116.046 74.2532C115.761 77.7698 115.207 81.2958 114.398 84.7286C114.38 84.8093 114.429 84.8869 114.507 84.9056C114.522 84.9118 114.531 84.9149 114.541 84.9149Z" fill="#565D70"/>
<path d="M105.402 53.1565C105.259 53.0293 105.089 52.933 104.915 52.8523C104.376 52.5947 103.75 52.4364 103.183 52.6227C103.131 52.6382 103.081 52.6599 103.041 52.7003C103.004 52.7375 102.985 52.7903 102.976 52.8399C102.942 53.0355 103.047 53.2248 103.162 53.3831C103.512 53.858 104.026 54.1963 104.587 54.3577C104.909 54.4508 106.058 54.6867 105.922 54.0784C105.854 53.74 105.662 53.3862 105.402 53.1565Z" fill="#565D70"/>
<path d="M107.954 56.5928C107.279 56.5276 106.597 56.571 105.922 56.6238C105.491 56.6579 105.06 56.6983 104.63 56.7417C104.543 56.7511 104.438 56.779 104.422 56.8628C104.404 56.9559 104.515 57.018 104.602 57.0583C105.203 57.3284 105.572 57.946 106.12 58.3123C106.517 58.5761 106.991 58.6972 107.465 58.7623C107.861 58.8151 108.264 58.8306 108.664 58.8089C108.989 58.7903 109.327 58.7406 109.593 58.5544C109.862 58.365 110.027 58.036 110.033 57.707C110.039 57.2973 109.72 57.0521 109.37 56.9187C108.918 56.7417 108.434 56.6393 107.954 56.5928Z" fill="#565D70"/>
<path d="M112.143 62.2573C111.467 62.1921 110.786 62.2355 110.11 62.2883C109.68 62.3224 109.249 62.3628 108.818 62.4062C108.732 62.4156 108.626 62.4435 108.611 62.5273C108.592 62.6204 108.704 62.6825 108.791 62.7228C109.392 62.9929 109.76 63.6105 110.309 63.9768C110.705 64.2406 111.179 64.3616 111.653 64.4268C112.05 64.4796 112.452 64.4951 112.852 64.4734C113.177 64.4548 113.515 64.4051 113.782 64.2189C114.051 64.0295 114.215 63.7005 114.221 63.3715C114.228 62.9618 113.909 62.7166 113.558 62.5832C113.103 62.4093 112.62 62.3038 112.143 62.2573Z" fill="#565D70"/>
<path d="M114.373 67.5618C113.754 67.2887 113.091 67.1148 112.434 66.9534C112.012 66.851 111.591 66.7548 111.17 66.6586C111.086 66.64 110.978 66.6337 110.934 66.7082C110.888 66.792 110.971 66.8852 111.043 66.9472C111.529 67.3942 111.684 68.0957 112.09 68.614C112.384 68.9896 112.796 69.2534 113.224 69.4613C113.583 69.6352 113.961 69.7779 114.348 69.8803C114.661 69.9642 114.999 70.0231 115.312 69.93C115.628 69.8338 115.885 69.5762 115.997 69.2627C116.133 68.8778 115.907 68.5426 115.615 68.3067C115.241 68.0056 114.813 67.7542 114.373 67.5618Z" fill="#565D70"/>
<path d="M114.643 74.0734C114.051 73.7382 113.413 73.5023 112.772 73.2757C112.363 73.1329 111.954 72.9933 111.542 72.8598C111.461 72.8319 111.353 72.8133 111.303 72.8846C111.251 72.9622 111.325 73.0647 111.387 73.1361C111.827 73.6265 111.914 74.3434 112.267 74.899C112.521 75.3025 112.908 75.6067 113.314 75.855C113.655 76.0661 114.017 76.243 114.392 76.3827C114.696 76.4975 115.024 76.5906 115.343 76.5254C115.665 76.4602 115.95 76.2306 116.09 75.9295C116.263 75.557 116.071 75.2032 115.805 74.9394C115.461 74.6011 115.061 74.3093 114.643 74.0734Z" fill="#565D70"/>
<path d="M111.294 57.3742C111.294 56.9862 111.306 56.5951 111.375 56.2134C111.427 55.9092 111.514 55.6081 111.604 55.3133C111.892 54.3511 112.223 53.3547 112.933 52.644C112.955 52.6222 112.979 52.5974 113.01 52.5881C113.088 52.5602 113.171 52.6222 113.202 52.6998C113.233 52.7743 113.227 52.8612 113.23 52.9419C113.237 53.1219 113.292 53.2958 113.348 53.4665C113.494 53.9196 113.639 54.3759 113.785 54.8291C114.005 55.5119 114.225 56.2041 114.274 56.921C114.324 57.638 114.188 58.3923 113.751 58.9603C113.605 59.1496 113.429 59.3172 113.24 59.4631C113.06 59.6028 112.862 59.73 112.642 59.7797C112.344 59.848 112.019 59.7642 111.79 59.5624C111.526 59.3327 111.433 58.9572 111.396 58.6219C111.344 58.206 111.297 57.7901 111.294 57.3742Z" fill="#565D70"/>
<path d="M114.931 61.7052C115.092 61.3513 115.266 61.0006 115.486 60.6809C115.662 60.4264 115.864 60.1905 116.068 59.9577C116.728 59.2004 117.444 58.4337 118.382 58.083C118.413 58.0706 118.444 58.0612 118.475 58.0643C118.556 58.0706 118.609 58.1637 118.605 58.2444C118.602 58.3251 118.562 58.4027 118.531 58.4772C118.463 58.6448 118.441 58.8248 118.42 59.0017C118.364 59.4766 118.308 59.9484 118.252 60.4233C118.169 61.1372 118.082 61.8572 117.831 62.5277C117.58 63.2012 117.14 63.8282 116.508 64.1665C116.297 64.2782 116.068 64.3558 115.833 64.4117C115.613 64.4645 115.38 64.4986 115.157 64.4521C114.86 64.39 114.596 64.1789 114.469 63.8996C114.324 63.5799 114.398 63.2012 114.5 62.8815C114.634 62.4811 114.761 62.0838 114.931 61.7052Z" fill="#565D70"/>
<path d="M118.054 68.0019C118.405 67.8342 118.764 67.6822 119.139 67.5797C119.436 67.499 119.743 67.4494 120.05 67.4028C121.041 67.2507 122.082 67.1266 123.027 67.4649C123.058 67.4742 123.089 67.4866 123.111 67.5114C123.169 67.5704 123.148 67.6728 123.095 67.7349C123.039 67.797 122.962 67.828 122.887 67.8653C122.729 67.9491 122.596 68.0732 122.466 68.1943C122.119 68.5202 121.772 68.8461 121.422 69.172C120.898 69.6624 120.369 70.159 119.743 70.5097C119.117 70.8605 118.38 71.0591 117.68 70.907C117.444 70.8574 117.221 70.7674 117.007 70.6587C116.803 70.5563 116.608 70.4322 116.465 70.2521C116.276 70.0131 116.214 69.681 116.295 69.3862C116.391 69.0478 116.688 68.8057 116.973 68.6257C117.326 68.4022 117.676 68.1788 118.054 68.0019Z" fill="#565D70"/>
<path d="M117.834 74.4862C118.185 74.3186 118.544 74.1665 118.919 74.0641C119.216 73.9834 119.523 73.9337 119.83 73.8872C120.821 73.7351 121.862 73.6109 122.807 73.9492C122.838 73.9616 122.869 73.971 122.891 73.9958C122.949 74.0548 122.928 74.1572 122.875 74.2193C122.819 74.2813 122.742 74.3124 122.667 74.3496C122.509 74.4334 122.376 74.5576 122.246 74.6786C121.899 75.0045 121.552 75.3304 121.202 75.6563C120.679 76.1467 120.149 76.6434 119.523 76.9941C118.897 77.3448 118.16 77.5435 117.46 77.3914C117.224 77.3417 117.001 77.2517 116.787 77.1431C116.583 77.0406 116.388 76.9165 116.245 76.7365C116.056 76.4975 115.994 76.1654 116.075 75.8705C116.171 75.5322 116.468 75.2901 116.753 75.1101C117.103 74.8866 117.456 74.6662 117.834 74.4862Z" fill="#565D70"/>
<path d="M125.418 74.9456C125.434 74.8369 125.446 74.7314 125.452 74.6228C125.784 69.787 119.817 72.4966 118.308 74.7004C118.841 73.6637 118.327 72.2297 117.261 71.7641C116.195 71.3017 114.798 71.91 114.408 73.0057C114.711 70.5412 115.018 68.0768 115.322 65.6123C115.458 64.5105 115.539 63.2379 114.752 62.4557C113.869 61.5836 112.289 61.8691 111.415 62.7506C110.541 63.6321 110.21 64.9078 109.99 66.1338C108.921 65.0009 106.607 65.9569 106.647 67.515C106.78 64.3553 106.895 61.0838 105.705 58.1538C104.943 56.276 103.152 54.4199 101.188 54.9041C99.447 55.3324 98.626 57.3189 98.2976 59.085C97.5416 63.1572 98.0249 67.4498 99.67 71.2489C99.1991 70.1532 97.3898 70.3643 96.7764 71.3855C96.163 72.4097 96.4325 73.7289 96.891 74.8307C95.7509 73.6668 94.2514 72.7667 92.6249 72.7046C90.9984 72.6425 89.2821 73.5954 88.7926 75.1473C88.3 76.7023 89.4339 78.6578 91.0604 78.7074C90.0287 78.8285 89.4711 80.1104 89.7344 81.116C91.0542 86.1597 104.429 86.8736 108.456 86.4732C114.504 85.868 120.424 82.9162 123.999 77.9904C124.659 77.0779 125.254 76.0567 125.418 74.9456Z" fill="#F2EDE4"/>
<path d="M108.351 85.5018C108.32 85.5018 108.289 85.4863 108.267 85.4584C104.94 80.9888 103.304 73.2448 102.514 67.5399C101.659 61.3633 101.591 56.1737 101.591 56.1209C101.591 56.065 101.637 56.0154 101.693 56.0154C101.749 56.0154 101.795 56.0619 101.799 56.1178C101.802 56.3226 102.115 76.839 108.435 85.3342C108.469 85.3808 108.459 85.446 108.413 85.4801C108.394 85.4956 108.373 85.5018 108.351 85.5018Z" fill="#D9C9AC"/>
<path d="M106.501 84.5948C99.0905 84.5948 91.8905 80.327 91.8161 80.2836C91.7666 80.2556 91.7511 80.1904 91.779 80.1408C91.8099 80.0911 91.8719 80.0756 91.9215 80.1035C92.002 80.1501 99.9425 84.8555 107.691 84.3465C107.747 84.3465 107.796 84.3868 107.802 84.4427C107.805 84.4986 107.762 84.5482 107.706 84.5544C107.307 84.5824 106.904 84.5948 106.501 84.5948Z" fill="#D9C9AC"/>
<path d="M105.616 80.2967C105.579 80.2967 105.541 80.275 105.523 80.2377C105.498 80.185 105.52 80.1229 105.569 80.0981C113.082 76.3486 113.361 63.4025 113.361 63.2722C113.361 63.2163 113.411 63.1697 113.466 63.1697C113.522 63.1697 113.569 63.2163 113.569 63.2753C113.565 63.4056 113.287 76.4759 105.662 80.2843C105.647 80.2936 105.631 80.2967 105.616 80.2967Z" fill="#D9C9AC"/>
<path d="M106.067 81.8674C97.089 81.8674 91.1189 74.8807 91.0601 74.8093C91.0229 74.7658 91.0291 74.7007 91.0724 74.6634C91.1158 74.6262 91.1809 74.6324 91.2181 74.6758C91.2769 74.7472 97.2842 81.765 106.266 81.6564C106.321 81.6564 106.368 81.7029 106.371 81.7588C106.371 81.8147 106.324 81.8643 106.269 81.8643C106.201 81.8674 106.135 81.8674 106.067 81.8674Z" fill="#D9C9AC"/>
<path d="M104.73 77.7113C104.72 77.7113 104.714 77.7113 104.705 77.7082C99.3822 76.4232 98.1461 71.8078 98.1337 71.7643C98.1182 71.7085 98.1523 71.6526 98.208 71.6371C98.2638 71.6216 98.3196 71.6557 98.3351 71.7116C98.3475 71.7581 99.5557 76.2494 104.754 77.5064C104.81 77.5189 104.844 77.5747 104.832 77.6306C104.819 77.6771 104.779 77.7113 104.73 77.7113Z" fill="#D9C9AC"/>
<path d="M104.258 76.0565C104.221 76.0565 104.184 76.0348 104.165 75.9975C104.14 75.9448 104.162 75.8827 104.211 75.8579C107.105 74.4208 108.741 66.7481 108.756 66.6705C108.769 66.6147 108.825 66.5774 108.88 66.5898C108.936 66.6022 108.973 66.6581 108.961 66.714C108.893 67.0337 107.288 74.5605 104.304 76.0441C104.289 76.0534 104.273 76.0565 104.258 76.0565Z" fill="#D9C9AC"/>
<path d="M102.455 66.4064C102.433 66.4064 102.412 66.4002 102.39 66.3847C100.305 64.7676 99.4096 60.236 99.3724 60.0435C99.36 59.9877 99.3972 59.9318 99.4561 59.9225C99.5119 59.9101 99.5676 59.9473 99.5769 60.0063C99.5862 60.0528 100.494 64.6527 102.517 66.2202C102.563 66.2543 102.57 66.3195 102.536 66.366C102.517 66.394 102.486 66.4064 102.455 66.4064Z" fill="#D9C9AC"/>
<path d="M103.125 70.8639C103.109 70.8639 103.094 70.8608 103.078 70.8546C103.025 70.8297 103.004 70.7677 103.029 70.7149C103.053 70.6621 105.553 65.4104 104.915 61.4251C104.906 61.3692 104.946 61.3165 105.002 61.3072C105.058 61.2978 105.114 61.3351 105.12 61.3941C105.767 65.4446 103.239 70.7553 103.214 70.808C103.202 70.8422 103.165 70.8639 103.125 70.8639Z" fill="#D9C9AC"/>
<path d="M107.071 72.363C107.034 72.363 106.997 72.3413 106.979 72.304C106.941 72.2295 106.071 70.4386 106.021 68.7284C106.018 68.6726 106.065 68.6229 106.123 68.6229C106.182 68.6229 106.229 68.6663 106.229 68.7253C106.275 70.3921 107.155 72.1985 107.164 72.2171C107.189 72.2699 107.168 72.332 107.118 72.3568C107.102 72.3599 107.087 72.363 107.071 72.363Z" fill="#D9C9AC"/>
<path d="M99.444 76.2307C98.9328 76.2307 98.3534 76.1873 97.771 76.0507C97.7152 76.0383 97.6811 75.9824 97.6935 75.9265C97.7059 75.8707 97.7648 75.8365 97.8174 75.8489C99.4811 76.2338 101.166 75.852 101.185 75.8489C101.241 75.8365 101.297 75.8707 101.309 75.9265C101.321 75.9824 101.287 76.0383 101.232 76.0507C101.185 76.0631 100.438 76.2307 99.444 76.2307Z" fill="#D9C9AC"/>
<path d="M98.7031 80.2962C98.6598 80.2962 98.6195 80.2714 98.604 80.228C98.5947 80.2062 97.7737 77.9498 97.058 76.8324C97.027 76.7827 97.0394 76.7206 97.089 76.6896C97.1386 76.6586 97.2005 76.6741 97.2315 76.7206C97.9596 77.8566 98.7651 80.0635 98.7992 80.1566C98.8178 80.2093 98.7899 80.2714 98.7372 80.29C98.7279 80.2963 98.7155 80.2962 98.7031 80.2962Z" fill="#D9C9AC"/>
<path d="M95.2925 81.9971C95.2616 81.9971 95.2306 81.9815 95.2089 81.9567C95.1748 81.9102 95.181 81.845 95.2275 81.8108C95.2306 81.8077 95.6333 81.488 95.6922 80.9573C95.7356 80.5538 95.5745 80.1286 95.212 79.6909C95.1748 79.6475 95.181 79.5823 95.2244 79.545C95.2677 79.5078 95.3328 79.514 95.37 79.5575C95.7696 80.0386 95.9493 80.5197 95.8967 80.9821C95.8285 81.6029 95.3731 81.9598 95.3545 81.9753C95.339 81.9909 95.3142 81.9971 95.2925 81.9971Z" fill="#D9C9AC"/>
<path d="M91.7294 77.2454C91.2709 77.2454 90.7442 77.1523 90.199 76.8699C90.1494 76.8419 90.1277 76.7798 90.1556 76.7302C90.1835 76.6805 90.2455 76.6588 90.295 76.6867C91.7976 77.4658 93.1887 76.696 93.2041 76.6898C93.2537 76.6619 93.3188 76.6805 93.3467 76.7302C93.3745 76.7798 93.356 76.845 93.3064 76.873C93.2661 76.8916 92.6217 77.2454 91.7294 77.2454Z" fill="#D9C9AC"/>
<path d="M110.563 75.1844C110.526 75.1844 110.489 75.1627 110.47 75.1255C110.458 75.1006 109.256 72.6114 109.851 70.0848C109.863 70.0289 109.922 69.9948 109.975 70.0072C110.031 70.0196 110.065 70.0755 110.052 70.1314C109.476 72.5896 110.644 75.0106 110.656 75.0355C110.681 75.0882 110.659 75.1503 110.61 75.1751C110.594 75.1813 110.579 75.1844 110.563 75.1844Z" fill="#D9C9AC"/>
<path d="M106.904 83.1768C106.864 83.1768 106.827 83.1551 106.811 83.1179C106.787 83.0651 106.808 83.003 106.861 82.9813C106.929 82.9503 113.571 79.7999 116.53 73.7257C116.555 73.6729 116.617 73.6512 116.669 73.6791C116.722 73.7039 116.744 73.766 116.716 73.8188C113.726 79.9613 107.016 83.1396 106.948 83.1737C106.935 83.1737 106.92 83.1768 106.904 83.1768Z" fill="#D9C9AC"/>
<path d="M108.022 85.0419C107.973 85.0419 107.929 85.0047 107.92 84.955C107.911 84.8992 107.951 84.8464 108.007 84.8371C114.389 83.8252 123.606 73.7998 123.699 73.7005C123.736 73.6571 123.804 73.654 123.844 73.6943C123.888 73.7316 123.891 73.7999 123.851 73.8402C123.758 73.9426 114.491 84.0208 108.038 85.0419C108.032 85.0419 108.028 85.0419 108.022 85.0419Z" fill="#D9C9AC"/>
<path d="M112.307 79.4588C112.252 79.4588 112.205 79.4153 112.202 79.3563C112.202 79.3346 112.149 77.165 112.958 75.042C112.98 74.9893 113.039 74.9613 113.091 74.9831C113.144 75.0048 113.172 75.0637 113.15 75.1165C112.354 77.1992 112.407 79.3284 112.407 79.3501C112.413 79.4091 112.369 79.4557 112.307 79.4588C112.311 79.4588 112.311 79.4588 112.307 79.4588Z" fill="#D9C9AC"/>
<path d="M115.028 77.8509C114.417 77.8509 114.033 77.7143 113.999 77.7019C113.946 77.6832 113.919 77.6212 113.937 77.5684C113.956 77.5156 114.015 77.4877 114.07 77.5063C114.089 77.5125 115.784 78.1023 117.804 76.69C117.85 76.6559 117.915 76.6683 117.949 76.7148C117.983 76.7614 117.971 76.8266 117.924 76.8607C116.781 77.6615 115.746 77.8509 115.028 77.8509Z" fill="#D9C9AC"/>
<path d="M117.181 81.4265C116.27 81.4265 115.848 81.023 115.824 80.9982C115.783 80.9578 115.783 80.8927 115.824 80.8492C115.864 80.8089 115.929 80.8089 115.969 80.8492C115.979 80.8585 116.852 81.6779 118.86 80.8275C118.912 80.8027 118.974 80.8306 118.996 80.8834C119.018 80.9361 118.993 80.9982 118.94 81.0199C118.225 81.3241 117.639 81.4265 117.181 81.4265Z" fill="#D9C9AC"/>
<path d="M111.765 83.6917C111.71 83.6917 111.663 83.6451 111.66 83.5893C111.66 83.5303 111.645 82.1584 112.602 81.0503C112.639 81.0069 112.704 81.0038 112.748 81.041C112.791 81.0783 112.797 81.1435 112.757 81.1869C111.852 82.2329 111.865 83.5706 111.865 83.5862C111.871 83.6451 111.824 83.6917 111.765 83.6917Z" fill="#D9C9AC"/>
<path d="M99.0752 36.7068C100.256 36.7068 100.256 34.8693 99.0752 34.8693C97.8948 34.8724 97.8948 36.7068 99.0752 36.7068Z" fill="#8E97FD"/>
<path d="M120.548 4.7711C121.728 4.7711 121.728 2.93362 120.548 2.93362C119.368 2.93362 119.365 4.7711 120.548 4.7711Z" fill="#8E97FD"/>
<path d="M165.071 23.1176C165.66 23.1176 165.663 22.1989 165.071 22.1989C164.482 22.1989 164.479 23.1176 165.071 23.1176Z" fill="#8E97FD"/>
<path d="M115.817 15.8922C116.406 15.8922 116.409 14.9734 115.817 14.9734C115.229 14.9734 115.229 15.8922 115.817 15.8922Z" fill="#8E97FD"/>
<path d="M173.895 22.1993C174.483 22.1993 174.486 21.2806 173.895 21.2806C173.303 21.2806 173.303 22.1993 173.895 22.1993Z" fill="#8E97FD"/>
<path d="M114.396 7.74749C114.984 7.74749 114.987 6.82875 114.396 6.82875C113.807 6.82875 113.804 7.74749 114.396 7.74749Z" fill="#59D6B8"/>
<path d="M150.454 74.4833C151.043 74.4833 151.046 73.5645 150.454 73.5645C149.866 73.5645 149.866 74.4833 150.454 74.4833Z" fill="#59D6B8"/>
<path d="M93.2541 17.8474C93.8427 17.8474 93.8458 16.9287 93.2541 16.9287C92.6655 16.9287 92.6655 17.8474 93.2541 17.8474Z" fill="#59D6B8"/>
<path d="M83.4326 52.3992C84.0213 52.3992 84.0244 51.4805 83.4326 51.4805C82.8409 51.4805 82.8409 52.3992 83.4326 52.3992Z" fill="#8ABFA3"/>
<path d="M162.965 2.02727C163.553 2.02727 163.557 1.10854 162.965 1.10854C162.376 1.10854 162.376 2.02727 162.965 2.02727Z" fill="#8E97FD"/>
<path d="M84.347 42.6473C84.347 42.6069 84.347 42.5666 84.347 42.5262C84.347 42.0452 83.9256 41.5858 83.4299 41.6075C82.9342 41.6292 82.5129 42.011 82.5129 42.5262C82.5129 42.5666 82.5129 42.6069 82.5129 42.6473C82.5129 43.1284 82.9342 43.5878 83.4299 43.566C83.9287 43.5412 84.347 43.1594 84.347 42.6473Z" fill="#8E97FD"/>
<path d="M154.928 1.56807C156.108 1.56807 156.108 -0.269394 154.928 -0.269394C153.748 -0.269394 153.744 1.56807 154.928 1.56807Z" fill="#8E97FD"/>
<path d="M94.8093 67.5647C95.9897 67.5647 95.9897 65.7272 94.8093 65.7272C93.6289 65.7272 93.6289 67.5647 94.8093 67.5647Z" fill="#E9F2DE"/>
</g>
<path d="M19.068 95.276V98.804H22.092C23.484 98.804 24.18 98.24 24.18 97.112C24.18 95.888 23.502 95.276 22.146 95.276H19.068ZM16.242 101V88.148H22.29C25.026 88.148 26.394 89.21 26.394 91.334C26.394 92.558 25.812 93.452 24.648 94.016C26.22 94.472 27.006 95.558 27.006 97.274C27.006 98.498 26.538 99.446 25.602 100.118C24.786 100.706 23.742 101 22.47 101H16.242ZM19.068 90.344V93.35H21.93C23.082 93.35 23.658 92.84 23.658 91.82C23.658 90.836 23.01 90.344 21.714 90.344H19.068ZM34.4418 97.4V96.446C34.2378 96.626 33.7938 96.764 33.1098 96.86C32.3298 96.98 31.8138 97.094 31.5618 97.202C31.0578 97.43 30.8058 97.814 30.8058 98.354C30.8058 99.146 31.3278 99.542 32.3718 99.542C33.7518 99.542 34.4418 98.828 34.4418 97.4ZM31.0938 94.556H28.5378C28.6098 93.452 29.0958 92.636 29.9958 92.108C30.7398 91.664 31.7118 91.442 32.9118 91.442C35.6358 91.442 36.9978 92.324 36.9978 94.088V98.93C36.9978 99.962 37.1058 100.652 37.3218 101H34.7298C34.6218 100.664 34.5618 100.364 34.5498 100.1C33.8178 100.868 32.7738 101.252 31.4178 101.252C30.4818 101.252 29.7318 101.024 29.1678 100.568C28.5558 100.076 28.2498 99.374 28.2498 98.462C28.2498 97.514 28.5798 96.806 29.2398 96.338C29.7198 96.014 30.4458 95.78 31.4178 95.636C32.7978 95.444 33.4998 95.342 33.5238 95.33C34.1358 95.174 34.4418 94.868 34.4418 94.412C34.4418 93.908 34.2738 93.56 33.9378 93.368C33.6978 93.224 33.3138 93.152 32.7858 93.152C31.7418 93.152 31.1778 93.62 31.0938 94.556ZM38.5318 97.976H40.9618C40.9738 98.504 41.1778 98.906 41.5738 99.182C41.9218 99.422 42.3718 99.542 42.9238 99.542C43.3678 99.542 43.7398 99.458 44.0398 99.29C44.4118 99.074 44.5978 98.762 44.5978 98.354C44.5978 97.994 44.3458 97.706 43.8418 97.49C43.4818 97.334 42.7678 97.142 41.6998 96.914C40.7878 96.722 40.1098 96.47 39.6658 96.158C39.0538 95.75 38.7478 95.174 38.7478 94.43C38.7478 92.438 40.0978 91.442 42.7978 91.442C45.3658 91.442 46.7338 92.432 46.9018 94.412H44.4718C44.4118 93.572 43.8298 93.152 42.7258 93.152C41.7778 93.152 41.3038 93.44 41.3038 94.016C41.3038 94.412 41.6038 94.718 42.2038 94.934C42.2758 94.958 42.9418 95.114 44.2018 95.402C45.1258 95.618 45.8038 95.882 46.2358 96.194C46.8478 96.626 47.1538 97.232 47.1538 98.012C47.1538 99.14 46.7098 99.986 45.8218 100.55C45.0898 101.018 44.1178 101.252 42.9058 101.252C41.6938 101.252 40.7098 101.012 39.9538 100.532C39.0538 99.968 38.5798 99.116 38.5318 97.976ZM48.7217 101V91.694H51.2777V101H48.7217ZM51.2777 88.148V90.254H48.7217V88.148H51.2777ZM62.1284 94.97H59.6264C59.4584 93.902 58.8284 93.368 57.7364 93.368C56.9924 93.368 56.4224 93.698 56.0264 94.358C55.7144 94.91 55.5584 95.588 55.5584 96.392C55.5584 97.172 55.7144 97.826 56.0264 98.354C56.3984 99.002 56.9504 99.326 57.6824 99.326C58.8584 99.326 59.5364 98.696 59.7164 97.436H62.1824C62.0264 98.66 61.5464 99.602 60.7424 100.262C59.9504 100.922 58.9364 101.252 57.7004 101.252C56.3084 101.252 55.1744 100.808 54.2984 99.92C53.4344 99.032 53.0024 97.886 53.0024 96.482C53.0024 94.994 53.4164 93.794 54.2444 92.882C55.1084 91.922 56.2784 91.442 57.7544 91.442C58.9304 91.442 59.9144 91.73 60.7064 92.306C61.5824 92.954 62.0564 93.842 62.1284 94.97ZM63.1763 97.976H65.6063C65.6183 98.504 65.8223 98.906 66.2183 99.182C66.5663 99.422 67.0163 99.542 67.5683 99.542C68.0123 99.542 68.3843 99.458 68.6843 99.29C69.0563 99.074 69.2423 98.762 69.2423 98.354C69.2423 97.994 68.9903 97.706 68.4863 97.49C68.1263 97.334 67.4123 97.142 66.3443 96.914C65.4323 96.722 64.7543 96.47 64.3103 96.158C63.6983 95.75 63.3923 95.174 63.3923 94.43C63.3923 92.438 64.7423 91.442 67.4423 91.442C70.0103 91.442 71.3783 92.432 71.5463 94.412H69.1163C69.0563 93.572 68.4743 93.152 67.3703 93.152C66.4223 93.152 65.9483 93.44 65.9483 94.016C65.9483 94.412 66.2483 94.718 66.8483 94.934C66.9203 94.958 67.5863 95.114 68.8463 95.402C69.7703 95.618 70.4483 95.882 70.8803 96.194C71.4923 96.626 71.7983 97.232 71.7983 98.012C71.7983 99.14 71.3543 99.986 70.4663 100.55C69.7343 101.018 68.7623 101.252 67.5503 101.252C66.3383 101.252 65.3543 101.012 64.5983 100.532C63.6983 99.968 63.2243 99.116 63.1763 97.976Z" fill="#FFECCC"/>
<path d="M22.513 117.325H21.138C20.874 116.283 20.2213 115.763 19.18 115.763C18.3953 115.763 17.7867 116.074 17.354 116.698C16.98 117.24 16.793 117.926 16.793 118.755C16.793 119.583 16.98 120.269 17.354 120.812C17.7867 121.435 18.3953 121.747 19.18 121.747C19.7667 121.747 20.2397 121.545 20.599 121.142C20.929 120.775 21.1233 120.291 21.182 119.69H22.524C22.4653 120.636 22.128 121.402 21.512 121.989C20.9033 122.575 20.126 122.869 19.18 122.869C18.036 122.869 17.1157 122.462 16.419 121.648C15.7517 120.878 15.418 119.913 15.418 118.755C15.418 117.589 15.7517 116.621 16.419 115.851C17.1157 115.044 18.036 114.641 19.18 114.641C20.082 114.641 20.8373 114.875 21.446 115.345C22.0767 115.836 22.4323 116.496 22.513 117.325ZM27.6685 114.641C28.8125 114.641 29.7328 115.044 30.4295 115.851C31.0968 116.628 31.4305 117.596 31.4305 118.755C31.4305 119.913 31.0968 120.878 30.4295 121.648C29.7328 122.462 28.8125 122.869 27.6685 122.869C26.5245 122.869 25.6041 122.462 24.9075 121.648C24.2401 120.878 23.9065 119.913 23.9065 118.755C23.9065 117.596 24.2401 116.628 24.9075 115.851C25.6041 115.044 26.5245 114.641 27.6685 114.641ZM27.6685 115.763C26.8838 115.763 26.2751 116.074 25.8425 116.698C25.4685 117.24 25.2815 117.926 25.2815 118.755C25.2815 119.583 25.4685 120.269 25.8425 120.812C26.2751 121.435 26.8838 121.747 27.6685 121.747C28.4531 121.747 29.0618 121.435 29.4945 120.812C29.8685 120.269 30.0555 119.583 30.0555 118.755C30.0555 117.926 29.8685 117.24 29.4945 116.698C29.0618 116.074 28.4531 115.763 27.6685 115.763ZM33.1439 119.855V114.828H34.5189V119.404C34.5189 120.115 34.6032 120.625 34.7719 120.933C35.0432 121.431 35.5749 121.681 36.3669 121.681C37.1589 121.681 37.6906 121.431 37.9619 120.933C38.1306 120.625 38.2149 120.115 38.2149 119.404V114.828H39.5899V119.855C39.5899 120.837 39.2966 121.593 38.7099 122.121C38.1452 122.619 37.3642 122.869 36.3669 122.869C35.3696 122.869 34.5922 122.619 34.0349 122.121C33.4409 121.593 33.1439 120.837 33.1439 119.855ZM43.0954 115.95V118.403H45.3504C46.245 118.403 46.6924 117.985 46.6924 117.149C46.6924 116.349 46.2377 115.95 45.3284 115.95H43.0954ZM41.7204 122.682V114.828H45.4714C46.322 114.828 46.9674 115.015 47.4074 115.389C47.8474 115.755 48.0674 116.276 48.0674 116.951C48.0674 117.97 47.6347 118.63 46.7694 118.931V118.953C47.5467 119.063 47.9354 119.616 47.9354 120.614C47.9354 121.684 48.0784 122.374 48.3644 122.682H46.8904C46.751 122.454 46.6814 122.069 46.6814 121.527C46.6814 120.771 46.5787 120.243 46.3734 119.943C46.146 119.613 45.728 119.448 45.1194 119.448H43.0954V122.682H41.7204ZM49.5425 120.064H50.9175C50.9175 120.636 51.1118 121.068 51.5005 121.362C51.8452 121.618 52.3145 121.747 52.9085 121.747C53.4732 121.747 53.9022 121.622 54.1955 121.373C54.4448 121.16 54.5695 120.889 54.5695 120.559C54.5695 120.075 54.3532 119.752 53.9205 119.591C53.8618 119.569 53.0808 119.352 51.5775 118.942C50.4188 118.626 49.8395 117.963 49.8395 116.951C49.8395 116.21 50.1402 115.627 50.7415 115.202C51.2768 114.828 51.9332 114.641 52.7105 114.641C53.5685 114.641 54.2762 114.853 54.8335 115.279C55.4275 115.741 55.7245 116.364 55.7245 117.149H54.3495C54.2908 116.225 53.7262 115.763 52.6555 115.763C52.2742 115.763 51.9552 115.832 51.6985 115.972C51.3758 116.155 51.2145 116.426 51.2145 116.786C51.2145 117.292 51.5262 117.629 52.1495 117.798C52.7728 117.959 53.5282 118.161 54.4155 118.403C54.9068 118.549 55.2918 118.821 55.5705 119.217C55.8198 119.576 55.9445 119.972 55.9445 120.405C55.9445 121.226 55.6182 121.857 54.9655 122.297C54.4008 122.678 53.6858 122.869 52.8205 122.869C51.8672 122.869 51.1008 122.645 50.5215 122.198C49.8835 121.706 49.5572 120.995 49.5425 120.064ZM57.6983 122.682V114.828H63.3523V116.016H59.0733V118.073H63.0333V119.195H59.0733V121.494H63.4293V122.682H57.6983Z" fill="#F7E8D0"/>
<rect x="92" y="160" width="70" height="35" rx="17.5" fill="#EBEAEC"/>
<path d="M107.396 179.144H108.896C108.896 179.768 109.108 180.24 109.532 180.56C109.908 180.84 110.42 180.98 111.068 180.98C111.684 180.98 112.152 180.844 112.472 180.572C112.744 180.34 112.88 180.044 112.88 179.684C112.88 179.156 112.644 178.804 112.172 178.628C112.108 178.604 111.256 178.368 109.616 177.92C108.352 177.576 107.72 176.852 107.72 175.748C107.72 174.94 108.048 174.304 108.704 173.84C109.288 173.432 110.004 173.228 110.852 173.228C111.788 173.228 112.56 173.46 113.168 173.924C113.816 174.428 114.14 175.108 114.14 175.964H112.64C112.576 174.956 111.96 174.452 110.792 174.452C110.376 174.452 110.028 174.528 109.748 174.68C109.396 174.88 109.22 175.176 109.22 175.568C109.22 176.12 109.56 176.488 110.24 176.672C110.92 176.848 111.744 177.068 112.712 177.332C113.248 177.492 113.668 177.788 113.972 178.22C114.244 178.612 114.38 179.044 114.38 179.516C114.38 180.412 114.024 181.1 113.312 181.58C112.696 181.996 111.916 182.204 110.972 182.204C109.932 182.204 109.096 181.96 108.464 181.472C107.768 180.936 107.412 180.16 107.396 179.144ZM115.477 174.728V173.432H122.413V174.728H119.689V182H118.189V174.728H115.477ZM127.067 174.908L125.771 178.592H128.387L127.103 174.908H127.067ZM123.011 182L126.299 173.432H127.895L131.195 182H129.587L128.783 179.732H125.363L124.559 182H123.011ZM134.11 174.656V177.332H136.57C137.546 177.332 138.034 176.876 138.034 175.964C138.034 175.092 137.538 174.656 136.546 174.656H134.11ZM132.61 182V173.432H136.702C137.63 173.432 138.334 173.636 138.814 174.044C139.294 174.444 139.534 175.012 139.534 175.748C139.534 176.86 139.062 177.58 138.118 177.908V177.932C138.966 178.052 139.39 178.656 139.39 179.744C139.39 180.912 139.546 181.664 139.858 182H138.25C138.098 181.752 138.022 181.332 138.022 180.74C138.022 179.916 137.91 179.34 137.686 179.012C137.438 178.652 136.982 178.472 136.318 178.472H134.11V182H132.61ZM140.844 174.728V173.432H147.78V174.728H145.056V182H143.556V174.728H140.844Z" fill="#3F414E"/>
<path d="M17.508 178.425V177.49C17.9847 177.512 18.3733 177.431 18.674 177.248C19.0333 177.043 19.213 176.72 19.213 176.28C19.213 175.957 19.0993 175.697 18.872 175.499C18.652 175.294 18.366 175.191 18.014 175.191C17.6033 175.191 17.2843 175.349 17.057 175.664C16.8297 175.972 16.7233 176.339 16.738 176.764H15.484C15.5207 175.994 15.759 175.371 16.199 174.894C16.6683 174.395 17.2807 174.146 18.036 174.146C18.6887 174.146 19.2423 174.318 19.697 174.663C20.2103 175.044 20.467 175.558 20.467 176.203C20.467 177.046 20.104 177.596 19.378 177.853V177.875C19.8107 177.963 20.1517 178.183 20.401 178.535C20.6503 178.88 20.775 179.301 20.775 179.8C20.775 180.504 20.5037 181.076 19.961 181.516C19.4477 181.941 18.8097 182.154 18.047 182.154C17.1817 182.154 16.5107 181.908 16.034 181.417C15.5867 180.948 15.3557 180.299 15.341 179.47H16.595C16.5803 179.954 16.6977 180.343 16.947 180.636C17.2037 180.951 17.5703 181.109 18.047 181.109C18.4797 181.109 18.8317 180.988 19.103 180.746C19.3817 180.497 19.521 180.159 19.521 179.734C19.521 178.803 18.85 178.366 17.508 178.425ZM22.2013 179.602V178.414H25.4023V179.602H22.2013ZM27.0707 176.566V175.576C27.6427 175.583 28.1267 175.488 28.5227 175.29C28.9627 175.063 29.2267 174.733 29.3147 174.3H30.3377V182H28.9627V176.566H27.0707ZM36.208 181.109C37.1467 181.109 37.616 180.123 37.616 178.15C37.616 176.177 37.1467 175.191 36.208 175.191C35.2693 175.191 34.8 176.177 34.8 178.15C34.8 180.123 35.2693 181.109 36.208 181.109ZM36.208 174.146C37.2053 174.146 37.924 174.593 38.364 175.488C38.7013 176.163 38.87 177.05 38.87 178.15C38.87 179.25 38.7013 180.137 38.364 180.812C37.924 181.707 37.2053 182.154 36.208 182.154C35.2107 182.154 34.492 181.707 34.052 180.812C33.7147 180.137 33.546 179.25 33.546 178.15C33.546 177.05 33.7147 176.163 34.052 175.488C34.492 174.593 35.2107 174.146 36.208 174.146ZM44.2378 182V174.146H46.1738L48.3408 180.295H48.3628L50.4748 174.146H52.3888V182H51.0798V175.939H51.0578L48.8798 182H47.7468L45.5688 175.939H45.5468V182H44.2378ZM54.5852 182V174.146H55.9602V182H54.5852ZM58.1417 182V174.146H59.5937L63.1797 179.932H63.2017V174.146H64.5107V182H63.0587L59.4837 176.225H59.4507V182H58.1417Z" fill="#EBEAEC"/>
</svg>
