<svg width="23" height="11" viewBox="0 0 23 11" fill="none" xmlns="http://www.w3.org/2000/svg">
<path d="M18.82 2.58755C19.5325 1.69965 19.8682 1.00012 19.8682 1.00012L18.82 2.58755ZM18.82 2.58755C18.1423 3.43221 17.1238 4.44741 15.7292 5.19301M18.82 2.58755L15.7292 5.19301M18.82 2.58755L21.9647 4.14479M11.4825 6.24123C9.79692 6.24123 8.38796 5.80915 7.23571 5.19301M11.4825 6.24123L7.23571 5.19301M11.4825 6.24123C13.168 6.24123 14.5769 5.80915 15.7292 5.19301M11.4825 6.24123L15.7292 5.19301M11.4825 6.24123V9.91001M7.23571 5.19301L4.14491 8.33767M7.23571 5.19301C5.91557 4.48714 4.93238 3.53975 4.25631 2.72424M7.23571 5.19301L4.25631 2.72424M15.7292 5.19301L18.2959 8.33767M4.25631 2.72424C3.46741 1.77247 3.09669 1.00012 3.09669 1.00012L4.25631 2.72424ZM4.25631 2.72424L1.00024 4.14479" stroke="#3F414E" stroke-width="2" stroke-linecap="round" stroke-linejoin="round"/>
</svg>
