<svg width="177" height="210" viewBox="0 0 177 210" fill="none" xmlns="http://www.w3.org/2000/svg">
<rect width="177" height="210" rx="10" fill="#FFC97E"/>
<mask id="mask0_1_175" style="mask-type:alpha" maskUnits="userSpaceOnUse" x="0" y="0" width="177" height="210">
<rect width="177" height="210" rx="10" fill="#FFC97E"/>
</mask>
<g mask="url(#mask0_1_175)">
<path d="M161.624 -3.63141C161.624 -3.63141 144.418 -15.0276 123.46 -9.01588C102.499 -3.00606 88.1914 15.781 76.1966 30.6922C64.2 45.606 64.7238 63.9671 76.9447 75.3454C89.1656 86.7236 101.476 77.5595 121.358 81.9507C141.241 86.3419 145.881 90.4995 164.912 83.4512C183.944 76.403 193.146 50.7889 184.837 28.0461C176.525 5.3015 161.624 -3.63141 161.624 -3.63141Z" fill="#F1B869"/>
<path d="M106.909 64.5631C106.078 64.8376 105.179 64.384 104.905 63.5545L99.3592 46.7747C99.1212 46.0547 98.3446 45.6628 97.6262 45.9003C96.9078 46.1377 96.5176 46.9152 96.7556 47.6352L100.895 60.161C101.139 60.8983 100.739 61.695 100.004 61.9381C99.268 62.1812 98.4723 61.7797 98.2286 61.0424L95.9431 54.1272C95.767 53.5943 95.1931 53.3048 94.6615 53.4805C94.1298 53.6562 93.8416 54.2307 94.0177 54.7635L94.8677 57.3355L92.7469 58.0364L92.6517 57.7484L94.4851 57.1425L93.7303 54.8585C93.5018 54.1673 93.8766 53.4204 94.5663 53.1925C95.256 52.9645 96.002 53.341 96.2304 54.0322L98.5159 60.9474C98.7073 61.5263 99.3309 61.841 99.9085 61.6501C100.486 61.4592 100.799 60.8349 100.608 60.256L96.4682 47.7302C96.1779 46.8518 96.6545 45.902 97.531 45.6123C98.4075 45.3226 99.3562 45.8013 99.6466 46.6798L105.192 63.4595C105.414 64.1306 106.141 64.4974 106.813 64.2751C107.483 64.0538 107.848 63.3261 107.626 62.6551L100.86 42.183C100.508 41.1173 101.087 39.9645 102.15 39.6131C103.213 39.2616 104.365 39.8427 104.717 40.9083L111.452 61.2854C111.69 62.0054 112.466 62.3973 113.185 62.1599C113.903 61.9224 114.293 61.1449 114.055 60.4249L108.688 44.1866C108.351 43.167 108.905 42.064 109.922 41.7278C110.939 41.3916 112.041 41.9475 112.378 42.9671L116.337 54.9456C116.544 55.5706 117.221 55.9123 117.844 55.7062C118.468 55.5001 118.808 54.8222 118.602 54.1972L116.449 47.6852C116.201 46.9335 116.608 46.1215 117.358 45.8736C118.109 45.6257 118.922 46.034 119.171 46.7857L119.825 48.7644L121.946 48.0635L122.041 48.3515L119.633 49.1474L118.884 46.8807C118.687 46.2874 118.046 45.966 117.454 46.1616C116.862 46.3573 116.542 46.9998 116.737 47.5902L118.889 54.1022C119.148 54.8856 118.721 55.7359 117.94 55.9942C117.158 56.2526 116.309 55.824 116.05 55.0406L112.091 43.0621C111.806 42.2009 110.877 41.7318 110.017 42.0158C109.158 42.2998 108.691 43.2305 108.976 44.0916L114.343 60.3299C114.633 61.2084 114.156 62.1582 113.28 62.4479C112.403 62.7376 111.455 62.2588 111.164 61.3804L104.429 41.0033C104.13 40.0961 103.15 39.6019 102.245 39.9011C101.34 40.2003 100.848 41.1807 101.148 42.088L107.914 62.5601C108.191 63.3886 107.739 64.2886 106.909 64.5631Z" fill="#FEDEA5"/>
<path d="M134.64 55.3968C133.809 55.6713 132.91 55.2176 132.636 54.3882L127.09 37.6084C126.852 36.8884 126.076 36.4965 125.357 36.7339C124.639 36.9714 124.249 37.7489 124.487 38.4689L128.627 50.9947C128.87 51.732 128.471 52.5286 127.735 52.7718C126.999 53.0149 126.204 52.6134 125.96 51.8761L123.674 44.9608C123.498 44.428 122.924 44.1385 122.393 44.3142C121.861 44.4899 121.573 45.0644 121.749 45.5972L122.599 48.1692L120.478 48.8701L120.383 48.5821L122.216 47.9761L121.462 45.6922C121.233 45.0009 121.608 44.2541 122.298 44.0261C122.987 43.7982 123.733 44.1746 123.962 44.8659L126.247 51.7811C126.439 52.36 127.062 52.6747 127.64 52.4837C128.217 52.2928 128.531 51.6686 128.339 51.0897L124.199 38.5639C123.909 37.6854 124.386 36.7356 125.262 36.4459C126.139 36.1563 127.088 36.635 127.378 37.5134L132.924 54.2932C133.145 54.9643 133.872 55.331 134.545 55.1088C135.214 54.8875 135.579 54.1598 135.358 53.4887L128.592 33.0166C128.239 31.951 128.818 30.7981 129.881 30.4467C130.944 30.0953 132.096 30.6764 132.448 31.742L139.183 52.1191C139.421 52.8391 140.197 53.231 140.916 52.9935C141.634 52.7561 142.024 51.9786 141.786 51.2586L136.42 35.0203C136.083 34.0007 136.636 32.8977 137.653 32.5615C138.671 32.2252 139.773 32.7812 140.109 33.8008L144.068 45.7793C144.275 46.4043 144.952 46.746 145.576 46.5399C146.199 46.3338 146.54 45.6559 146.333 45.0309L144.181 38.5188C143.932 37.7671 144.34 36.9552 145.093 36.7063C145.843 36.4584 146.654 36.8677 146.902 37.6194L147.556 39.5981L149.677 38.8971L149.772 39.1851L147.364 39.9811L146.615 37.7144C146.419 37.1211 145.78 36.7987 145.188 36.9944C144.596 37.19 144.273 37.8334 144.468 38.4239L146.62 44.9359C146.879 45.7193 146.453 46.5695 145.671 46.8279C144.889 47.0862 144.04 46.6577 143.781 45.8743L139.822 33.8957C139.537 33.0346 138.608 32.5655 137.749 32.8495C136.889 33.1335 136.422 34.0641 136.707 34.9253L142.074 51.1636C142.364 52.042 141.888 52.9918 141.011 53.2815C140.135 53.5712 139.186 53.0925 138.895 52.214L132.161 31.837C131.861 30.9297 130.882 30.4356 129.976 30.7347C129.071 31.0339 128.579 32.0144 128.879 32.9216L135.645 53.3937C135.922 54.2223 135.47 55.1223 134.64 55.3968Z" fill="#FEDEA5"/>
<path d="M162.371 46.2317C161.541 46.5062 160.642 46.0525 160.368 45.2231L154.822 28.4433C154.584 27.7233 153.807 27.3314 153.089 27.5689C152.371 27.8063 151.98 28.5838 152.218 29.3038L156.358 41.8296C156.602 42.5669 156.202 43.3635 155.467 43.6067C154.731 43.8498 153.935 43.4483 153.691 42.711L151.406 35.7957C151.23 35.2629 150.656 34.9734 150.124 35.1491C149.593 35.3248 149.304 35.8993 149.48 36.4321L150.331 39.0041L148.21 39.705L148.115 39.417L149.948 38.811L149.193 36.5271C148.965 35.8358 149.339 35.089 150.029 34.8611C150.719 34.6331 151.465 35.0095 151.693 35.7008L153.979 42.616C154.17 43.1949 154.794 43.5096 155.371 43.3187C155.949 43.1278 156.262 42.5035 156.071 41.9246L151.931 29.3988C151.641 28.5204 152.117 27.5705 152.994 27.2808C153.87 26.9912 154.819 27.4699 155.109 28.3483L160.655 45.1281C160.877 45.7992 161.604 46.1659 162.276 45.9437C162.949 45.7214 163.311 44.9947 163.089 44.3236L156.323 23.8515C155.971 22.7859 156.549 21.6331 157.613 21.2816C158.676 20.9302 159.827 21.5113 160.18 22.5769L166.914 42.954C167.152 43.674 167.929 44.0659 168.647 43.8284C169.366 43.591 169.756 42.8135 169.518 42.0935L164.151 25.8552C163.814 24.8356 164.368 23.7326 165.385 23.3964C166.402 23.0601 167.504 23.6161 167.841 24.6357L171.8 36.6142C172.007 37.2392 172.684 37.5809 173.307 37.3748C173.931 37.1687 174.271 36.4908 174.065 35.8658L171.912 29.3538C171.664 28.602 172.071 27.7901 172.824 27.5413C173.574 27.2934 174.385 27.7026 174.634 28.4543L175.288 30.433L177.408 29.732L177.504 30.0201L175.095 30.816L174.346 28.5493C174.15 27.956 173.511 27.6336 172.919 27.8293C172.327 28.0249 172.005 28.6683 172.2 29.2588L174.352 35.7708C174.611 36.5542 174.184 37.4044 173.403 37.6628C172.621 37.9211 171.772 37.4926 171.513 36.7092L167.554 24.7306C167.269 23.8695 166.339 23.4004 165.48 23.6844C164.621 23.9684 164.154 24.899 164.439 25.7602L169.805 41.9985C170.096 42.8769 169.619 43.8268 168.743 44.1164C167.866 44.4061 166.917 43.9274 166.627 43.0489L159.892 22.6719C159.592 21.7646 158.613 21.2705 157.708 21.5697C156.803 21.8688 156.311 22.8493 156.611 23.7565L163.377 44.2286C163.654 45.0572 163.202 45.9572 162.371 46.2317Z" fill="#FEDEA5"/>
<path d="M119.55 -0.222687L118.668 -2.89259L116.804 -0.79735L119.55 -0.222687Z" fill="#263238"/>
<path d="M115.994 -2.07962L115.575 -1.94095L116.476 0.786552L116.896 0.647885L115.994 -2.07962Z" fill="#263238"/>
<path d="M124.063 -7.49692C122.103 -6.84917 121.043 -4.73217 121.692 -2.77079C122.341 -0.806524 124.456 0.258088 126.413 -0.388713C128.372 -1.03647 129.432 -3.15347 128.784 -5.11485C128.135 -7.07911 126.023 -8.14467 124.063 -7.49692ZM125.354 -1.90451L124.299 -1.55594L123.061 -5.30301L124.115 -5.65158L125.354 -1.90451ZM127.414 -2.5855L126.36 -2.23693L125.121 -5.98401L126.176 -6.33258L127.414 -2.5855Z" fill="#263238"/>
<path d="M163.868 12.7161C163.63 12.7949 163.373 12.6656 163.294 12.4265L162.004 8.5239C161.925 8.28484 162.054 8.02824 162.293 7.94941C162.531 7.87057 162.787 7.99991 162.866 8.23896L164.156 12.1416C164.234 12.3777 164.107 12.6372 163.868 12.7161Z" fill="#FFDB9D"/>
<path d="M162.286 12.6667C162.048 12.7455 161.791 12.6162 161.712 12.3772L160.763 9.50565C160.684 9.26659 160.813 9.00999 161.052 8.93116C161.29 8.85232 161.546 8.98166 161.625 9.22071L162.574 12.0922C162.653 12.3313 162.525 12.5879 162.286 12.6667Z" fill="#FFDB9D"/>
<path d="M160.876 13.1328C160.637 13.2117 160.381 13.0823 160.302 12.8433L159.353 9.97177C159.274 9.73272 159.402 9.47611 159.641 9.39728C159.879 9.31845 160.136 9.44778 160.215 9.68684L161.164 12.5584C161.243 12.7974 161.114 13.054 160.876 13.1328Z" fill="#FFDB9D"/>
<path d="M177.802 7.53894C177.563 7.61777 177.307 7.48844 177.228 7.24938L176.279 4.37787C176.2 4.13882 176.329 3.88221 176.567 3.80338C176.806 3.72455 177.062 3.85388 177.141 4.09293L178.09 6.96445C178.169 7.2035 178.04 7.46011 177.802 7.53894Z" fill="#FFDB9D"/>
<path d="M176.391 8.00505C176.152 8.08388 175.896 7.95455 175.817 7.71549L174.868 4.84398C174.789 4.60493 174.918 4.34832 175.156 4.26949C175.395 4.19066 175.651 4.31999 175.73 4.55905L176.679 7.43056C176.758 7.66961 176.629 7.92622 176.391 8.00505Z" fill="#FFDB9D"/>
<path d="M165.279 12.2494C165.041 12.3283 164.784 12.1989 164.705 11.9599L163.415 8.05727C163.336 7.81821 163.465 7.56161 163.704 7.48278C163.942 7.40394 164.199 7.53328 164.278 7.77233L165.567 11.6749C165.645 11.9111 165.515 12.1715 165.279 12.2494Z" fill="#FFDB9D"/>
<path d="M166.914 12.4695C166.675 12.5483 166.419 12.419 166.34 12.1799L164.596 6.90347C164.517 6.66442 164.646 6.40782 164.884 6.32898C165.123 6.25015 165.379 6.37949 165.458 6.61854L167.202 11.895C167.281 12.134 167.152 12.3906 166.914 12.4695Z" fill="#FFDB9D"/>
<path d="M168.683 13.0865C168.444 13.1654 168.188 13.036 168.109 12.797L165.65 5.35757C165.571 5.11852 165.7 4.86192 165.938 4.78308C166.177 4.70425 166.433 4.83359 166.512 5.07264L168.971 12.5121C169.049 12.7482 168.921 13.0077 168.683 13.0865Z" fill="#FFDB9D"/>
<path d="M175.153 8.9861C174.915 9.06494 174.659 8.9356 174.58 8.69655L173.29 4.79395C173.211 4.55489 173.339 4.29829 173.578 4.21946C173.816 4.14062 174.073 4.26996 174.152 4.50901L175.442 8.41161C175.52 8.64779 175.389 8.90822 175.153 8.9861Z" fill="#FFDB9D"/>
<path d="M173.742 9.45273C173.503 9.53156 173.247 9.40223 173.168 9.16318L171.878 5.26057C171.799 5.02152 171.928 4.76492 172.166 4.68609C172.405 4.60725 172.661 4.73659 172.74 4.97564L174.03 8.87824C174.108 9.11441 173.98 9.3739 173.742 9.45273Z" fill="#FFDB9D"/>
<path d="M172.557 10.6045C172.319 10.6833 172.063 10.554 171.984 10.3149L170.24 5.0385C170.161 4.79945 170.29 4.54284 170.528 4.46401C170.767 4.38518 171.023 4.51451 171.102 4.75356L172.846 10.03C172.925 10.2691 172.796 10.5257 172.557 10.6045Z" fill="#FFDB9D"/>
<path d="M171.504 12.1538C171.266 12.2326 171.01 12.1033 170.931 11.8643L168.472 4.42484C168.393 4.18578 168.522 3.92918 168.76 3.85035C168.999 3.77151 169.255 3.90085 169.334 4.1399L171.793 11.5793C171.871 11.8155 171.743 12.075 171.504 12.1538Z" fill="#FFDB9D"/>
<path d="M170.547 13.9936C170.309 14.0724 170.053 13.9431 169.974 13.704L166.606 3.51404C166.527 3.27499 166.656 3.01838 166.894 2.93955C167.133 2.86072 167.389 2.99005 167.468 3.2291L170.836 13.4191C170.915 13.6581 170.786 13.9147 170.547 13.9936Z" fill="#FFDB9D"/>
<path d="M84.431 28.0737C83.5539 26.6448 81.7831 25.9745 80.1681 26.5082C78.5416 27.0458 77.5113 28.6642 77.6833 30.3517C76.0917 31.1589 75.2955 33.0418 75.8657 34.767C76.4644 36.5786 78.313 37.6193 80.1691 37.188L80.001 36.4672C78.5213 36.8125 77.0447 35.9811 76.5669 34.5352C76.0871 33.0836 76.8177 31.494 78.227 30.9164L78.5019 30.8032L78.4489 30.5076C78.1883 29.0826 79.0267 27.665 80.4004 27.211C81.7769 26.7561 83.2959 27.3977 83.9348 28.7041L84.0931 29.0287L84.4199 28.8792C84.5195 28.8335 84.6201 28.7907 84.7236 28.7565C86.2524 28.2512 87.906 29.088 88.4115 30.6174C88.9179 32.1496 88.0848 33.8051 86.5588 34.3094L86.7911 35.0122C88.705 34.3796 89.7467 32.3038 89.1127 30.3856C88.474 28.4434 86.3536 27.3807 84.431 28.0737Z" fill="#4A5161"/>
<path d="M84.2144 31.2666C84.1782 31.1572 84.0913 31.0677 83.9803 31.0309C83.8693 30.9941 83.7477 31.012 83.6519 31.0788L80.3323 33.3899C80.1972 33.4825 80.1423 33.654 80.1937 33.8095L81.5901 38.0347C81.4542 38.0285 81.3125 38.0434 81.1774 38.088C80.5797 38.2856 80.2549 38.9328 80.4529 39.5319C80.6509 40.131 81.2974 40.4572 81.8952 40.2597C82.4613 40.0726 82.7764 39.4828 82.6425 38.9137L82.654 38.9099L81.5888 35.687L84.2795 33.8169L84.8963 35.6832C84.7633 35.6761 84.6254 35.6929 84.4903 35.7376C83.8926 35.9351 83.5678 36.5824 83.7658 37.1815C83.9638 37.7805 84.6103 38.1068 85.2081 37.9092C85.8058 37.7116 86.1306 37.0644 85.9326 36.4653C85.9307 36.4596 85.9259 36.4547 85.924 36.449L84.2115 31.2676L84.2144 31.2666ZM84.0358 33.0796L81.3461 34.9526L80.9777 33.8379L83.6684 31.9679L84.0358 33.0796Z" fill="#4A5161"/>
<path d="M113.975 15.0273C113.843 14.627 114.246 14.0145 114.07 13.6447C113.888 13.2672 113.158 13.2016 112.93 12.8585C112.7 12.5096 112.931 11.8103 112.663 11.4996C112.39 11.1842 111.667 11.3113 111.359 11.0361C111.047 10.7589 111.092 10.0253 110.747 9.79118C110.401 9.55703 109.739 9.8685 109.368 9.68126C108.997 9.49401 108.852 8.77523 108.459 8.63682C108.07 8.50035 107.505 8.97133 107.097 8.88563C106.693 8.80185 106.364 8.14386 105.949 8.11183C105.537 8.08174 105.118 8.68362 104.701 8.70625C104.292 8.72987 103.803 8.17877 103.393 8.25705C102.99 8.33248 102.741 9.02506 102.342 9.15708C101.942 9.28909 101.33 8.88433 100.961 9.06057C100.585 9.24253 100.52 9.9731 100.178 10.2012C99.8301 10.4312 99.1317 10.1988 98.822 10.4673C98.5075 10.7406 98.6353 11.465 98.361 11.773C98.0847 12.0847 97.3524 12.0392 97.1191 12.3847C96.8859 12.7301 97.1977 13.3938 97.0112 13.7653C96.8248 14.1368 96.1075 14.2812 95.9699 14.675C95.8342 15.0649 96.3051 15.6312 96.22 16.0395C96.137 16.4439 95.4806 16.7727 95.4492 17.1888C95.4197 17.6011 96.021 18.0221 96.0442 18.4394C96.0683 18.8499 95.5188 19.3382 95.5975 19.7499C95.6762 20.152 96.365 20.4036 96.4973 20.8039C96.6296 21.2042 96.2264 21.8167 96.4028 22.1865C96.585 22.564 97.3143 22.6296 97.5425 22.9727C97.7725 23.3216 97.5414 24.021 97.8099 24.3316C98.0831 24.647 98.8061 24.5199 99.1138 24.7952C99.4254 25.0724 99.3809 25.8059 99.7261 26.04C100.071 26.2742 100.733 25.9627 101.104 26.15C101.475 26.3372 101.621 27.056 102.014 27.1944C102.403 27.3309 102.968 26.8599 103.376 26.9456C103.779 27.0294 104.108 27.6874 104.524 27.7194C104.935 27.7495 105.355 27.1476 105.771 27.125C106.181 27.1013 106.669 27.6524 107.08 27.5742C107.481 27.4958 107.732 26.8062 108.131 26.6741C108.531 26.5421 109.142 26.9469 109.511 26.7706C109.888 26.5887 109.952 25.8581 110.295 25.63C110.643 25.4 111.341 25.6324 111.651 25.3639C111.965 25.0906 111.837 24.3662 112.112 24.0582C112.388 23.7465 113.12 23.792 113.354 23.4465C113.587 23.1011 113.275 22.4374 113.461 22.0659C113.648 21.6944 114.365 21.55 114.503 21.1562C114.639 20.7664 114.168 20.2 114.253 19.7917C114.336 19.3873 114.992 19.0585 115.024 18.6424C115.053 18.2301 114.452 17.8091 114.429 17.3918C114.404 16.9813 114.954 16.493 114.875 16.0813C114.798 15.6754 114.108 15.4277 113.975 15.0273Z" fill="#4A5161"/>
<path d="M107.18 27.7035C107.157 27.7111 107.133 27.7159 107.109 27.7206C106.839 27.7715 106.574 27.6258 106.319 27.4831C106.128 27.377 105.933 27.2689 105.783 27.2771C105.627 27.2871 105.441 27.4189 105.26 27.5487C105.027 27.7187 104.781 27.8924 104.513 27.8724C104.241 27.8504 104.023 27.6416 103.815 27.4386C103.659 27.2856 103.496 27.1287 103.345 27.0956C103.194 27.0626 102.981 27.1424 102.774 27.2204C102.502 27.3231 102.221 27.4286 101.965 27.3377C101.708 27.2467 101.553 26.9882 101.404 26.7403C101.29 26.551 101.175 26.356 101.037 26.2865C100.9 26.217 100.675 26.2402 100.455 26.2616C100.165 26.2904 99.8655 26.3191 99.6398 26.1669C99.4142 26.0146 99.3314 25.7257 99.2515 25.4454C99.1907 25.2323 99.1279 25.0135 99.0113 24.9114C98.8976 24.8084 98.6727 24.7741 98.4564 24.737C98.1693 24.6881 97.8697 24.6402 97.693 24.4334C97.5173 24.2295 97.5102 23.9284 97.5069 23.6387C97.5035 23.4162 97.4981 23.188 97.4132 23.0563C97.3301 22.9304 97.1235 22.8358 96.9284 22.7469C96.6616 22.6242 96.3851 22.5016 96.2669 22.2499C96.1515 22.0069 96.2219 21.7185 96.2923 21.4396C96.3454 21.224 96.4023 21.0007 96.3528 20.851C96.3033 20.7012 96.1246 20.5558 95.9535 20.4143C95.7308 20.2323 95.4985 20.0407 95.4502 19.7787C95.399 19.5081 95.544 19.243 95.6862 18.9883C95.7919 18.7968 95.8994 18.6015 95.8911 18.451C95.8809 18.2946 95.7491 18.1081 95.6202 17.9303C95.4502 17.6957 95.2765 17.4497 95.2961 17.1812C95.3177 16.9089 95.5259 16.69 95.7282 16.4825C95.8807 16.3267 96.0371 16.1632 96.0699 16.0118C96.1028 15.8603 96.0227 15.6472 95.9446 15.4398C95.8418 15.1671 95.736 14.8857 95.8265 14.629C95.917 14.3723 96.1748 14.2168 96.422 14.068C96.6109 13.9545 96.8054 13.839 96.8746 13.7012C96.9438 13.5633 96.9203 13.3378 96.8987 13.1182C96.8695 12.8275 96.8404 12.5272 96.9931 12.3042C97.1447 12.0784 97.433 11.9959 97.7127 11.9162C97.9254 11.8555 98.1438 11.793 98.2455 11.6763C98.3481 11.5625 98.382 11.3372 98.4188 11.1206C98.4672 10.833 98.5147 10.533 98.7208 10.3563C98.9241 10.1805 99.2247 10.1738 99.5139 10.1708C99.736 10.1677 99.9638 10.1627 100.095 10.0778C100.221 9.99474 100.315 9.7879 100.403 9.59254C100.525 9.32536 100.648 9.0486 100.896 8.93144C101.138 8.81617 101.426 8.88711 101.705 8.95801C101.92 9.01145 102.143 9.06875 102.292 9.01936C102.442 8.96998 102.587 8.7911 102.728 8.61989C102.909 8.39702 103.1 8.16459 103.361 8.11652C103.631 8.0656 103.896 8.21127 104.154 8.35307C104.345 8.45918 104.54 8.56722 104.69 8.55908C104.846 8.54903 105.032 8.41728 105.21 8.28838C105.444 8.11843 105.689 7.94467 105.957 7.96471C106.229 7.98669 106.448 8.1955 106.655 8.39853C106.811 8.55151 106.974 8.70836 107.125 8.74145C107.277 8.77455 107.492 8.69372 107.696 8.6167C107.968 8.514 108.249 8.40845 108.505 8.49942C108.762 8.5904 108.917 8.84887 109.067 9.09966C109.181 9.28896 109.296 9.48401 109.434 9.55351C109.572 9.623 109.797 9.59975 110.016 9.57839C110.306 9.5496 110.606 9.52083 110.831 9.67309C111.057 9.82534 111.14 10.1143 111.22 10.3946C111.28 10.6077 111.343 10.8265 111.46 10.9286C111.573 11.0315 111.798 11.0658 112.015 11.103C112.302 11.1518 112.601 11.1998 112.778 11.4066C112.954 11.6104 112.961 11.9116 112.964 12.2012C112.968 12.4237 112.973 12.652 113.058 12.7837C113.141 12.9096 113.348 13.0042 113.543 13.0931C113.81 13.2157 114.086 13.3384 114.203 13.5872C114.319 13.8302 114.248 14.1186 114.178 14.3975C114.125 14.6131 114.068 14.8364 114.117 14.9861C114.167 15.1359 114.346 15.2813 114.517 15.4228C114.739 15.6048 114.972 15.7964 115.02 16.0584C115.071 16.329 114.926 16.5941 114.785 16.8517C114.679 17.0431 114.569 17.2394 114.58 17.389C114.59 17.5454 114.722 17.7319 114.852 17.9126C115.022 18.1471 115.196 18.3932 115.176 18.6617C115.154 18.9339 114.946 19.1529 114.744 19.3604C114.591 19.5162 114.435 19.6797 114.402 19.8311C114.369 19.9825 114.449 20.1957 114.527 20.4031C114.63 20.6758 114.736 20.9571 114.646 21.2138C114.555 21.4706 114.297 21.6261 114.047 21.7758C113.858 21.8893 113.664 22.0048 113.595 22.1426C113.525 22.2805 113.549 22.506 113.57 22.7256C113.6 23.0163 113.629 23.3166 113.477 23.5424C113.324 23.7654 113.037 23.8508 112.757 23.9304C112.545 23.9911 112.326 24.0537 112.225 24.1704C112.122 24.2842 112.088 24.5095 112.051 24.7261C112.003 25.0136 111.955 25.3137 111.749 25.4904C111.546 25.6662 111.245 25.6729 110.956 25.6758C110.734 25.679 110.509 25.683 110.375 25.7689C110.249 25.8519 110.155 26.0588 110.067 26.2541C109.945 26.5213 109.823 26.7981 109.572 26.9162C109.333 27.0334 109.041 26.9605 108.763 26.8896C108.547 26.8362 108.324 26.7789 108.175 26.8283C108.026 26.8777 107.881 27.0565 107.74 27.2277C107.576 27.419 107.407 27.6285 107.18 27.7035ZM105.582 27.0079C105.64 26.9889 105.699 26.9757 105.761 26.9711C105.999 26.9565 106.237 27.0886 106.464 27.215C106.671 27.3317 106.889 27.4513 107.051 27.4202C107.206 27.3881 107.359 27.2035 107.508 27.0199C107.676 26.8142 107.852 26.6028 108.085 26.5259C108.317 26.449 108.585 26.517 108.842 26.5792C109.068 26.6355 109.304 26.6948 109.448 26.6281C109.596 26.5566 109.697 26.3316 109.797 26.1133C109.904 25.8767 110.016 25.6287 110.216 25.4989C110.42 25.3643 110.693 25.3604 110.956 25.3565C111.19 25.3524 111.435 25.3484 111.556 25.2443C111.68 25.1363 111.721 24.8929 111.758 24.6599C111.8 24.4002 111.843 24.1337 112.003 23.953C112.163 23.7722 112.425 23.6954 112.678 23.6243C112.905 23.5588 113.141 23.4905 113.231 23.3585C113.324 23.2226 113.297 22.9789 113.274 22.7439C113.247 22.481 113.222 22.2114 113.329 21.9941C113.435 21.7767 113.67 21.6384 113.896 21.503C114.099 21.3818 114.308 21.255 114.363 21.1026C114.415 20.9513 114.33 20.7208 114.247 20.499C114.152 20.2523 114.058 19.9959 114.107 19.7592C114.157 19.5225 114.345 19.3293 114.528 19.141C114.695 18.9708 114.865 18.793 114.875 18.63C114.886 18.4699 114.744 18.2709 114.607 18.0796C114.454 17.8653 114.294 17.6432 114.28 17.3986C114.265 17.1607 114.397 16.9223 114.523 16.6955C114.639 16.4877 114.758 16.2695 114.727 16.1073C114.698 15.9509 114.51 15.7987 114.327 15.6485C114.121 15.48 113.91 15.3039 113.833 15.0706C113.756 14.8373 113.823 14.569 113.885 14.3121C113.941 14.086 114 13.8493 113.933 13.7052C113.862 13.5564 113.637 13.4549 113.419 13.3545C113.182 13.2473 112.935 13.1343 112.805 12.9344C112.67 12.7297 112.666 12.4563 112.662 12.1926C112.657 11.9576 112.653 11.713 112.549 11.5909C112.441 11.4669 112.198 11.4258 111.965 11.3876C111.706 11.3456 111.44 11.3025 111.259 11.1418C111.079 10.981 111.002 10.719 110.93 10.4646C110.865 10.2371 110.796 10.001 110.664 9.91039C110.529 9.82076 110.285 9.84395 110.051 9.86717C109.788 9.89318 109.519 9.91821 109.302 9.81106C109.088 9.70296 108.947 9.4685 108.811 9.24174C108.69 9.03899 108.563 8.82855 108.411 8.7734C108.26 8.72113 108.03 8.8067 107.809 8.88942C107.561 8.98069 107.307 9.0777 107.07 9.02802C106.834 8.97835 106.641 8.78976 106.453 8.60598C106.282 8.43856 106.105 8.26729 105.942 8.25717C105.782 8.24611 105.584 8.38836 105.393 8.52489C105.179 8.67861 104.958 8.83805 104.714 8.85165C104.476 8.86623 104.238 8.73408 104.011 8.60772C103.804 8.49101 103.586 8.37139 103.424 8.40251C103.268 8.43174 103.116 8.61922 102.967 8.80288C102.799 9.00853 102.624 9.22279 102.391 9.29972C102.159 9.37665 101.891 9.30866 101.633 9.24358C101.407 9.18722 101.171 9.12796 101.027 9.19463C100.879 9.26608 100.778 9.49113 100.678 9.70946C100.571 9.946 100.459 10.194 100.259 10.3238C100.055 10.4584 99.7823 10.4623 99.519 10.4662C99.2845 10.4703 99.0404 10.4743 98.9186 10.5784C98.7949 10.6864 98.7542 10.9299 98.7165 11.1628C98.6748 11.4226 98.6322 11.689 98.472 11.8698C98.3118 12.0505 98.0493 12.1245 97.7964 12.1985C97.5694 12.2639 97.3338 12.3322 97.2436 12.4643C97.1543 12.5992 97.1778 12.8438 97.2013 13.0789C97.2276 13.3417 97.2529 13.6113 97.1462 13.8286C97.0396 14.046 96.8048 14.1843 96.5786 14.3198C96.3764 14.4409 96.1665 14.5678 96.1116 14.7201C96.0596 14.8714 96.1454 15.1019 96.2282 15.3237C96.3197 15.5714 96.4168 15.8268 96.3676 16.0635C96.3183 16.3003 96.1303 16.4934 95.9471 16.6817C95.7802 16.8519 95.6095 17.0297 95.5996 17.1927C95.5887 17.3529 95.731 17.5518 95.8675 17.7431C96.0213 17.9575 96.1807 18.1795 96.1946 18.4241C96.2095 18.662 96.0779 18.9004 95.9521 19.1273C95.8358 19.335 95.7167 19.5533 95.748 19.7155C95.7774 19.8719 95.9647 20.024 96.1483 20.1742C96.3538 20.3427 96.565 20.5189 96.6421 20.7522C96.7192 20.9855 96.6517 21.2538 96.5899 21.5106C96.534 21.7367 96.4751 21.9734 96.5419 22.1175C96.6134 22.2664 96.8391 22.3707 97.0563 22.4682C97.2925 22.5755 97.5403 22.6885 97.6701 22.8884C97.8047 23.0931 97.8089 23.3664 97.8132 23.6301C97.8176 23.8651 97.8219 24.1097 97.926 24.2318C98.034 24.3559 98.277 24.3969 98.5096 24.4351C98.769 24.4772 99.035 24.5202 99.2156 24.681C99.3963 24.8417 99.4733 25.1038 99.5446 25.3581C99.6103 25.5856 99.6788 25.8218 99.8107 25.9123C99.9465 26.0048 100.19 25.9788 100.424 25.9556C100.687 25.9295 100.956 25.9045 101.173 26.0117C101.39 26.1188 101.528 26.3542 101.664 26.581C101.785 26.7837 101.912 26.9942 102.064 27.0493C102.215 27.1016 102.445 27.016 102.666 26.9333C102.913 26.8392 103.168 26.745 103.405 26.7947C103.641 26.8444 103.834 27.033 104.022 27.2167C104.192 27.3842 104.37 27.5554 104.533 27.5656C104.693 27.5766 104.888 27.4353 105.082 27.2978C105.242 27.1842 105.407 27.0658 105.582 27.0079Z" fill="#4A5161"/>
<path d="M101.357 22.3147C101.247 22.3508 101.12 22.3226 101.038 22.2283C100.665 21.8148 100.341 21.3534 100.075 20.8567C98.4396 17.7902 99.3962 14.078 102.203 12.5785C105.01 11.079 108.622 12.3546 110.257 15.4211C110.351 15.5979 110.44 15.7794 110.516 15.9619C110.582 16.1155 110.51 16.2927 110.357 16.3593C110.2 16.4241 110.027 16.3535 109.96 16.1998C109.89 16.0346 109.809 15.8694 109.724 15.7061C108.247 12.9355 105.003 11.7714 102.488 13.1136C99.9766 14.4549 99.1317 17.8011 100.608 20.5717C100.851 21.0251 101.147 21.448 101.484 21.8222C101.596 21.9482 101.589 22.139 101.463 22.2508C101.435 22.2824 101.397 22.3014 101.357 22.3147Z" fill="white"/>
<path d="M101.405 22.459C101.235 22.515 101.047 22.4655 100.926 22.3328C100.544 21.9096 100.213 21.4376 99.9428 20.9294C99.1357 19.4135 98.9149 17.6942 99.3296 16.094C99.7423 14.4879 100.738 13.1907 102.135 12.4481C103.53 11.7026 105.159 11.5957 106.722 12.1493C108.281 12.7009 109.585 13.8387 110.392 15.3547C110.486 15.5343 110.577 15.7216 110.657 15.906C110.755 16.1355 110.649 16.4037 110.417 16.5027C110.18 16.6036 109.921 16.4944 109.821 16.262C109.753 16.1026 109.677 15.9393 109.593 15.7817C108.157 13.087 105.002 11.951 102.563 13.2522C100.124 14.5534 99.3091 17.8067 100.746 20.5043C100.982 20.95 101.271 21.3595 101.602 21.726C101.769 21.9135 101.755 22.1993 101.572 22.3684C101.521 22.4076 101.465 22.439 101.405 22.459ZM103.091 12.362C102.812 12.4541 102.538 12.5703 102.276 12.7113C100.956 13.4158 100.014 14.6442 99.6214 16.1668C99.228 17.6962 99.4384 19.3358 100.21 20.7836C100.47 21.2697 100.786 21.7243 101.152 22.1273C101.206 22.186 101.305 22.1949 101.365 22.1366C101.426 22.0812 101.432 21.9834 101.374 21.9228C101.027 21.539 100.725 21.1055 100.476 20.6415C98.9588 17.7979 99.8307 14.3597 102.415 12.9784C105.001 11.6 108.339 12.7903 109.853 15.6349C109.943 15.8001 110.022 15.972 110.094 16.1401C110.126 16.2188 110.213 16.2508 110.295 16.2203C110.332 16.2051 110.361 16.1764 110.373 16.1372C110.389 16.0998 110.389 16.0586 110.373 16.0221C110.299 15.8454 110.211 15.6667 110.12 15.4957C109.347 14.0451 108.102 12.9583 106.615 12.4338C105.433 12.0128 104.209 11.9925 103.091 12.362Z" fill="#263238"/>
<path d="M134.329 57.4C134.329 57.4 145.057 50.6724 147.553 46.0138C147.553 46.0138 148.307 51.8347 151.176 54.0813C154.044 56.328 164.207 61.4224 166.057 62.514C167.906 63.6056 171.608 66.3881 172.341 66.0404C173.077 65.6918 174.041 61.5394 174.393 60.3562C174.746 59.1758 175.711 58.1796 175.364 56.4858C175.017 54.7891 174.026 55.0113 173.803 55.6186C173.579 56.2259 172.095 58.3808 170.978 59.1752C169.86 59.9695 168.661 60.8642 168.661 60.8642C168.661 60.8642 164.278 57.7314 160.392 53.69C156.507 49.6486 151.135 41.4211 149.767 39.8477C148.397 38.2782 147.058 38.082 145.621 38.5569C144.184 39.0318 139.586 40.5515 132.713 46.7621C125.84 52.9727 127.27 56.3339 128.45 57.3303C129.629 58.3305 131.895 58.754 134.329 57.4Z" fill="#4592D0"/>
<path d="M172.365 66.1986C171.767 66.3961 170.195 65.4013 167.886 63.8739C167.176 63.4026 166.502 62.9574 165.98 62.6507C165.458 62.3441 164.271 61.714 162.768 60.917C158.939 58.8888 153.151 55.8243 151.086 54.2065C148.626 52.2815 147.709 47.8756 147.47 46.4689C144.649 51.0785 134.836 57.2643 134.411 57.5325C134.408 57.5334 134.405 57.5344 134.403 57.5382C131.922 58.9141 129.579 58.4875 128.354 57.4545C128.049 57.1974 127.339 56.4481 127.313 55.0382C127.285 53.4279 128.182 50.665 132.614 46.6571C139.511 40.4225 144.075 38.9143 145.575 38.4185C147.239 37.8686 148.61 38.294 149.883 39.7549C150.344 40.2829 151.243 41.5449 152.383 43.1425C154.718 46.4184 157.918 50.9007 160.503 53.5923C164.031 57.2633 168.018 60.2137 168.661 60.6818C168.96 60.4584 169.959 59.7193 170.891 59.0567C171.987 58.2758 173.453 56.1332 173.662 55.569C173.79 55.2232 174.115 55.0008 174.455 55.0259C174.69 55.0439 175.261 55.2193 175.515 56.4611C175.769 57.7001 175.359 58.5638 174.961 59.3949C174.798 59.7397 174.643 60.0624 174.54 60.4063C174.474 60.6296 174.383 60.963 174.277 61.3559C173.639 63.736 173.013 65.8947 172.407 66.1814C172.393 66.1891 172.379 66.1938 172.365 66.1986ZM147.506 45.8725C147.529 45.8649 147.557 45.8621 147.581 45.867C147.645 45.8778 147.694 45.9316 147.703 45.9959C147.71 46.0544 148.484 51.7823 151.267 53.9644C153.311 55.5668 159.084 58.6236 162.905 60.648C164.413 61.4469 165.606 62.0779 166.133 62.3894C166.66 62.7009 167.337 63.148 168.051 63.6212C169.556 64.6158 171.835 66.1182 172.278 65.9077C172.81 65.6553 173.604 62.6963 173.986 61.2763C174.094 60.8796 174.184 60.5433 174.25 60.32C174.359 59.955 174.527 59.6055 174.687 59.2684C175.064 58.4794 175.451 57.6645 175.218 56.5244C175.069 55.8037 174.775 55.3578 174.431 55.3308C174.228 55.3148 174.027 55.458 173.946 55.6764C173.722 56.2808 172.226 58.4779 171.068 59.3047C169.964 60.0914 168.766 60.9823 168.754 60.9928C168.7 61.033 168.63 61.0337 168.576 60.9942C168.531 60.9643 164.137 57.8065 160.286 53.8017C157.683 51.0965 154.479 46.5999 152.136 43.3201C151.001 41.7302 150.105 40.4739 149.653 39.9555C148.452 38.5793 147.225 38.1927 145.667 38.7075C144.181 39.1985 139.664 40.6916 132.813 46.8821C128.463 50.8116 127.583 53.4826 127.611 55.0325C127.633 56.3157 128.271 56.99 128.545 57.222C129.69 58.1886 131.894 58.5783 134.249 57.273C134.491 57.1194 144.983 50.4888 147.419 45.9461C147.439 45.9107 147.472 45.8839 147.506 45.8725ZM134.33 57.4027L134.333 57.4018L134.33 57.4027Z" fill="#263238"/>
<path d="M175.366 56.4882C175.019 54.7915 174.028 55.0137 173.805 55.621C173.581 56.2283 172.097 58.3833 170.979 59.1776C169.862 59.9719 168.662 60.8667 168.662 60.8667C168.662 60.8667 165.248 58.4264 161.776 55.0759C161.281 57.0125 160.247 58.2617 159.45 58.9755C162.416 60.5704 165.179 61.9957 166.058 62.5164C167.908 63.608 171.61 66.3906 172.343 66.0429C173.079 65.6942 174.043 61.5419 174.395 60.3586C174.75 59.1773 175.716 58.1839 175.366 56.4882Z" fill="#FEDEA5"/>
<path d="M172.365 66.1983C171.767 66.3958 170.195 65.401 167.886 63.8735C167.176 63.4023 166.503 62.9571 165.981 62.6504C165.458 62.3438 164.268 61.7118 162.761 60.9128C161.74 60.3715 160.574 59.7569 159.379 59.1105C159.336 59.0864 159.306 59.045 159.3 58.9961C159.293 58.9472 159.312 58.8993 159.349 58.8649C160.118 58.173 161.141 56.9497 161.629 55.0409C161.644 54.9882 161.685 54.949 161.734 54.9329C161.787 54.9186 161.842 54.9322 161.88 54.9707C164.997 57.9758 168.099 60.2731 168.658 60.6825C168.957 60.459 169.956 59.7199 170.888 59.0574C171.984 58.2764 173.45 56.1339 173.659 55.5697C173.787 55.2239 174.112 55.0015 174.452 55.0265C174.687 55.0445 175.258 55.22 175.513 56.4618C175.766 57.7007 175.357 58.5644 174.959 59.3956C174.795 59.7403 174.641 60.063 174.537 60.407C174.471 60.6302 174.38 60.9636 174.274 61.3565C173.636 63.7367 173.011 65.8954 172.404 66.1821C172.394 66.1888 172.379 66.1935 172.365 66.1983ZM159.709 58.9437C160.841 59.5506 161.935 60.1314 162.904 60.6419C164.415 61.4427 165.608 62.0738 166.135 62.3852C166.662 62.6967 167.339 63.1439 168.053 63.6171C169.558 64.6116 171.837 66.1141 172.28 65.9036C172.812 65.6511 173.606 62.6922 173.988 61.2721C174.096 60.8755 174.186 60.5391 174.252 60.3159C174.361 59.9509 174.529 59.6013 174.689 59.2643C175.066 58.4753 175.453 57.6604 175.22 56.5203C175.071 55.7996 174.777 55.3536 174.433 55.3266C174.23 55.3106 174.029 55.4538 173.948 55.6722C173.724 56.2767 172.228 58.4738 171.07 59.3006C169.966 60.0873 168.769 60.9782 168.756 60.9887C168.702 61.0288 168.632 61.0295 168.578 60.99C168.545 60.966 165.239 58.5923 161.86 55.361C161.36 57.0818 160.452 58.2383 159.709 58.9437Z" fill="#263238"/>
<path d="M107.539 25.547C107.539 25.547 109.66 27.7308 110.08 28.5281C110.499 29.3255 109.679 30.1428 108.766 30.6779C107.853 31.213 106.124 31.1614 105.161 33.4283C104.199 35.6952 102.944 44.6111 102.776 45.9925C102.611 47.373 103.497 48.1728 104.946 47.3805C106.396 46.5882 108.722 39.7367 108.722 39.7367C108.722 39.7367 115.912 44.3028 116.985 45.4273C118.059 46.5548 118.589 48.8744 119.219 51.2414C119.845 53.6094 120.609 57.0979 123.619 59.1446C126.629 61.1912 131.305 60.5052 134.326 57.3981C137.345 54.2948 139.119 46.4374 136.481 44.3479C133.844 42.2544 129.468 42.2375 127.439 40.1C125.41 37.9625 125.361 36.426 124.501 33.8252C123.642 31.2244 121.959 28.0619 121.959 28.0619C121.959 28.0619 127.518 24.6273 134.193 21.3574C136.513 20.2198 134.081 17.963 132.493 17.8649C130.501 17.7405 122.981 21.1333 120.791 21.6336C117.629 22.359 116.276 23.5122 115.738 24.2365C115.199 24.9607 114.521 25.9645 113.725 26.1509C112.929 26.3373 110.834 22.8157 110.834 22.8157C110.834 22.8157 109.361 25.1778 107.539 25.547Z" fill="#F37630"/>
<path d="M130.478 59.9822C128.067 60.7791 125.473 60.5885 123.536 59.2703C120.645 57.3056 119.799 54.0585 119.18 51.6848L118.912 50.6616C118.357 48.5384 117.83 46.5305 116.878 45.5319C115.92 44.5228 109.878 40.651 108.807 39.9666C108.418 41.0855 106.388 46.766 105.021 47.5116C104.3 47.9034 103.649 47.9493 103.192 47.6371C102.743 47.3316 102.537 46.7258 102.628 45.9704C102.773 44.7596 104.04 35.6798 105.022 33.3649C105.767 31.6075 106.948 31.198 107.895 30.8692C108.193 30.7675 108.47 30.6697 108.689 30.5428C109.097 30.3025 110.395 29.455 109.945 28.5943C109.541 27.8267 107.451 25.6679 107.428 25.6468C107.39 25.6083 107.376 25.5488 107.391 25.4961C107.408 25.4424 107.449 25.4032 107.506 25.3909C109.244 25.0369 110.692 22.7533 110.707 22.7323C110.734 22.6882 110.786 22.6616 110.837 22.6608C110.888 22.6628 110.938 22.6879 110.966 22.7331C111.968 24.4146 113.263 26.0952 113.693 25.9978C114.365 25.8427 114.983 25.0026 115.481 24.33L115.62 24.1406C116.117 23.4747 117.443 22.2409 120.759 21.4805C121.58 21.2923 123.211 20.6732 124.938 20.0161C127.89 18.8968 131.235 17.6282 132.504 17.7042C133.571 17.77 135.059 18.7827 135.275 19.8681C135.368 20.3325 135.267 20.992 134.26 21.4846C128.202 24.4515 123.006 27.5938 122.159 28.1099C122.481 28.7257 123.888 31.4779 124.645 33.7705C124.834 34.3407 124.98 34.8514 125.124 35.3438C125.626 37.0851 125.988 38.3455 127.552 39.9886C128.583 41.0756 130.242 41.6007 131.998 42.1578C133.619 42.6732 135.292 43.2032 136.576 44.2229C137.344 44.8315 137.802 45.9455 137.899 47.4438C138.115 50.8001 136.563 55.3131 134.435 57.4986C133.308 58.6698 131.926 59.5035 130.478 59.9822ZM108.678 39.5941C108.721 39.5798 108.768 39.5867 108.807 39.6089C109.101 39.7959 116.023 44.198 117.097 45.3255C118.103 46.3827 118.638 48.4262 119.204 50.5906L119.472 51.6138C120.078 53.9404 120.91 57.1223 123.706 59.0225C126.687 61.0499 131.306 60.2898 134.219 57.2984C136.261 55.2018 137.806 50.7042 137.597 47.4764C137.504 46.0663 137.087 45.0282 136.388 44.4736C135.148 43.4904 133.499 42.9682 131.907 42.4625C130.113 41.8928 128.417 41.3541 127.332 40.2113C125.719 38.5144 125.328 37.158 124.834 35.4398C124.691 34.9502 124.545 34.4424 124.359 33.8779C123.513 31.3175 121.844 28.1693 121.828 28.1396C121.792 28.0685 121.814 27.9813 121.883 27.9393C121.939 27.905 127.524 24.4647 134.13 21.2272C134.8 20.9004 135.087 20.4668 134.984 19.9419C134.795 18.9948 133.431 18.0812 132.49 18.0216C131.286 17.9468 127.828 19.2591 125.05 20.3147C123.237 21.0032 121.671 21.5975 120.829 21.7895C117.605 22.5291 116.336 23.7027 115.862 24.3351L115.723 24.5216C115.197 25.2354 114.544 26.1223 113.762 26.3039C112.978 26.4865 111.373 23.9946 110.83 23.1038C110.444 23.6626 109.279 25.201 107.825 25.6336C108.353 26.1877 109.855 27.7836 110.21 28.4618C110.599 29.2025 110.089 30.0803 108.839 30.8128C108.595 30.9539 108.301 31.0575 107.993 31.1659C107.1 31.4737 105.991 31.8595 105.297 33.4943C104.328 35.7795 103.071 44.8114 102.924 46.0164C102.847 46.652 103.004 47.156 103.357 47.394C103.718 47.6388 104.256 47.5887 104.872 47.2541C105.98 46.6515 107.779 42.0444 108.577 39.6945C108.598 39.6427 108.632 39.6093 108.678 39.5941Z" fill="#263238"/>
<path d="M124.088 20.5081C123.892 20.5822 123.7 20.6555 123.512 20.7239C123.875 21.9584 124.698 23.9165 126.462 25.4355C126.645 25.3335 126.836 25.2257 127.026 25.118C125.258 23.6737 124.44 21.7013 124.088 20.5081Z" fill="#263238"/>
<path d="M126.644 39.1512C126.518 38.9849 126.403 38.8186 126.298 38.6552C122.27 41.06 119.524 45.0982 118.145 47.5125C118.236 47.7602 118.321 48.0165 118.407 48.2853C119.645 46.0135 122.431 41.6455 126.644 39.1512Z" fill="#263238"/>
<path d="M116.167 44.7385C116.354 44.881 116.522 45.0139 116.659 45.1285C117.531 43.4184 119.918 39.5948 125.16 36.0028C125.1 35.8022 125.04 35.592 124.98 35.3818C119.582 39.0125 117.116 42.8848 116.167 44.7385Z" fill="#263238"/>
<path d="M108.721 36.551C109.716 36.0977 114.388 33.7229 120.01 26.7372C120.933 27.6493 121.712 28.2512 121.781 28.3051C121.862 28.3677 121.97 28.3834 122.062 28.353C122.076 28.3483 122.092 28.3397 122.106 28.3321C122.018 28.163 121.966 28.065 121.966 28.065C121.966 28.065 122.056 28.0097 122.223 27.9066C122.203 27.8749 122.181 27.847 122.151 27.822C122.116 27.795 118.874 25.295 117.767 22.68C117.576 22.7752 117.394 22.8734 117.232 22.9717C117.455 23.4797 117.745 23.9813 118.074 24.4571C113.975 30.1885 108.904 32.7625 107.51 33.389C107.119 32.6877 106.725 32.1407 106.414 31.758C106.258 31.8765 106.105 32.0102 105.957 32.1709C106.224 32.5074 106.562 32.9803 106.903 33.577C106.426 33.281 105.901 33.0904 105.388 32.966C105.311 33.1096 105.233 33.2599 105.164 33.4266C105.15 33.4601 105.136 33.4965 105.122 33.53C106.078 33.7412 107.088 34.2029 107.657 35.1743C107.857 35.6928 108.033 36.264 108.165 36.8849C107.502 36.2287 106.332 35.4174 104.583 35.3821C104.538 35.5728 104.492 35.7731 104.448 35.9762C107.103 35.955 108.248 37.896 108.314 38.0113C108.328 38.0324 108.343 38.0497 108.361 38.0661C108.398 38.399 108.421 38.7395 108.427 39.0953C107.659 38.5347 106.08 37.6444 104.063 37.8604C104.026 38.0646 103.985 38.2697 103.948 38.4767C106.315 38.1257 108.017 39.493 108.422 39.8606C108.416 40.1215 108.413 40.3746 108.41 40.6249C108.609 40.0799 108.727 39.7312 108.727 39.7312C108.727 39.7312 108.836 39.8006 109.025 39.9201C109.027 39.8587 109.027 39.8012 109.029 39.7398C109.066 38.568 108.94 37.5012 108.721 36.551ZM118.443 24.9742C118.807 25.4511 119.197 25.8973 119.582 26.3004C114.239 32.9542 109.676 35.4176 108.564 35.9511C108.485 35.6737 108.398 35.4087 108.307 35.1543C108.305 35.1169 108.294 35.0756 108.276 35.0401C108.268 35.0266 108.261 35.0132 108.252 34.9968C108.106 34.6137 107.95 34.2565 107.788 33.9299C109.278 33.249 114.326 30.6509 118.443 24.9742Z" fill="#263238"/>
<path d="M128.964 41.1857C128.76 41.0805 128.565 40.9724 128.379 40.852C123.851 43.9331 120.843 48.0866 119.147 50.9602C119.172 51.0542 119.197 51.1483 119.222 51.2424C119.267 51.419 119.316 51.6042 119.364 51.7895C120.984 48.9281 124.094 44.4086 128.964 41.1857Z" fill="#263238"/>
<path d="M124.295 33.2216C124.227 33.0334 124.154 32.8433 124.082 32.6532C116.837 35.482 114.454 40.4709 113.688 42.9859C113.865 43.1063 114.038 43.2248 114.21 43.3405C114.865 41.0313 117.075 36.0457 124.295 33.2216Z" fill="#263238"/>
<path d="M127.872 19.0909C127.675 19.1622 127.479 19.2335 127.28 19.3058C127.515 20.5859 128.075 22.2727 129.368 23.8391C129.549 23.7409 129.734 23.6446 129.92 23.5445C128.63 22.0127 128.092 20.3278 127.872 19.0909Z" fill="#263238"/>
<path d="M120.026 21.831C120.723 23.2238 121.953 25.2868 123.777 26.9777C123.951 26.8756 124.135 26.7669 124.327 26.6553C122.56 25.0605 121.339 23.0522 120.631 21.6727C120.425 21.7248 120.222 21.776 120.026 21.831Z" fill="#263238"/>
<path d="M123.006 30.1686C122.916 29.9746 122.827 29.7931 122.744 29.6192C114.726 33.3874 111.707 38.3243 110.621 40.9581C110.792 41.0709 110.97 41.1846 111.153 41.3061C112.182 38.8159 115.122 33.8892 123.006 30.1686Z" fill="#263238"/>
<path d="M134.33 57.3999C136.828 54.833 138.471 49.0121 137.47 45.8959C137.256 45.315 136.944 44.8335 136.523 44.4965C136.168 44.2115 135.782 43.9235 135.38 43.6316C134.085 42.9351 132.57 42.5188 131.154 42.0539C125.606 46.5425 122.12 53.0364 120.663 55.5942C121.305 56.9188 122.216 58.1895 123.623 59.1464C126.632 61.193 131.308 60.507 134.33 57.3999Z" fill="#4592D0"/>
<path d="M130.478 59.9824C128.067 60.7792 125.473 60.5887 123.536 59.2705C122.27 58.411 121.283 57.2291 120.525 55.6587C120.504 55.6145 120.505 55.5598 120.529 55.5168L120.801 55.0372C122.426 52.1615 125.805 46.1823 131.057 41.9353C131.098 41.9028 131.148 41.8925 131.199 41.9108C131.46 41.997 131.723 42.0794 131.99 42.1637C133.166 42.5386 134.384 42.9252 135.45 43.4992C135.911 43.8325 136.288 44.1138 136.615 44.3795C137.04 44.7214 137.375 45.2144 137.608 45.8433C138.615 48.9768 137.011 54.8582 134.435 57.5083C133.308 58.6699 131.926 59.5037 130.478 59.9824ZM120.833 55.5983C121.563 57.0824 122.504 58.2026 123.707 59.0188C126.688 61.0462 131.308 60.2862 134.221 57.2947C136.736 54.7096 138.301 48.9816 137.325 45.9402C137.113 45.368 136.81 44.922 136.428 44.6139C136.103 44.3539 135.733 44.0736 135.292 43.7529C134.265 43.201 133.064 42.8183 131.9 42.4492C131.66 42.3717 131.422 42.2971 131.186 42.2186C126.016 46.4256 122.675 52.3378 121.069 55.1819L120.833 55.5983Z" fill="#4592D0"/>
<path d="M101.375 21.1332C101.253 21.1798 101.14 21.2427 101.036 21.3248C100.196 21.9762 100.285 23.4994 101.237 24.7281C102.185 25.9578 103.634 26.4276 104.475 25.7791C104.653 25.6406 104.786 25.4655 104.881 25.2616L101.375 21.1332Z" fill="white"/>
<path d="M104.113 26.1392C103.742 26.2618 103.308 26.2517 102.848 26.1035C102.209 25.8962 101.593 25.4416 101.114 24.8205C100.636 24.2023 100.353 23.4908 100.312 22.8174C100.27 22.122 100.495 21.5492 100.942 21.2035C101.056 21.1146 101.182 21.0441 101.318 20.9927C101.379 20.9728 101.447 20.9855 101.489 21.0355L104.991 25.1619C105.029 25.2071 105.037 25.2714 105.013 25.3241C104.903 25.5587 104.753 25.7519 104.565 25.8971C104.428 26.0031 104.277 26.0851 104.113 26.1392ZM101.333 21.3169C101.259 21.3541 101.193 21.3951 101.13 21.4448C100.765 21.7284 100.583 22.2102 100.618 22.7992C100.654 23.4102 100.918 24.0642 101.359 24.6343C101.799 25.2044 102.365 25.6244 102.946 25.8123C103.51 25.9934 104.021 25.9395 104.384 25.6568C104.51 25.5574 104.619 25.4321 104.702 25.2799L101.333 21.3169Z" fill="#263238"/>
<path d="M101.375 21.1336C101.253 21.1802 101.14 21.2431 101.036 21.3253C100.939 21.3988 100.857 21.4868 100.787 21.5834L104.423 25.8158C104.442 25.8034 104.461 25.7939 104.478 25.7786C104.655 25.6401 104.789 25.465 104.884 25.2611L101.375 21.1336Z" fill="white"/>
<path d="M104.482 25.9461C104.422 25.966 104.343 25.96 104.305 25.9119L100.668 21.6795C100.622 21.6247 100.618 21.5461 100.663 21.4896C100.747 21.3787 100.84 21.2811 100.941 21.2028C101.055 21.114 101.182 21.0434 101.318 20.9921C101.378 20.9721 101.446 20.9848 101.488 21.0348L104.991 25.1613C105.028 25.2065 105.037 25.2708 105.013 25.3235C104.902 25.5581 104.752 25.7513 104.564 25.8965C104.549 25.9079 104.536 25.9156 104.52 25.927C104.507 25.9346 104.496 25.9413 104.482 25.9461ZM100.983 21.5789L104.44 25.6055C104.545 25.5099 104.629 25.4057 104.696 25.2812L101.33 21.3172C101.256 21.3544 101.19 21.3954 101.126 21.4451C101.076 21.4843 101.027 21.5292 100.983 21.5789Z" fill="#263238"/>
<path d="M109.077 15.3775C109.154 15.2723 109.243 15.1757 109.348 15.0964C110.188 14.4451 111.637 14.9149 112.585 16.1445C113.537 17.3732 113.626 18.8964 112.789 19.5469C112.611 19.6853 112.406 19.7691 112.187 19.8096L109.077 15.3775Z" fill="white"/>
<path d="M112.434 19.9032C112.362 19.9269 112.288 19.9449 112.211 19.9609C112.153 19.9704 112.095 19.9481 112.06 19.8991L108.95 15.467C108.914 15.4151 108.913 15.3451 108.949 15.2915C109.034 15.1709 109.137 15.0667 109.251 14.9779C110.155 14.2798 111.703 14.7585 112.702 16.0545C113.18 16.6727 113.466 17.3833 113.504 18.0576C113.546 18.753 113.324 19.3249 112.877 19.6706C112.747 19.7709 112.601 19.8481 112.434 19.9032ZM112.249 19.6417C112.416 19.5991 112.565 19.5276 112.691 19.4283C113.057 19.1447 113.239 18.6629 113.203 18.0739C113.166 17.46 112.903 16.8089 112.463 16.2388C111.566 15.0784 110.207 14.6204 109.435 15.2173C109.372 15.267 109.313 15.3214 109.26 15.3836L112.249 19.6417Z" fill="#263238"/>
<path d="M112.434 19.9035C112.362 19.9273 112.289 19.9453 112.211 19.9613C112.154 19.9707 112.095 19.9485 112.06 19.8995L108.95 15.4674C108.914 15.4155 108.913 15.3455 108.95 15.2919C109.034 15.1713 109.137 15.0671 109.251 14.9783C109.352 14.9 109.467 14.8332 109.597 14.7809C109.664 14.7523 109.738 14.7756 109.78 14.8352L112.957 19.4209C113.001 19.4863 112.991 19.5725 112.931 19.6213C112.904 19.6461 112.892 19.6595 112.876 19.6681C112.747 19.7712 112.601 19.8484 112.434 19.9035ZM112.249 19.6421C112.391 19.608 112.515 19.5509 112.627 19.4755L109.604 15.1108C109.544 15.1432 109.486 15.1785 109.435 15.2177C109.372 15.2673 109.313 15.3218 109.261 15.384L112.249 19.6421Z" fill="#263238"/>
<path d="M115.052 25.1435C114.658 25.6189 114.216 26.0366 113.73 26.1491C112.934 26.3355 110.84 22.8139 110.84 22.8139C110.84 22.8139 109.363 25.1741 107.54 25.5432C107.54 25.5432 109.662 27.7271 110.081 28.5244C110.422 29.169 109.948 29.8273 109.272 30.3382C109.993 31.2948 111.997 33.367 114.845 31.5856C117.334 30.0314 116.073 26.921 115.052 25.1435Z" fill="#FEDEA5"/>
<path d="M113.817 32.2471C111.457 33.0269 109.804 31.3049 109.146 30.4329C109.123 30.3993 109.113 30.3609 109.116 30.3216C109.122 30.2813 109.142 30.2459 109.176 30.222C109.609 29.8935 110.285 29.2484 109.943 28.598C109.539 27.8304 107.449 25.6717 107.426 25.6505C107.387 25.612 107.374 25.5525 107.389 25.4998C107.406 25.4461 107.447 25.407 107.504 25.3947C109.242 25.0406 110.69 22.757 110.705 22.736C110.732 22.692 110.784 22.6653 110.834 22.6645C110.886 22.6666 110.936 22.6917 110.964 22.7368C111.966 24.4183 113.261 26.0989 113.691 26.0015C114.066 25.9126 114.463 25.6089 114.93 25.0455C114.962 25.0063 115.01 24.9873 115.059 24.9903C115.107 24.9933 115.152 25.0232 115.176 25.0664C116.199 26.8497 117.528 30.0811 114.916 31.7145C114.537 31.9579 114.17 32.1303 113.817 32.2471ZM109.482 30.3669C110.251 31.3361 112.138 33.0991 114.761 31.4589C117.073 30.0144 115.977 27.1242 115.027 25.4064C114.71 25.7669 114.269 26.1808 113.763 26.2971C112.978 26.4797 111.374 23.9878 110.831 23.097C110.445 23.6558 109.28 25.1942 107.826 25.6268C108.353 26.1809 109.856 27.7768 110.211 28.455C110.528 29.0564 110.266 29.7307 109.482 30.3669Z" fill="#FEDEA5"/>
<path d="M112.168 24.7993C111.839 24.3619 111.523 23.8977 111.282 23.5267C111.116 23.3229 110.952 23.1056 110.79 22.8874C110.537 23.2683 109.181 25.2117 107.534 25.5449C107.534 25.5449 108.251 26.2857 108.934 27.0599C109.679 27.0374 110.684 26.8776 111.306 26.2409C111.699 25.8393 111.974 25.3108 112.168 24.7993Z" fill="#263238"/>
<path d="M110.343 26.9834C109.866 27.1411 109.361 27.196 108.942 27.21C108.898 27.2118 108.853 27.1915 108.823 27.1598C108.15 26.3952 107.434 25.6573 107.428 25.6496C107.39 25.6111 107.377 25.5516 107.391 25.4989C107.409 25.4453 107.45 25.4061 107.506 25.3938C109.09 25.0747 110.414 23.1772 110.666 22.8002C110.693 22.759 110.739 22.7343 110.79 22.7335C110.841 22.7327 110.887 22.7558 110.915 22.7943C111.084 23.0259 111.248 23.2403 111.402 23.4259C111.713 23.9045 112.016 24.3409 112.289 24.7014C112.321 24.7418 112.327 24.7974 112.311 24.8473C112.073 25.4756 111.773 25.9772 111.421 26.3395C111.119 26.6502 110.739 26.8523 110.343 26.9834ZM109.004 26.9052C109.708 26.8768 110.633 26.7148 111.2 26.1345C111.509 25.8152 111.778 25.3749 111.994 24.8242C111.664 24.3839 111.356 23.9235 111.153 23.6102C111.042 23.4775 110.92 23.3198 110.794 23.1506C110.38 23.7382 109.238 25.2114 107.824 25.6307C108.075 25.8895 108.546 26.3888 109.004 26.9052Z" fill="#263238"/>
<path d="M101.237 20.1403C101.237 20.1403 103.615 24.0349 104.687 24.9264C105.761 25.8208 108.727 26.3194 109.966 26.0664C111.206 25.8133 111.559 24.0575 111.866 22.6305C112.172 21.2035 112.056 20.1492 111.266 18.6947C110.473 17.2411 108.749 15.0825 107.606 13.9779C106.866 13.261 104.431 13.0787 102.628 14.2208C100.825 15.363 100.143 18.0067 101.237 20.1403Z" fill="#FEDEA5"/>
<path d="M110.176 26.1696C110.119 26.1886 110.06 26.2048 109.997 26.2161C108.656 26.4899 105.682 25.949 104.592 25.044C103.511 24.1457 101.208 20.3799 101.111 20.2204C101.11 20.2175 101.106 20.2156 101.104 20.2098C99.994 18.0465 100.643 15.3019 102.548 14.0939C104.438 12.8974 106.944 13.1299 107.712 13.8727C108.831 14.9533 110.581 17.1225 111.4 18.6279C112.177 20.0517 112.341 21.1475 112.015 22.6674L111.997 22.747C111.706 24.105 111.346 25.7831 110.176 26.1696ZM101.369 20.0649C101.465 20.2215 103.758 23.9557 104.782 24.8087C105.79 25.6482 108.667 26.1763 109.933 25.9176C111.051 25.692 111.41 24.0206 111.7 22.6789L111.718 22.5993C112.033 21.1407 111.88 20.1371 111.134 18.7671C110.329 17.2857 108.604 15.153 107.502 14.0859C106.819 13.4268 104.453 13.2408 102.711 14.3467C100.932 15.4745 100.332 18.0371 101.369 20.0649Z" fill="#263238"/>
<path d="M106.494 21.2142C106.486 21.2171 106.477 21.2199 106.467 21.2199C106.385 21.2311 106.31 21.1762 106.295 21.0947C106.294 21.0793 106.239 20.7109 106.497 20.4019C106.71 20.1494 107.061 20.0173 107.54 20.0092C107.622 20.0076 107.692 20.074 107.695 20.1593C107.697 20.2418 107.628 20.3126 107.545 20.3142C107.158 20.3206 106.884 20.4147 106.73 20.5964C106.56 20.7963 106.592 21.0477 106.593 21.0506C106.607 21.1225 106.563 21.1914 106.494 21.2142Z" fill="#263238"/>
<path d="M107.476 22.7454C106.792 22.9714 106.194 22.8592 106.179 22.8544C106.097 22.8369 106.045 22.7581 106.06 22.6766C106.077 22.5942 106.156 22.5426 106.237 22.5573C106.326 22.5758 108.437 22.9643 109.032 20.3653C109.049 20.2829 109.132 20.2333 109.214 20.2508C109.296 20.2683 109.346 20.351 109.329 20.4334C108.994 21.9083 108.188 22.5099 107.476 22.7454Z" fill="#263238"/>
<path d="M104.339 21.789C104.014 21.8964 103.771 21.8553 103.751 21.8524C103.588 21.8231 103.478 21.6645 103.506 21.4987C103.535 21.3357 103.691 21.2269 103.852 21.2533C103.89 21.2601 104.56 21.3294 105.074 20.2138C105.145 20.0625 105.323 19.994 105.474 20.0655C105.626 20.1369 105.694 20.3155 105.623 20.4668C105.231 21.3249 104.727 21.6608 104.339 21.789Z" fill="#263238"/>
<path d="M108.066 18.9472C107.77 19.0451 107.473 19.0825 107.243 19.0817C107.078 19.0822 106.94 18.9455 106.942 18.7758C106.941 18.6099 107.077 18.4722 107.244 18.4747C107.298 18.4758 108.588 18.4617 108.626 17.5067C108.631 17.3388 108.773 17.2089 108.94 17.2142C109.108 17.2195 109.238 17.3619 109.233 17.5297C109.202 18.3419 108.638 18.7582 108.066 18.9472Z" fill="#263238"/>
<path d="M102.919 20.5232C102.844 20.5479 102.762 20.5112 102.732 20.4382C102.717 20.4046 102.381 19.5893 102.745 18.8971C102.967 18.4787 103.389 18.2019 104.004 18.0783C104.085 18.0613 104.166 18.1143 104.184 18.1978C104.201 18.2784 104.151 18.3588 104.065 18.3777C103.542 18.4834 103.189 18.7057 103.013 19.0418C102.715 19.6066 103.007 20.3153 103.009 20.324C103.042 20.4027 103.007 20.4909 102.929 20.5232C102.928 20.5203 102.922 20.5222 102.919 20.5232Z" fill="#263238"/>
<path d="M105.825 17.0675C105.791 17.0789 105.753 17.0788 105.715 17.0624C105.64 17.0266 105.604 16.9393 105.639 16.8607C105.645 16.8492 106.248 15.5603 107.868 15.9386C107.951 15.9561 108 16.0388 107.983 16.1212C107.966 16.2036 107.883 16.2532 107.801 16.2357C106.419 15.9128 105.919 16.9758 105.914 16.9872C105.895 17.0284 105.863 17.0552 105.825 17.0675Z" fill="#263238"/>
<path d="M99.4358 22.9228C99.4358 22.9228 99.9466 25.1724 100.342 25.6647C100.737 26.157 103.329 27.6422 103.842 28.0188C104.356 28.3955 104.448 28.4418 104.188 30.0099C103.929 31.5781 100.964 42.1485 101.472 44.3991C101.983 46.6487 102.774 48.5693 104.948 47.3842C107.125 46.1982 106.526 39.9204 106.417 36.292C106.308 32.6637 105.943 28.0275 105.64 27.1116C105.338 26.1986 101.637 24.8949 101.232 24.7315C100.83 24.5672 100.295 23.4185 100.086 22.7877C99.8786 22.1503 99.528 22.2661 99.4358 22.9228Z" fill="#FEDEA5"/>
<path d="M104.435 47.773C103.935 47.9383 103.487 47.933 103.097 47.7553C102.099 47.3023 101.641 45.821 101.327 44.4265C100.941 42.7173 102.491 36.4128 103.417 32.6468C103.728 31.3781 103.976 30.3757 104.04 29.9808C104.282 28.5239 104.224 28.4824 103.773 28.1492C103.592 28.0172 103.199 27.7733 102.742 27.4899C101.748 26.8729 100.507 26.1074 100.225 25.7565C99.8189 25.2517 99.3403 23.1863 99.2891 22.9541C99.2862 22.9358 99.2834 22.9176 99.2863 22.8975C99.3464 22.4814 99.5096 22.2326 99.7318 22.2103C99.8524 22.1992 100.077 22.2527 100.235 22.7308C100.487 23.4911 101.003 24.4643 101.293 24.5822C101.335 24.6006 101.414 24.6286 101.523 24.6693C104.233 25.6936 105.589 26.4498 105.789 27.0547C106.108 28.0195 106.466 32.719 106.574 36.2773C106.589 36.7386 106.609 37.2403 106.633 37.7688C106.792 41.4222 107.008 46.4243 105.025 47.5045C104.819 47.6237 104.622 47.7113 104.435 47.773ZM99.5859 22.9166C99.7331 23.5549 100.153 25.1923 100.456 25.5683C100.705 25.8788 102.024 26.6954 102.897 27.2343C103.378 27.5322 103.755 27.7655 103.928 27.8936C104.524 28.329 104.591 28.4922 104.334 30.0307C104.267 30.4361 104.018 31.4452 103.706 32.7206C102.788 36.4617 101.248 42.7211 101.618 44.3623C101.901 45.6042 102.335 47.0805 103.219 47.4785C103.672 47.6833 104.214 47.6064 104.876 47.247C106.694 46.2564 106.479 41.3627 106.325 37.7908C106.302 37.2585 106.279 36.7549 106.267 36.2926C106.151 32.4398 105.776 27.9983 105.497 27.1544C105.385 26.8146 104.584 26.156 101.411 24.9585C101.301 24.915 101.218 24.885 101.174 24.8676C100.684 24.6685 100.132 23.4104 99.9393 22.8286C99.8546 22.5723 99.7685 22.5144 99.7494 22.5144C99.7312 22.5172 99.6372 22.5994 99.5859 22.9166Z" fill="#263238"/>
<path d="M106.418 36.2879C106.408 35.9273 106.394 35.558 106.378 35.183L102.997 34.9937C102.128 38.6132 101.162 43.0312 101.473 44.395C101.984 46.6446 102.775 48.5652 104.949 47.3801C107.126 46.1941 106.528 39.9191 106.418 36.2879Z" fill="#F26F1F"/>
<path d="M104.435 47.7734C103.935 47.9386 103.487 47.9333 103.097 47.7556C102.099 47.3026 101.641 45.8214 101.327 44.4269C101.004 42.9969 102.043 38.3374 102.855 34.9576C102.873 34.8876 102.936 34.8379 103.011 34.842L106.391 35.0284C106.468 35.0315 106.531 35.0941 106.534 35.1727C106.55 35.5477 106.564 35.9199 106.575 36.2805C106.591 36.7419 106.61 37.2435 106.635 37.772C106.793 41.4255 107.009 46.4275 105.026 47.5077C104.819 47.624 104.622 47.7116 104.435 47.7734ZM103.117 35.1521C102.318 38.4927 101.315 43.0094 101.621 44.3617C101.904 45.6036 102.338 47.0799 103.222 47.4779C103.675 47.6827 104.217 47.6058 104.879 47.2464C106.697 46.2558 106.482 41.3621 106.328 37.7902C106.305 37.2579 106.282 36.7543 106.27 36.292C106.261 35.9755 106.25 35.6532 106.234 35.3262L103.117 35.1521Z" fill="#263238"/>
<path d="M102.385 37.6464C102.38 37.6704 102.376 37.6943 102.371 37.7183C102.358 37.7767 102.345 37.8323 102.332 37.8908C102.304 38.0182 102.279 38.1447 102.25 38.2693C103.076 38.1943 104.513 38.1251 106.497 38.2331C106.489 38.025 106.479 37.8236 106.471 37.625C104.624 37.5232 103.248 37.5753 102.385 37.6464Z" fill="#263238"/>
<path d="M106.129 45.5973C106.193 45.3779 106.249 45.1421 106.299 44.8958C104.391 45.5677 102.855 45.6855 101.808 45.6419C101.881 45.8608 101.959 46.0682 102.043 46.2641C103.065 46.2808 104.449 46.1462 106.129 45.5973Z" fill="#263238"/>
<path d="M101.639 41.4746C101.629 41.5321 101.62 41.5896 101.613 41.6462C101.604 41.7066 101.593 41.7708 101.585 41.8312C101.57 41.9318 101.559 42.0248 101.547 42.1217C102.716 41.8598 104.535 41.6038 106.571 41.8539C106.575 41.6516 106.577 41.4464 106.576 41.2421C104.601 41.0037 102.843 41.2205 101.639 41.4746Z" fill="#263238"/>
<path d="M110.833 13.6576C110.833 13.6576 113.037 14.3284 113.498 14.7576C113.959 15.1897 115.251 17.8839 115.589 18.424C115.927 18.964 115.968 19.0591 117.549 18.9136C119.129 18.7653 129.868 16.5576 132.07 17.2293C134.274 17.9 136.13 18.8267 134.793 20.9169C133.457 23.0071 127.249 21.9629 123.643 21.5926C120.036 21.2224 115.446 20.5286 114.557 20.1613C113.667 19.794 112.634 16.0016 112.5 15.5887C112.367 15.1759 111.261 14.5576 110.645 14.3044C110.034 14.0492 110.176 13.7054 110.833 13.6576Z" fill="#FEDEA5"/>
<path d="M133.521 21.9592C131.458 22.6412 127.891 22.2288 125.114 21.9072C124.587 21.848 124.09 21.7889 123.631 21.7423C120.095 21.3809 115.44 20.686 114.503 20.2993C113.916 20.0558 113.256 18.6477 112.432 15.8658C112.399 15.7554 112.375 15.6738 112.361 15.6306C112.265 15.3301 111.331 14.744 110.593 14.4386C110.128 14.2472 110.09 14.0169 110.109 13.899C110.143 13.6766 110.405 13.5327 110.822 13.5033C110.842 13.5034 110.861 13.5035 110.879 13.5102C111.109 13.5781 113.129 14.2041 113.603 14.6449C113.935 14.9538 114.607 16.2459 115.151 17.2834C115.4 17.757 115.613 18.1691 115.721 18.3411C116.031 18.836 116.067 18.8975 117.536 18.7603C117.934 18.7213 118.951 18.5481 120.236 18.3278C124.052 17.6707 130.44 16.572 132.116 17.0819C133.478 17.4977 134.922 18.0586 135.304 19.0888C135.509 19.6409 135.38 20.284 134.924 20.997C134.638 21.443 134.15 21.7512 133.521 21.9592ZM110.558 13.8592C110.446 13.8963 110.409 13.9403 110.406 13.9508C110.405 13.9671 110.458 14.0584 110.705 14.1618C111.27 14.3938 112.483 15.0374 112.646 15.5395C112.66 15.5827 112.685 15.6671 112.719 15.7804C113.687 19.0356 114.286 19.8824 114.615 20.0197C115.434 20.3589 119.829 21.0501 123.659 21.4394C124.117 21.4859 124.618 21.5441 125.145 21.6062C128.691 22.0156 133.549 22.576 134.666 20.8332C135.074 20.1967 135.187 19.661 135.017 19.1934C134.68 18.2822 133.243 17.7415 132.027 17.3731C130.422 16.8846 124.079 17.9748 120.287 18.6272C118.994 18.8503 117.974 19.0245 117.563 19.0644C116.011 19.2099 115.854 19.1308 115.475 18.5244C115.348 18.3236 115.144 17.9278 114.88 17.4273C114.404 16.5176 113.688 15.141 113.394 14.8705C113.04 14.5405 111.44 14.0021 110.816 13.8121C110.704 13.8204 110.621 13.8383 110.558 13.8592Z" fill="#263238"/>
<path d="M123.645 21.5914C123.289 21.5557 122.918 21.5152 122.547 21.4718L122.602 18.0799C126.268 17.4722 130.739 16.822 132.072 17.2281C134.276 17.8988 136.132 18.8255 134.795 20.9157C133.459 23.0059 127.251 21.9617 123.645 21.5914Z" fill="#F26F1F"/>
<path d="M133.521 21.9596C131.458 22.6416 127.891 22.2292 125.114 21.9076C124.587 21.8484 124.09 21.7893 123.631 21.7427C123.271 21.7051 122.905 21.6665 122.531 21.6241C122.454 21.6143 122.394 21.5479 122.397 21.4702L122.452 18.0783C122.453 18.0045 122.503 17.9432 122.579 17.931C126.002 17.3618 130.716 16.6568 132.119 17.0813C133.48 17.4971 134.925 18.058 135.307 19.0883C135.512 19.6404 135.383 20.2835 134.927 20.9965C134.638 21.4434 134.147 21.7526 133.521 21.9596ZM123.66 21.4426C124.118 21.4892 124.619 21.5474 125.146 21.6095C128.692 22.0189 133.55 22.5793 134.667 20.8365C135.075 20.2 135.188 19.6643 135.018 19.1967C134.681 18.2855 133.244 17.7448 132.028 17.3764C130.703 16.9742 126.134 17.6538 122.751 18.2126L122.701 21.3408C123.025 21.3744 123.346 21.409 123.66 21.4426Z" fill="#263238"/>
<path d="M129.156 22.14C129.36 22.1522 129.56 22.1596 129.761 22.1669L130.035 17.1243C129.903 17.1296 129.769 17.1388 129.629 17.1498C129.602 17.1526 129.57 17.1535 129.542 17.1563C129.505 17.159 129.465 17.1627 129.427 17.1655L129.156 22.14Z" fill="#263238"/>
<path d="M126.416 17.4963C126.364 17.5038 126.31 17.5123 126.257 17.5169C126.117 17.5376 125.977 17.5553 125.837 17.576L125.558 21.8054C125.713 21.8212 125.869 21.8399 126.025 21.8587C126.068 21.8636 126.114 21.8676 126.161 21.8744L126.45 17.4917C126.438 17.4954 126.429 17.4954 126.416 17.4963Z" fill="#263238"/>
<path d="M133.197 17.6162C133.1 18.6229 132.913 20.4511 132.694 22.0156C132.916 21.9741 133.13 21.9258 133.327 21.867C133.522 20.4416 133.685 18.8607 133.78 17.8741C133.596 17.7815 133.399 17.6964 133.197 17.6162Z" fill="#263238"/>
<path d="M169.173 61.7655C169.843 61.8636 170.513 62.281 170.513 62.281C170.513 62.281 170.486 63.0664 169.335 64.7822C170.703 65.4675 171.972 66.2235 172.347 66.0453C173.083 65.6967 174.047 61.5444 174.399 60.3611C174.751 59.1807 175.716 58.1845 175.37 56.4907C175.023 54.794 174.032 55.0162 173.808 55.6235C173.585 56.2308 171.757 58.5793 170.64 59.3765C169.523 60.1708 168.664 60.873 168.664 60.873C168.664 60.873 168.503 61.6675 169.173 61.7655Z" fill="#F37630"/>
<path d="M172.365 66.1985C172.003 66.3182 171.285 65.9611 170.082 65.3396C169.817 65.2035 169.54 65.0587 169.261 64.9178C169.222 64.8985 169.192 64.8639 169.181 64.8226C169.171 64.7814 169.178 64.7344 169.201 64.698C170.096 63.364 170.297 62.6042 170.342 62.3626C170.146 62.2517 169.642 61.9902 169.146 61.9176C168.925 61.8853 168.758 61.7869 168.644 61.6235C168.42 61.3044 168.505 60.8578 168.512 60.8396C168.52 60.8051 168.538 60.7735 168.566 60.7515C168.574 60.7458 169.439 60.0379 170.549 59.2493C171.657 58.4617 173.45 56.1437 173.665 55.568C173.793 55.2223 174.118 54.9998 174.457 55.0249C174.693 55.0429 175.264 55.2184 175.518 56.4602C175.772 57.6991 175.362 58.5628 174.964 59.394C174.801 59.7387 174.646 60.0614 174.543 60.4053C174.477 60.6286 174.386 60.962 174.28 61.3549C173.642 63.7351 173.016 65.8937 172.41 66.1805C172.395 66.1852 172.379 66.1938 172.365 66.1985ZM169.55 64.7231C169.78 64.8389 170.004 64.9567 170.223 65.0696C171.078 65.5154 172.046 66.0162 172.278 65.9077C172.81 65.6552 173.604 62.6963 173.986 61.2763C174.094 60.8796 174.184 60.5432 174.25 60.32C174.359 59.955 174.527 59.6055 174.687 59.2684C175.064 58.4794 175.451 57.6645 175.218 56.5244C175.069 55.8037 174.775 55.3578 174.431 55.3308C174.228 55.3148 174.027 55.458 173.946 55.6764C173.717 56.2952 171.894 58.6677 170.724 59.4983C169.766 60.179 168.995 60.7951 168.804 60.9508C168.793 61.0534 168.782 61.2902 168.896 61.4507C168.962 61.544 169.059 61.598 169.193 61.6176C169.887 61.7205 170.563 62.136 170.592 62.1553C170.64 62.1842 170.666 62.2361 170.661 62.2888C170.659 62.3186 170.621 63.0914 169.55 64.7231Z" fill="#263238"/>
<path d="M174.675 55.2478C175.08 57.3023 174.668 58.1478 173.193 61.3827C172.042 63.907 171.747 65.3302 171.677 66.0051C171.981 66.0867 172.214 66.1056 172.344 66.0466C173.08 65.698 174.044 61.5456 174.396 60.3623C174.748 59.1819 175.713 58.1857 175.367 56.4919C175.218 55.7616 174.952 55.3896 174.675 55.2478Z" fill="white"/>
<path d="M172.356 66.2016C172.198 66.2538 171.967 66.2377 171.638 66.1513C171.566 66.1338 171.517 66.0636 171.528 65.9898C171.609 65.2123 171.939 63.771 173.057 61.3185L173.142 61.1337C174.542 58.0674 174.917 57.2438 174.528 55.2766C174.516 55.22 174.541 55.1606 174.587 55.1262C174.633 55.0918 174.695 55.0872 174.748 55.1143C174.999 55.2455 175.338 55.587 175.518 56.4603C175.772 57.6993 175.362 58.563 174.964 59.3941C174.801 59.7389 174.646 60.0616 174.543 60.4055C174.477 60.6288 174.386 60.9622 174.28 61.3551C173.642 63.7352 173.017 65.8939 172.41 66.1806C172.394 66.1892 172.376 66.1949 172.356 66.2016ZM171.845 65.8882C172.137 65.9515 172.246 65.925 172.278 65.9078C172.81 65.6554 173.605 62.6965 173.986 61.2764C174.094 60.8798 174.184 60.5434 174.25 60.3202C174.359 59.9551 174.528 59.6056 174.687 59.2686C175.064 58.4795 175.451 57.6647 175.218 56.5246C175.134 56.1177 175.017 55.8497 174.903 55.6767C175.161 57.4412 174.704 58.4419 173.415 61.2641L173.329 61.4489C172.248 63.819 171.933 65.2105 171.845 65.8882Z" fill="#263238"/>
<path d="M125.792 52.4224C125.749 52.4366 125.697 52.4317 125.657 52.3999C125.591 52.3517 125.574 52.2548 125.622 52.1878C125.622 52.1878 125.861 51.8568 126.255 51.3143C126.303 51.2473 126.4 51.2313 126.468 51.2824C126.534 51.3305 126.551 51.4274 126.5 51.4954C126.104 52.035 125.87 52.368 125.87 52.368C125.847 52.3948 125.821 52.4129 125.792 52.4224Z" fill="white"/>
<path d="M124.885 53.2946C124.885 53.2946 131.957 42.8649 138.445 37.7367C144.934 32.6114 148.025 33.6121 148.405 36.3619C148.781 39.1126 148.191 48.5725 147.128 54.0355C146.065 59.4986 144.165 68.538 144.165 68.538C144.165 68.538 150.316 73 150.921 73.5477C151.525 74.0924 148.782 75.1078 147.41 74.8138C146.319 74.5801 146.372 74.6839 143.965 74.0355C139.885 72.9367 139.407 72.1363 139.629 71.2097C140.347 68.2409 141.514 65.5709 141.275 62.3564C140.837 56.5174 141.022 48.7057 141.554 49.3797C141.554 49.3797 139.342 53.9443 134.838 57.3497C130.332 60.7561 126.876 61.4028 123.63 59.1406" fill="#73B4EA"/>
<path d="M149.801 74.691C148.994 74.9579 148.007 75.0985 147.374 74.9661C147.055 74.8989 146.835 74.8598 146.622 74.8217C146.111 74.7318 145.626 74.6459 143.922 74.1868C139.863 73.0939 139.22 72.2555 139.479 71.1794C139.662 70.4194 139.877 69.6711 140.088 68.9497C140.711 66.7852 141.299 64.7444 141.121 62.375C140.851 58.7394 140.779 53.1596 141.051 50.5874C140.092 52.1724 138.05 55.1158 134.925 57.4775C130.294 60.9793 126.781 61.53 123.536 59.2706C123.466 59.2234 123.451 59.1294 123.498 59.0595C123.545 58.9897 123.641 58.9737 123.708 59.0218C126.827 61.1954 130.231 60.6454 134.74 57.2352C138.331 54.5212 140.471 51.0314 141.162 49.7869C141.23 49.4515 141.312 49.2456 141.411 49.2094C141.446 49.198 141.562 49.1629 141.666 49.2946C141.703 49.3398 141.708 49.4022 141.684 49.4549C141.68 49.4625 141.589 49.6492 141.41 49.9671C141.143 51.6685 141.041 57.3283 141.418 62.3568C141.6 64.7789 141.003 66.8485 140.375 69.0369C140.166 69.7574 139.954 70.5019 139.772 71.2551C139.6 71.97 139.783 72.7627 143.999 73.8964C145.689 74.3536 146.166 74.4357 146.671 74.5275C146.887 74.5646 147.111 74.6056 147.437 74.6738C148.578 74.9162 150.605 74.2304 150.839 73.7698C150.86 73.7277 150.859 73.7056 150.818 73.6681C150.227 73.1349 144.137 68.7133 144.075 68.67C144.026 68.6353 144.003 68.5758 144.015 68.5173C144.034 68.4282 145.926 59.4165 146.978 54.0148C148.053 48.4904 148.626 39.1034 148.254 36.3891C148.122 35.4201 147.651 34.7453 146.897 34.4417C145.903 34.0386 143.495 33.9494 138.538 37.8626C132.143 42.9152 125.081 53.2807 125.01 53.3841C124.963 53.4539 124.87 53.4718 124.801 53.4246C124.731 53.3774 124.713 53.2843 124.76 53.2145C124.831 53.1111 131.92 42.7045 138.351 37.6241C142.112 34.6527 145.186 33.4225 147.007 34.1592C147.868 34.5072 148.402 35.2637 148.553 36.3479C148.928 39.0833 148.353 48.5221 147.273 54.0704C146.282 59.1712 144.537 67.4919 144.331 68.48C145.086 69.0262 150.445 72.9255 151.02 73.4414C151.162 73.5704 151.195 73.7383 151.11 73.9069C150.96 74.1931 150.436 74.4811 149.801 74.691Z" fill="#73B4EA"/>
<path d="M127.381 50.2549C127.335 50.2701 127.284 50.2613 127.243 50.2334C127.175 50.1823 127.163 50.0874 127.211 50.0204C128.695 48.0381 130.803 45.3222 132.434 43.6491C132.49 43.5889 132.589 43.5882 132.646 43.646C132.707 43.7056 132.707 43.8015 132.65 43.8589C131.031 45.5214 128.932 48.2249 127.453 50.2024C127.435 50.2273 127.41 50.2454 127.381 50.2549Z" fill="white"/>
<path d="M139.003 53.168C138.963 53.1813 138.917 53.1773 138.876 53.1522C138.805 53.1089 138.783 53.0138 138.826 52.9421L140.603 50.0515C140.575 49.4472 140.381 43.3616 143.056 39.2761C143.103 39.2062 143.195 39.1854 143.265 39.2326C143.335 39.2799 143.356 39.372 143.309 39.4419C140.561 43.6374 140.903 50.016 140.908 50.0784C140.909 50.11 140.903 50.1407 140.886 50.1656L139.087 53.0954C139.065 53.1346 139.037 53.1566 139.003 53.168Z" fill="white"/>
<path d="M148.069 47.98C148.052 47.9857 148.031 47.9894 148.011 47.9865C147.926 47.9824 147.864 47.9103 147.868 47.8259L147.959 46.3358C147.963 46.2515 148.035 46.1894 148.119 46.1935C148.204 46.1976 148.266 46.2697 148.262 46.3541L148.171 47.8441C148.17 47.9084 148.127 47.961 148.069 47.98Z" fill="white"/>
<path d="M148.24 45.1789C148.223 45.1846 148.202 45.1884 148.182 45.1854C148.097 45.1813 148.035 45.1092 148.039 45.0248L148.366 39.6294C148.37 39.5451 148.442 39.4829 148.526 39.4871C148.611 39.4912 148.673 39.5633 148.669 39.6477L148.342 45.0431C148.338 45.1083 148.297 45.1599 148.24 45.1789Z" fill="white"/>
<path d="M147.405 74.8186C148.776 75.1098 151.523 74.0963 150.917 73.5525C150.313 73.0077 144.161 68.5428 144.161 68.5428C144.161 68.5428 144.664 66.1498 145.298 63.081C143.368 63.4536 142.068 63.0111 141.277 62.5185C141.468 65.6628 140.333 68.2936 139.625 71.2145C139.402 72.1411 139.88 72.9415 143.96 74.0403C146.367 74.6887 146.314 74.5849 147.405 74.8186Z" fill="#FEDEA5"/>
<path d="M149.801 74.6911C148.994 74.958 148.007 75.0986 147.374 74.9662C147.055 74.899 146.835 74.8599 146.622 74.8218C146.111 74.7319 145.626 74.646 143.922 74.1869C139.863 73.094 139.22 72.2556 139.479 71.1795C139.663 70.4224 139.876 69.6779 140.084 68.9574C140.694 66.839 141.269 64.8374 141.128 62.5295C141.125 62.4729 141.152 62.4193 141.203 62.3898C141.251 62.3611 141.311 62.3604 141.36 62.3922C142.086 62.8453 143.354 63.3049 145.271 62.9332C145.322 62.9228 145.372 62.9383 145.406 62.9749C145.441 63.0114 145.458 63.0633 145.445 63.1121C144.887 65.8205 144.428 68.0009 144.33 68.4772C145.085 69.0234 150.444 72.9228 151.019 73.4387C151.161 73.5676 151.194 73.7356 151.109 73.9041C150.96 74.1932 150.436 74.4812 149.801 74.6911ZM141.443 62.7895C141.527 65.03 140.967 66.9818 140.376 69.0399C140.169 69.7566 139.956 70.501 139.774 71.2514C139.602 71.9663 139.785 72.759 144 73.8927C145.691 74.3499 146.168 74.4319 146.673 74.5237C146.889 74.5609 147.113 74.6019 147.439 74.67C148.58 74.9125 150.607 74.2266 150.841 73.7661C150.862 73.7239 150.861 73.7019 150.82 73.6643C150.229 73.1311 144.139 68.7096 144.077 68.6663C144.028 68.6316 144.005 68.572 144.017 68.5136C144.017 68.5136 144.497 66.2336 145.106 63.2722C143.406 63.5496 142.206 63.1986 141.443 62.7895Z" fill="#263238"/>
<path d="M144.161 68.5429C144.161 68.5429 143.684 68.3812 143.458 69.3088C143.232 70.2364 143.198 71.0975 143.198 71.0975L140.141 69.3029C139.96 69.9315 139.78 70.5658 139.625 71.2145C139.402 72.1412 139.88 72.9416 143.96 74.0404C146.368 74.6887 146.314 74.585 147.405 74.8187C148.776 75.1098 151.524 74.0963 150.917 73.5525C150.312 73.0049 144.161 68.5429 144.161 68.5429Z" fill="#F37630"/>
<path d="M149.801 74.6909C148.994 74.9578 148.008 75.0985 147.374 74.966C147.055 74.8988 146.835 74.8598 146.622 74.8217C146.111 74.7318 145.627 74.6459 143.922 74.1867C139.864 73.0938 139.22 72.2555 139.479 71.1793C139.643 70.5056 139.832 69.8359 139.996 69.261C140.01 69.215 140.042 69.1787 140.084 69.1615C140.129 69.1435 140.175 69.1475 140.218 69.1716L143.065 70.8408C143.092 70.5158 143.156 69.9099 143.311 69.2707C143.413 68.8539 143.58 68.5782 143.809 68.4514C144.014 68.3389 144.191 68.3922 144.209 68.399C144.223 68.4038 144.239 68.4115 144.251 68.4202C144.503 68.6023 150.416 72.8938 151.02 73.4385C151.161 73.5675 151.194 73.7354 151.11 73.9039C150.96 74.1931 150.436 74.481 149.801 74.6909ZM140.232 69.5312C140.082 70.0601 139.914 70.6523 139.77 71.2493C139.599 71.9642 139.781 72.7569 143.997 73.8906C145.687 74.3478 146.164 74.4299 146.669 74.5217C146.886 74.5588 147.11 74.5998 147.435 74.668C148.577 74.9104 150.604 74.2245 150.837 73.764C150.858 73.7219 150.857 73.6998 150.816 73.6623C150.244 73.1454 144.539 69.0023 144.098 68.6815C144.072 68.6776 144.012 68.6813 143.945 68.7194C143.844 68.7785 143.701 68.9344 143.602 69.3407C143.383 70.2405 143.349 71.092 143.348 71.0987C143.346 71.1505 143.314 71.1993 143.269 71.227C143.223 71.2518 143.166 71.2516 143.119 71.2256L140.232 69.5312Z" fill="#F37630"/>
<path d="M143.962 74.0403C146.369 74.6886 146.316 74.5849 147.406 74.8186C148.641 75.0815 150.986 74.2873 151.005 73.7282C146.567 74.9396 141.801 72.6523 139.599 71.364C139.464 72.2267 140.102 72.9998 143.962 74.0403Z" fill="white"/>
<path d="M149.778 74.7049C148.993 74.9642 148.034 75.1088 147.374 74.9657C147.056 74.8985 146.836 74.8594 146.622 74.8213C146.111 74.7314 145.627 74.6455 143.923 74.1864C139.996 73.1265 139.3 72.312 139.447 71.34C139.456 71.2892 139.486 71.2471 139.531 71.2261C139.577 71.2042 139.629 71.2063 139.673 71.2333C142.036 72.6152 146.643 74.76 150.962 73.5818C151.009 73.5695 151.057 73.5793 151.095 73.6081C151.133 73.637 151.155 73.6841 151.152 73.733C151.147 73.8816 151.05 74.0319 150.865 74.1761C150.62 74.369 150.226 74.5567 149.778 74.7049ZM139.733 71.6161C139.761 72.2041 140.376 72.9177 144.001 73.8922C145.692 74.3494 146.168 74.4315 146.674 74.5232C146.89 74.5604 147.114 74.6014 147.439 74.6695C148.351 74.8633 149.968 74.4504 150.627 73.9768C146.45 74.9167 142.111 72.977 139.733 71.6161Z" fill="#263238"/>
</g>
<path d="M16.242 101V88.148H23.172C24.3 88.148 25.218 88.496 25.926 89.192C26.598 89.864 26.934 90.698 26.934 91.694C26.934 93.29 26.256 94.364 24.9 94.916V94.952C26.028 95.24 26.652 96.242 26.772 97.958C26.808 98.474 26.844 98.99 26.88 99.506C26.952 100.202 27.096 100.7 27.312 101H24.486C24.354 100.676 24.252 100.19 24.18 99.542C24.132 99.002 24.084 98.462 24.036 97.922C23.94 97.226 23.73 96.728 23.406 96.428C23.094 96.128 22.59 95.978 21.894 95.978H19.068V101H16.242ZM19.068 90.344V93.962H22.164C23.46 93.962 24.108 93.35 24.108 92.126C24.108 90.938 23.46 90.344 22.164 90.344H19.068ZM37.7822 96.968H31.0682C31.1402 98.54 31.9022 99.326 33.3542 99.326C33.8462 99.326 34.2902 99.194 34.6862 98.93C35.0582 98.702 35.2862 98.432 35.3702 98.12H37.6202C36.9362 100.208 35.4842 101.252 33.2642 101.252C31.8122 101.252 30.6542 100.802 29.7902 99.902C28.9382 98.99 28.5122 97.808 28.5122 96.356C28.5122 94.94 28.9502 93.77 29.8262 92.846C30.7142 91.91 31.8602 91.442 33.2642 91.442C34.7762 91.442 35.9462 92.006 36.7742 93.134C37.5422 94.166 37.8782 95.444 37.7822 96.968ZM31.0682 95.348H35.2262C34.9862 94.028 34.3082 93.368 33.1922 93.368C32.4722 93.368 31.9202 93.608 31.5362 94.088C31.2482 94.448 31.0922 94.868 31.0682 95.348ZM39.3702 101V88.148H41.9262V101H39.3702ZM49.7348 97.4V96.446C49.5308 96.626 49.0868 96.764 48.4028 96.86C47.6228 96.98 47.1068 97.094 46.8548 97.202C46.3508 97.43 46.0988 97.814 46.0988 98.354C46.0988 99.146 46.6208 99.542 47.6648 99.542C49.0448 99.542 49.7348 98.828 49.7348 97.4ZM46.3868 94.556H43.8308C43.9028 93.452 44.3888 92.636 45.2888 92.108C46.0328 91.664 47.0048 91.442 48.2048 91.442C50.9288 91.442 52.2908 92.324 52.2908 94.088V98.93C52.2908 99.962 52.3988 100.652 52.6148 101H50.0228C49.9148 100.664 49.8548 100.364 49.8428 100.1C49.1108 100.868 48.0668 101.252 46.7108 101.252C45.7748 101.252 45.0248 101.024 44.4608 100.568C43.8488 100.076 43.5428 99.374 43.5428 98.462C43.5428 97.514 43.8728 96.806 44.5328 96.338C45.0128 96.014 45.7388 95.78 46.7108 95.636C48.0908 95.444 48.7928 95.342 48.8168 95.33C49.4288 95.174 49.7348 94.868 49.7348 94.412C49.7348 93.908 49.5668 93.56 49.2308 93.368C48.9908 93.224 48.6068 93.152 48.0788 93.152C47.0348 93.152 46.4708 93.62 46.3868 94.556ZM53.3027 101L56.6507 96.104L53.5907 91.694H56.5067L58.1447 94.124L59.7647 91.694H62.5907L59.5307 96.05L62.9687 101H60.0527L58.1087 98.066L56.1647 101H53.3027ZM69.7387 97.4V96.446C69.5347 96.626 69.0907 96.764 68.4067 96.86C67.6267 96.98 67.1107 97.094 66.8587 97.202C66.3547 97.43 66.1027 97.814 66.1027 98.354C66.1027 99.146 66.6247 99.542 67.6687 99.542C69.0487 99.542 69.7387 98.828 69.7387 97.4ZM66.3907 94.556H63.8347C63.9067 93.452 64.3927 92.636 65.2927 92.108C66.0367 91.664 67.0087 91.442 68.2087 91.442C70.9327 91.442 72.2947 92.324 72.2947 94.088V98.93C72.2947 99.962 72.4027 100.652 72.6187 101H70.0267C69.9187 100.664 69.8587 100.364 69.8467 100.1C69.1147 100.868 68.0707 101.252 66.7147 101.252C65.7787 101.252 65.0287 101.024 64.4647 100.568C63.8527 100.076 63.5467 99.374 63.5467 98.462C63.5467 97.514 63.8767 96.806 64.5367 96.338C65.0167 96.014 65.7427 95.78 66.7147 95.636C68.0947 95.444 68.7967 95.342 68.8207 95.33C69.4327 95.174 69.7387 94.868 69.7387 94.412C69.7387 93.908 69.5707 93.56 69.2347 93.368C68.9947 93.224 68.6107 93.152 68.0827 93.152C67.0387 93.152 66.4747 93.62 66.3907 94.556ZM77.5186 88.904V91.694H79.3906V93.404H77.5186V98.012C77.5186 98.444 77.5906 98.732 77.7346 98.876C77.8786 99.02 78.1666 99.092 78.5986 99.092C78.8866 99.092 79.1506 99.068 79.3906 99.02V101.018C79.0306 101.078 78.5326 101.108 77.8966 101.108C75.9406 101.108 74.9626 100.37 74.9626 98.894V93.404H73.4146V91.694H74.9626V88.904H77.5186ZM80.6788 101V91.694H83.2348V101H80.6788ZM83.2348 88.148V90.254H80.6788V88.148H83.2348ZM84.9594 96.356C84.9594 94.868 85.3974 93.68 86.2734 92.792C87.1494 91.892 88.3134 91.442 89.7654 91.442C91.2294 91.442 92.3994 91.892 93.2754 92.792C94.1514 93.68 94.5894 94.868 94.5894 96.356C94.5894 97.832 94.1514 99.02 93.2754 99.92C92.3994 100.808 91.2294 101.252 89.7654 101.252C88.3134 101.252 87.1494 100.808 86.2734 99.92C85.3974 99.02 84.9594 97.832 84.9594 96.356ZM87.5154 96.356C87.5154 97.208 87.6774 97.886 88.0014 98.39C88.3854 99.014 88.9734 99.326 89.7654 99.326C91.2774 99.326 92.0334 98.336 92.0334 96.356C92.0334 94.364 91.2774 93.368 89.7654 93.368C88.2654 93.368 87.5154 94.364 87.5154 96.356ZM96.2513 101V91.694H98.6813V92.99H98.7353C99.3713 91.958 100.319 91.442 101.579 91.442C102.863 91.442 103.769 91.79 104.297 92.486C104.753 93.086 104.981 94.016 104.981 95.276V101H102.425V95.744C102.425 94.22 101.879 93.458 100.787 93.458C100.091 93.458 99.5873 93.668 99.2753 94.088C98.9633 94.508 98.8073 95.186 98.8073 96.122V101H96.2513Z" fill="#3F414E"/>
<path d="M15.814 124V116.146H17.75L19.917 122.295H19.939L22.051 116.146H23.965V124H22.656V117.939H22.634L20.456 124H19.323L17.145 117.939H17.123V124H15.814ZM26.0734 121.173V116.146H27.4484V120.722C27.4484 121.433 27.5327 121.943 27.7014 122.251C27.9727 122.75 28.5044 122.999 29.2964 122.999C30.0884 122.999 30.6201 122.75 30.8914 122.251C31.0601 121.943 31.1444 121.433 31.1444 120.722V116.146H32.5194V121.173C32.5194 122.156 32.2261 122.911 31.6394 123.439C31.0747 123.938 30.2937 124.187 29.2964 124.187C28.2991 124.187 27.5217 123.938 26.9644 123.439C26.3704 122.911 26.0734 122.156 26.0734 121.173ZM34.1769 121.382H35.5519C35.5519 121.954 35.7462 122.387 36.1349 122.68C36.4795 122.937 36.9489 123.065 37.5429 123.065C38.1075 123.065 38.5365 122.94 38.8299 122.691C39.0792 122.478 39.2039 122.207 39.2039 121.877C39.2039 121.393 38.9875 121.07 38.5549 120.909C38.4962 120.887 37.7152 120.671 36.2119 120.26C35.0532 119.945 34.4739 119.281 34.4739 118.269C34.4739 117.528 34.7745 116.945 35.3759 116.52C35.9112 116.146 36.5675 115.959 37.3449 115.959C38.2029 115.959 38.9105 116.172 39.4679 116.597C40.0619 117.059 40.3589 117.682 40.3589 118.467H38.9839C38.9252 117.543 38.3605 117.081 37.2899 117.081C36.9085 117.081 36.5895 117.151 36.3329 117.29C36.0102 117.473 35.8489 117.745 35.8489 118.104C35.8489 118.61 36.1605 118.947 36.7839 119.116C37.4072 119.277 38.1625 119.479 39.0499 119.721C39.5412 119.868 39.9262 120.139 40.2049 120.535C40.4542 120.894 40.5789 121.29 40.5789 121.723C40.5789 122.544 40.2525 123.175 39.5999 123.615C39.0352 123.996 38.3202 124.187 37.4549 124.187C36.5015 124.187 35.7352 123.963 35.1559 123.516C34.5179 123.025 34.1915 122.313 34.1769 121.382ZM42.3327 124V116.146H43.7077V124H42.3327ZM52.6212 118.643H51.2462C50.9822 117.602 50.3295 117.081 49.2882 117.081C48.5035 117.081 47.8949 117.393 47.4622 118.016C47.0882 118.559 46.9012 119.244 46.9012 120.073C46.9012 120.902 47.0882 121.587 47.4622 122.13C47.8949 122.753 48.5035 123.065 49.2882 123.065C49.8749 123.065 50.3479 122.863 50.7072 122.46C51.0372 122.093 51.2315 121.609 51.2902 121.008H52.6322C52.5735 121.954 52.2362 122.72 51.6202 123.307C51.0115 123.894 50.2342 124.187 49.2882 124.187C48.1442 124.187 47.2239 123.78 46.5272 122.966C45.8599 122.196 45.5262 121.232 45.5262 120.073C45.5262 118.907 45.8599 117.939 46.5272 117.169C47.2239 116.362 48.1442 115.959 49.2882 115.959C50.1902 115.959 50.9455 116.194 51.5542 116.663C52.1849 117.154 52.5405 117.814 52.6212 118.643Z" fill="#524F53"/>
<rect x="92" y="160" width="70" height="35" rx="17.5" fill="#3F414E"/>
<path d="M107.396 179.144H108.896C108.896 179.768 109.108 180.24 109.532 180.56C109.908 180.84 110.42 180.98 111.068 180.98C111.684 180.98 112.152 180.844 112.472 180.572C112.744 180.34 112.88 180.044 112.88 179.684C112.88 179.156 112.644 178.804 112.172 178.628C112.108 178.604 111.256 178.368 109.616 177.92C108.352 177.576 107.72 176.852 107.72 175.748C107.72 174.94 108.048 174.304 108.704 173.84C109.288 173.432 110.004 173.228 110.852 173.228C111.788 173.228 112.56 173.46 113.168 173.924C113.816 174.428 114.14 175.108 114.14 175.964H112.64C112.576 174.956 111.96 174.452 110.792 174.452C110.376 174.452 110.028 174.528 109.748 174.68C109.396 174.88 109.22 175.176 109.22 175.568C109.22 176.12 109.56 176.488 110.24 176.672C110.92 176.848 111.744 177.068 112.712 177.332C113.248 177.492 113.668 177.788 113.972 178.22C114.244 178.612 114.38 179.044 114.38 179.516C114.38 180.412 114.024 181.1 113.312 181.58C112.696 181.996 111.916 182.204 110.972 182.204C109.932 182.204 109.096 181.96 108.464 181.472C107.768 180.936 107.412 180.16 107.396 179.144ZM115.477 174.728V173.432H122.413V174.728H119.689V182H118.189V174.728H115.477ZM127.067 174.908L125.771 178.592H128.387L127.103 174.908H127.067ZM123.011 182L126.299 173.432H127.895L131.195 182H129.587L128.783 179.732H125.363L124.559 182H123.011ZM134.11 174.656V177.332H136.57C137.546 177.332 138.034 176.876 138.034 175.964C138.034 175.092 137.538 174.656 136.546 174.656H134.11ZM132.61 182V173.432H136.702C137.63 173.432 138.334 173.636 138.814 174.044C139.294 174.444 139.534 175.012 139.534 175.748C139.534 176.86 139.062 177.58 138.118 177.908V177.932C138.966 178.052 139.39 178.656 139.39 179.744C139.39 180.912 139.546 181.664 139.858 182H138.25C138.098 181.752 138.022 181.332 138.022 180.74C138.022 179.916 137.91 179.34 137.686 179.012C137.438 178.652 136.982 178.472 136.318 178.472H134.11V182H132.61ZM140.844 174.728V173.432H147.78V174.728H145.056V182H143.556V174.728H140.844Z" fill="#FEFFFE"/>
<path d="M17.508 178.425V177.49C17.9847 177.512 18.3733 177.431 18.674 177.248C19.0333 177.043 19.213 176.72 19.213 176.28C19.213 175.957 19.0993 175.697 18.872 175.499C18.652 175.294 18.366 175.191 18.014 175.191C17.6033 175.191 17.2843 175.349 17.057 175.664C16.8297 175.972 16.7233 176.339 16.738 176.764H15.484C15.5207 175.994 15.759 175.371 16.199 174.894C16.6683 174.395 17.2807 174.146 18.036 174.146C18.6887 174.146 19.2423 174.318 19.697 174.663C20.2103 175.044 20.467 175.558 20.467 176.203C20.467 177.046 20.104 177.596 19.378 177.853V177.875C19.8107 177.963 20.1517 178.183 20.401 178.535C20.6503 178.88 20.775 179.301 20.775 179.8C20.775 180.504 20.5037 181.076 19.961 181.516C19.4477 181.941 18.8097 182.154 18.047 182.154C17.1817 182.154 16.5107 181.908 16.034 181.417C15.5867 180.948 15.3557 180.299 15.341 179.47H16.595C16.5803 179.954 16.6977 180.343 16.947 180.636C17.2037 180.951 17.5703 181.109 18.047 181.109C18.4797 181.109 18.8317 180.988 19.103 180.746C19.3817 180.497 19.521 180.159 19.521 179.734C19.521 178.803 18.85 178.366 17.508 178.425ZM22.2013 179.602V178.414H25.4023V179.602H22.2013ZM27.0707 176.566V175.576C27.6427 175.583 28.1267 175.488 28.5227 175.29C28.9627 175.063 29.2267 174.733 29.3147 174.3H30.3377V182H28.9627V176.566H27.0707ZM36.208 181.109C37.1467 181.109 37.616 180.123 37.616 178.15C37.616 176.177 37.1467 175.191 36.208 175.191C35.2693 175.191 34.8 176.177 34.8 178.15C34.8 180.123 35.2693 181.109 36.208 181.109ZM36.208 174.146C37.2053 174.146 37.924 174.593 38.364 175.488C38.7013 176.163 38.87 177.05 38.87 178.15C38.87 179.25 38.7013 180.137 38.364 180.812C37.924 181.707 37.2053 182.154 36.208 182.154C35.2107 182.154 34.492 181.707 34.052 180.812C33.7147 180.137 33.546 179.25 33.546 178.15C33.546 177.05 33.7147 176.163 34.052 175.488C34.492 174.593 35.2107 174.146 36.208 174.146ZM44.2378 182V174.146H46.1738L48.3408 180.295H48.3628L50.4748 174.146H52.3888V182H51.0798V175.939H51.0578L48.8798 182H47.7468L45.5688 175.939H45.5468V182H44.2378ZM54.5852 182V174.146H55.9602V182H54.5852ZM58.1417 182V174.146H59.5937L63.1797 179.932H63.2017V174.146H64.5107V182H63.0587L59.4837 176.225H59.4507V182H58.1417Z" fill="#524F53"/>
</svg>
