<svg width="179" height="95" viewBox="0 0 179 95" fill="none" xmlns="http://www.w3.org/2000/svg">
<rect width="176" height="76" rx="10" fill="#4E5567"/>
<path d="M119.324 42.5822C120.197 47.9182 73.6508 46.5303 65.4991 44.4814C60.8607 43.5109 66.2917 20.9317 63.3772 13.5676C61.6984 6.67316 114.022 8.48896 117.884 13.0563C120.858 16.5696 118.096 35.0685 119.324 42.5822Z" fill="#FBF5EB"/>
<path d="M71.8717 29.6002C72.0552 28.6784 71.8198 27.6175 71.9514 27.1061C72.249 25.9582 72.3979 25.3842 72.2213 25.2207C71.5048 24.5529 71.0064 27.5931 70.3314 27.5688C70.0614 27.4192 69.8329 26.5009 69.7429 25.8399C69.6356 25.0503 69.9368 22.7127 69.466 22.7545C69.068 22.7892 68.8014 24.4903 68.8118 25.0607C68.798 24.4659 69.0368 21.857 68.4068 22.0761C67.9465 22.2362 67.9395 25.2173 67.9499 25.6138C67.9361 25.4225 68.0434 22.5631 67.5865 22.7614C67.0603 22.9875 67.1676 25.5616 67.178 25.9547C67.1573 25.7147 67.3234 23.2623 66.7661 23.5302C66.42 23.6971 66.278 26.073 66.2884 26.4695C66.33 28.2158 67.9603 32.4283 68.2545 32.9153L70.9614 32.9709C70.9614 32.9709 71.3421 31.8474 71.4529 31.2978C71.5948 30.6055 71.8025 29.9446 71.8717 29.6002Z" fill="#FDBCA0"/>
<path d="M86.3337 50.4298C86.6625 52.9552 83.1423 61.7211 83.8934 66.0728C91.1728 67.6103 108.342 64.8518 109.678 59.067C109.785 55.1502 109.646 50.7672 109.723 48.1583C109.916 41.3404 108.663 29.6559 97.3688 33.2736C96.7907 33.1519 96.8115 32.2961 91.1174 32.6857C85.6103 33.0545 85.3437 42.8814 86.3337 50.4298Z" fill="#8E97FD"/>
<path d="M67.1952 33.0962C64.9072 44.8154 71.9927 53.5952 81.882 53.1256C95.932 52.4612 104.392 41.3682 100.55 33.6702L96.7662 33.7258C85.5546 31.757 82.872 40.1855 79.4971 39.8793C77.0707 39.6602 73.0658 37.5244 72.2419 32.5814C72.0619 31.503 67.3786 32.1605 67.1952 33.0962Z" fill="#8E97FD"/>
<path d="M93.6925 33.837C91.8164 38.3452 84.4539 40.4776 85.6342 33.8196C85.9977 31.7638 83.3116 30.1359 83.0693 28.6749C82.5189 25.3494 85.8246 24.2815 86.5515 21.2517C87.6453 16.6878 89.4557 9.11156 101.726 16.2634C105.458 18.4341 93.6925 33.837 93.6925 33.837Z" fill="#3F414E"/>
<path d="M99.7187 25.5825L99.7395 34.0215C99.3068 36.4495 93.3808 36.8078 93.6924 34.0423L93.6751 30.4177L99.7187 25.5825Z" fill="#F0A38B"/>
<path d="M89.8054 25.4573C89.7674 25.9721 89.7016 26.4417 89.7293 26.9461C89.7674 27.6035 89.9093 28.2714 90.1585 28.8976C90.8231 30.5603 92.2077 32.9222 93.9419 32.964C97.0018 33.0336 100.969 29.562 100.477 25.0781C100.048 21.1648 96.756 15.1643 95.5653 17.474C93.7169 21.0604 91.6435 19.6794 90.3212 21.8953C90.0443 22.3579 89.7881 22.9423 89.8089 24.2885C89.8158 24.7268 89.8297 25.1025 89.8054 25.4573Z" fill="#FDBCA0"/>
<path d="M96.1053 27.6662C96.0707 28.6228 96.8114 29.4263 97.7633 29.4646C98.7152 29.4994 99.5148 28.7549 99.5529 27.7983C99.5875 26.8417 98.8468 26.0382 97.8949 25.9999C96.943 25.9617 96.1434 26.7096 96.1053 27.6662Z" fill="#F4A07B"/>
<path d="M89.7293 26.9461C89.7674 27.6035 89.9162 28.2679 90.1585 28.8976C90.9443 28.7584 91.5569 28.0871 91.5881 27.2522C91.6227 26.2956 90.882 25.4921 89.9301 25.4538C89.8885 25.4538 89.847 25.4538 89.8054 25.4538C89.7674 25.9721 89.7016 26.4417 89.7293 26.9461Z" fill="#F4A07B"/>
<path d="M94.9248 25.4503C94.9248 25.4503 95.6171 26.6052 97.7459 25.2973C98.0125 25.1338 96.8321 25.499 96.1017 25.5581C95.3541 25.6138 94.7379 25.1999 94.9248 25.4503Z" fill="#002869"/>
<path d="M90.1723 24.706C90.3453 24.9912 91.8788 26.1774 92.443 25.1269C92.5918 24.852 91.9999 25.4295 91.3111 25.1756C90.605 24.9181 90.0615 24.5251 90.1723 24.706Z" fill="#002869"/>
<path d="M93.9593 28.2331C93.5059 28.254 92.8067 28.1426 92.689 27.6069C92.6371 27.3704 92.7582 27.1687 92.8655 26.9669C93.1424 26.4486 93.3882 25.9755 93.3709 25.3668C93.3674 25.2868 93.492 25.2694 93.4955 25.3494C93.5128 25.9303 93.312 26.4034 93.042 26.9078C92.8828 27.2034 92.6924 27.4643 92.9347 27.7878C93.1563 28.08 93.5993 28.1287 93.942 28.1113C94.0216 28.1079 94.0389 28.2296 93.9593 28.2331Z" fill="#F27979"/>
<path d="M95.2608 29.4645C95.3958 29.1932 93.9662 30.1498 92.4086 29.301C91.7405 28.9357 93.3432 30.9046 95.2608 29.4645Z" fill="#F27979"/>
<path fill-rule="evenodd" clip-rule="evenodd" d="M4.52637 52.0605C12.2105 44.0498 19.9509 40 37.9062 46.498C63.2632 40.9999 71.3131 50.5365 96.6855 47.2724C96.7931 47.2758 96.8933 47.2792 96.9932 47.2792C108.724 47.5169 109.729 41.9999 124.692 47.9999C125.679 48.0435 132.674 44.0005 142.647 47.4999C160.926 44.0188 167.087 47.9999 171.576 50.9999C180.554 57.9999 180.423 89.5123 174.861 91.6825C163.115 96.2743 97.094 93.443 65.4561 94.4247C64.7254 94.4488 63.9943 94.4695 63.2637 94.4902C49.9947 94.8863 37.2101 95.1027 26.7949 94.9511C25.5566 94.9339 24.3488 94.9098 23.1797 94.8788C11.7417 94.5964 3.81118 93.7836 2.33398 92.1405C1.75367 91.4943 0.739289 87.7078 0 83.7626V62.2987C0.828813 57.8973 2.16682 54.1862 3.99512 52.4872C4.16431 52.3288 4.3418 52.181 4.52637 52.0605Z" fill="#3F414E"/>
<path d="M82.6582 49.0335C84.0186 48.9848 85.3789 48.9396 86.7393 48.8909C87.307 48.87 87.3104 47.9795 86.7393 48.0004C85.3789 48.0491 84.0186 48.0943 82.6582 48.143C82.0906 48.1638 82.0871 49.0543 82.6582 49.0335Z" fill="#656B7B"/>
<path d="M77.4004 83.6172C76.2858 84.3999 75.1678 85.1825 74.0532 85.9652C73.5859 86.2922 74.067 87.0401 74.5343 86.7131C75.6489 85.9304 76.767 85.1478 77.8815 84.3651C78.3488 84.0381 77.8677 83.2902 77.4004 83.6172Z" fill="#656B7B"/>
<path d="M85.0086 54.3765C84.0221 56.0601 83.0321 57.7402 82.0456 59.4238C81.7583 59.9143 82.4748 60.4396 82.7621 59.9456C83.7486 58.262 84.7386 56.5819 85.7251 54.8983C86.0158 54.4113 85.2993 53.8825 85.0086 54.3765Z" fill="#656B7B"/>
<path d="M86.4693 78.9524C87.3935 80.2395 88.4215 81.4396 89.5569 82.5457C89.9653 82.9458 90.5919 82.3162 90.1834 81.9161C89.1034 80.8621 88.1169 79.7281 87.2343 78.5037C86.902 78.041 86.1335 78.4863 86.4693 78.9524Z" fill="#656B7B"/>
<path d="M89.3803 64.1895C89.3803 64.1895 89.3803 67.108 89.3803 68.6385C89.3803 69.2125 90.2664 69.2125 90.2664 68.6385C90.2664 67.1045 90.2664 65.6713 90.2664 64.1895C90.2664 63.5981 89.3803 63.5981 89.3803 64.1895C89.3803 64.1895 89.3803 63.5981 89.3803 64.1895Z" fill="#656B7B"/>
<path d="M68.2033 72.7188C67.0645 72.3953 65.9291 72.0718 64.7903 71.7483C64.2434 71.5918 63.9526 72.4336 64.503 72.5901C65.6418 72.9136 66.7772 73.2371 67.916 73.5606C68.4629 73.7137 68.7537 72.8754 68.2033 72.7188Z" fill="#656B7B"/>
<path d="M71.7306 52.4355C73.0771 53.253 74.3475 54.1783 75.5417 55.2079C75.9743 55.5801 76.4624 54.8357 76.0332 54.467C74.839 53.4374 73.5686 52.5155 72.2221 51.6946C71.7341 51.3989 71.2391 52.1399 71.7306 52.4355Z" fill="#656B7B"/>
<path d="M14.4784 72.9519C13.6615 72.9032 12.8446 72.858 12.0277 72.8128C12.0138 72.5206 12.0069 72.2249 12 71.9223C12.8169 71.971 13.6303 72.0162 14.4472 72.0614C15.0115 72.0962 15.0495 72.9867 14.4784 72.9519Z" fill="#656B7B"/>
<path d="M53.0803 82.4275C54.4406 82.4762 55.801 82.5214 57.1613 82.5701C57.729 82.591 57.7324 83.4815 57.1613 83.4606C55.801 83.4119 54.4406 83.3667 53.0803 83.318C52.5091 83.2971 52.5091 82.4066 53.0803 82.4275Z" fill="#656B7B"/>
<path d="M54.1083 60.7144C53.1218 59.0308 52.1319 57.3507 51.1453 55.6671C50.858 55.1766 51.5746 54.6513 51.8619 55.1453C52.8484 56.8289 53.8383 58.509 54.8249 60.1926C55.1156 60.6831 54.3991 61.2084 54.1083 60.7144Z" fill="#656B7B"/>
<path d="M41.848 89.2767C41.5192 89.3011 41.1904 89.3219 40.8615 89.3428C40.28 88.3514 39.6985 87.3635 39.117 86.3721C38.8297 85.8817 39.5462 85.3564 39.8335 85.8504C40.505 86.9948 41.1765 88.1357 41.848 89.2767Z" fill="#656B7B"/>
<path d="M63.7658 61.1284C63.7658 61.1284 63.7658 58.2099 63.7658 56.6794C63.7658 56.1054 64.6519 56.1054 64.6519 56.6794C64.6519 58.2134 64.6519 59.6466 64.6519 61.1284C64.6519 61.7232 63.7658 61.7232 63.7658 61.1284C63.7658 61.7232 63.7658 61.1284 63.7658 61.1284Z" fill="#656B7B"/>
<path d="M48.4109 64.8575C47.2721 65.181 46.1367 65.5045 44.9979 65.828C44.451 65.9845 44.1602 65.1427 44.7106 64.9862C45.8494 64.6627 46.9848 64.3392 48.1236 64.0156C48.667 63.8591 48.9578 64.7009 48.4109 64.8575Z" fill="#656B7B"/>
<path d="M45.0254 77.0879C46.3719 76.2704 47.6422 75.3451 48.8364 74.3155C49.2691 73.9433 49.7572 74.6877 49.3279 75.0564C48.1337 76.086 46.8634 77.0078 45.5169 77.8288C45.0288 78.1245 44.5338 77.387 45.0254 77.0879Z" fill="#656B7B"/>
<path d="M24.4507 89.809C23.8934 89.7916 23.35 89.7672 22.8239 89.7359C22.2181 89.2802 21.6331 88.8002 21.0654 88.2958C20.6397 87.9166 21.1935 87.2244 21.6193 87.6036C22.5192 88.3967 23.4608 89.1341 24.4507 89.809Z" fill="#656B7B"/>
<path d="M34.3331 74.9068C33.6512 76.7365 32.9693 78.5663 32.2874 80.3925C32.0901 80.9247 31.2316 80.6951 31.4324 80.1594C32.1143 78.3297 32.7962 76.5 33.4781 74.6738C33.6789 74.1415 34.5338 74.3711 34.3331 74.9068Z" fill="#656B7B"/>
<path d="M20.349 52.6616C19.051 52.2581 17.7495 51.8511 16.4514 51.4476C15.908 51.2772 16.1399 50.418 16.6833 50.5884C17.9814 50.9919 19.2829 51.3989 20.5809 51.8024C21.1244 51.9729 20.8925 52.8321 20.349 52.6616Z" fill="#656B7B"/>
<path d="M29.5874 56.7558C30.0997 58.6412 30.6155 60.5231 31.1278 62.4084C31.2766 62.9546 30.4493 63.2746 30.3005 62.7215C29.7882 60.8361 29.2724 58.9542 28.7601 57.0689C28.6078 56.5227 29.4351 56.2027 29.5874 56.7558Z" fill="#656B7B"/>
<path d="M23.0939 76.7296C21.865 77.728 20.5601 78.615 19.1755 79.3837C18.6771 79.662 18.234 78.8898 18.7359 78.6115C20.0547 77.881 21.3008 77.0462 22.4743 76.0965C22.9104 75.7382 23.5369 76.3679 23.0939 76.7296Z" fill="#656B7B"/>
<path d="M20.7192 61.9737C20.7192 61.9737 19.9577 64.7878 19.5561 66.2697C19.4073 66.8228 18.5523 66.5897 18.7012 66.0366C19.1027 64.5583 19.4765 63.1738 19.8642 61.7406C20.02 61.1667 20.8715 61.3998 20.7192 61.9737C20.8715 61.3998 20.7192 61.9737 20.7192 61.9737Z" fill="#656B7B"/>
<path d="M35.7108 70.2214C36.8911 70.2109 38.075 70.197 39.2553 70.1866C39.823 70.1796 39.8853 71.0701 39.3142 71.0736C38.1338 71.084 36.95 71.0979 35.7696 71.1084C35.202 71.1153 35.1397 70.2283 35.7108 70.2214Z" fill="#656B7B"/>
<path d="M44.6656 58.0255C43.153 58.4604 41.6853 59.0169 40.2662 59.6952C39.7504 59.9422 39.4769 59.0935 39.9858 58.85C41.405 58.1716 42.8726 57.6151 44.3853 57.1803C44.9322 57.0237 45.216 57.869 44.6656 58.0255Z" fill="#656B7B"/>
<path d="M160.658 49.0335C162.019 48.9848 163.379 48.9396 164.739 48.8909C165.307 48.87 165.31 47.9795 164.739 48.0004C163.379 48.0491 162.019 48.0943 160.658 48.143C160.091 48.1638 160.087 49.0543 160.658 49.0335Z" fill="#656B7B"/>
<path d="M155.4 83.6172C154.286 84.3999 153.168 85.1825 152.053 85.9652C151.586 86.2922 152.067 87.0401 152.534 86.7131C153.649 85.9304 154.767 85.1478 155.882 84.3651C156.349 84.0381 155.868 83.2902 155.4 83.6172Z" fill="#656B7B"/>
<path d="M163.009 54.3765C162.022 56.0601 161.032 57.7402 160.046 59.4238C159.758 59.9143 160.475 60.4396 160.762 59.9456C161.749 58.262 162.739 56.5819 163.725 54.8983C164.016 54.4113 163.299 53.8825 163.009 54.3765Z" fill="#656B7B"/>
<path d="M164.469 78.9524C165.393 80.2395 166.422 81.4396 167.557 82.5457C167.965 82.9458 168.592 82.3162 168.183 81.9161C167.103 80.8621 166.117 79.7281 165.234 78.5037C164.902 78.041 164.134 78.4863 164.469 78.9524Z" fill="#656B7B"/>
<path d="M167.38 64.1895C167.38 64.1895 167.38 67.108 167.38 68.6385C167.38 69.2125 168.266 69.2125 168.266 68.6385C168.266 67.1045 168.266 65.6713 168.266 64.1895C168.266 63.5981 167.38 63.5981 167.38 64.1895C167.38 64.1895 167.38 63.5981 167.38 64.1895Z" fill="#656B7B"/>
<path d="M146.203 72.7188C145.064 72.3953 143.929 72.0718 142.79 71.7483C142.243 71.5918 141.953 72.4336 142.503 72.5901C143.642 72.9136 144.777 73.2371 145.916 73.5606C146.463 73.7137 146.754 72.8754 146.203 72.7188Z" fill="#656B7B"/>
<path d="M149.731 52.4355C151.077 53.253 152.347 54.1783 153.542 55.2079C153.974 55.5801 154.462 54.8357 154.033 54.467C152.839 53.4374 151.569 52.5155 150.222 51.6946C149.734 51.3989 149.239 52.1399 149.731 52.4355Z" fill="#656B7B"/>
<path d="M92.4784 72.9519C91.6615 72.9032 90.8446 72.858 90.0277 72.8128C90.0138 72.5206 90.0069 72.2249 90 71.9223C90.8169 71.971 91.6303 72.0162 92.4472 72.0614C93.0115 72.0962 93.0495 72.9867 92.4784 72.9519Z" fill="#656B7B"/>
<path d="M131.08 82.4275C132.441 82.4762 133.801 82.5214 135.161 82.5701C135.729 82.591 135.732 83.4815 135.161 83.4606C133.801 83.4119 132.441 83.3667 131.08 83.318C130.509 83.2971 130.509 82.4066 131.08 82.4275Z" fill="#656B7B"/>
<path d="M132.108 60.7144C131.122 59.0308 130.132 57.3507 129.145 55.6671C128.858 55.1766 129.575 54.6513 129.862 55.1453C130.848 56.8289 131.838 58.509 132.825 60.1926C133.116 60.6831 132.399 61.2084 132.108 60.7144Z" fill="#656B7B"/>
<path d="M119.848 89.2767C119.519 89.3011 119.19 89.3219 118.862 89.3428C118.28 88.3514 117.698 87.3635 117.117 86.3721C116.83 85.8817 117.546 85.3564 117.833 85.8504C118.505 86.9948 119.177 88.1357 119.848 89.2767Z" fill="#656B7B"/>
<path d="M141.766 61.1284C141.766 61.1284 141.766 58.2099 141.766 56.6794C141.766 56.1054 142.652 56.1054 142.652 56.6794C142.652 58.2134 142.652 59.6466 142.652 61.1284C142.652 61.7232 141.766 61.7232 141.766 61.1284C141.766 61.7232 141.766 61.1284 141.766 61.1284Z" fill="#656B7B"/>
<path d="M126.411 64.8575C125.272 65.181 124.137 65.5045 122.998 65.828C122.451 65.9845 122.16 65.1427 122.711 64.9862C123.849 64.6627 124.985 64.3392 126.124 64.0156C126.667 63.8591 126.958 64.7009 126.411 64.8575Z" fill="#656B7B"/>
<path d="M123.025 77.0879C124.372 76.2704 125.642 75.3451 126.836 74.3155C127.269 73.9433 127.757 74.6877 127.328 75.0564C126.134 76.086 124.863 77.0078 123.517 77.8288C123.029 78.1245 122.534 77.387 123.025 77.0879Z" fill="#656B7B"/>
<path d="M102.451 89.809C101.893 89.7916 101.35 89.7672 100.824 89.7359C100.218 89.2802 99.6331 88.8002 99.0654 88.2958C98.6397 87.9166 99.1935 87.2244 99.6193 87.6036C100.519 88.3967 101.461 89.1341 102.451 89.809Z" fill="#656B7B"/>
<path d="M112.333 74.9068C111.651 76.7365 110.969 78.5663 110.287 80.3925C110.09 80.9247 109.232 80.6951 109.432 80.1594C110.114 78.3297 110.796 76.5 111.478 74.6738C111.679 74.1415 112.534 74.3711 112.333 74.9068Z" fill="#656B7B"/>
<path d="M98.349 52.6616C97.051 52.2581 95.7495 51.8511 94.4514 51.4476C93.908 51.2772 94.1399 50.418 94.6833 50.5884C95.9814 50.9919 97.2829 51.3989 98.5809 51.8024C99.1244 51.9729 98.8925 52.8321 98.349 52.6616Z" fill="#656B7B"/>
<path d="M107.587 56.7558C108.1 58.6412 108.615 60.5231 109.128 62.4084C109.277 62.9546 108.449 63.2746 108.3 62.7215C107.788 60.8361 107.272 58.9542 106.76 57.0689C106.608 56.5227 107.435 56.2027 107.587 56.7558Z" fill="#656B7B"/>
<path d="M101.094 76.7296C99.865 77.728 98.5601 78.615 97.1755 79.3837C96.6771 79.662 96.234 78.8898 96.7359 78.6115C98.0547 77.881 99.3008 77.0462 100.474 76.0965C100.91 75.7382 101.537 76.3679 101.094 76.7296Z" fill="#656B7B"/>
<path d="M98.7192 61.9737C98.7192 61.9737 97.9577 64.7878 97.5561 66.2697C97.4073 66.8228 96.5523 66.5897 96.7012 66.0366C97.1027 64.5583 97.4765 63.1738 97.8642 61.7406C98.02 61.1667 98.8715 61.3998 98.7192 61.9737C98.8715 61.3998 98.7192 61.9737 98.7192 61.9737Z" fill="#656B7B"/>
<path d="M113.711 70.2214C114.891 70.2109 116.075 70.197 117.255 70.1866C117.823 70.1796 117.885 71.0701 117.314 71.0736C116.134 71.084 114.95 71.0979 113.77 71.1084C113.202 71.1153 113.14 70.2283 113.711 70.2214Z" fill="#656B7B"/>
<path d="M122.666 58.0255C121.153 58.4604 119.685 59.0169 118.266 59.6952C117.75 59.9422 117.477 59.0935 117.986 58.85C119.405 58.1716 120.873 57.6151 122.385 57.1803C122.932 57.0237 123.216 57.869 122.666 58.0255Z" fill="#656B7B"/>
<path d="M113.911 82.4392C112.807 85.0898 105.918 89.2293 104.783 88.6205C102.924 87.6187 96.043 77.7466 96.6141 75.3951C97.1576 73.1584 103.7 69.1164 103.7 69.1164C103.7 69.1164 110.408 66.4031 114.16 66.337C116.223 66.2987 124.482 78.8632 123.478 81.4652C122.987 82.7279 117.033 83.521 113.911 82.4392Z" fill="white"/>
<path d="M113.741 81.6879C113.416 84.5577 105.423 89.1181 103.855 88.4954C102.935 88.1302 95.1809 77.1936 95.7486 74.8456C96.292 72.6089 106.5 67.652 106.5 67.652C106.5 67.652 112.052 66.598 115.808 66.5284C117.871 66.4901 124.209 78.4981 123.205 81.1035C122.717 82.3662 115.493 83.7855 113.741 81.6879Z" fill="white"/>
<path d="M113.582 81.2461C112.454 84.8847 104.035 88.6693 103.059 88.0119C101.477 86.9405 95.4925 77.4789 96.0602 75.1274C96.6036 72.8907 106.704 68.0555 106.704 68.0555C109.799 67.8676 112.305 66.838 116.317 66.7267C118.386 66.6675 124.911 77.7571 124.126 80.366C123.662 81.9105 114.87 82.7697 113.582 81.2461Z" fill="white"/>
<path d="M111.924 82.1644C111.924 82.1644 112.609 83.6149 114.229 82.9853C115.984 82.3035 115.794 80.526 115.794 80.526C114.215 80.6756 112.862 81.1347 111.924 82.1644Z" fill="#E8E2E3"/>
<path d="M113.232 80.3939C112.637 80.8391 112.353 81.5313 112.395 82.4879C112.613 83.3993 104.371 87.264 102.267 87.4518C100.854 87.577 94.6964 75.4787 94.9456 74.042C95.1395 72.9324 104.887 68.6051 105.344 67.725C105.344 67.725 106.801 66.6223 107.798 66.8693C108.781 67.1128 117.13 65.0883 118.113 65.0639C119.653 65.0291 125.517 76.7066 125.496 79.0616C125.486 80.0356 115.797 82.1436 115.465 81.3435C115.109 80.4773 113.232 80.3939 113.232 80.3939Z" fill="#8E97FD"/>
<path d="M104.932 67.7842L112.395 82.4845C113.146 81.5453 114.468 80.6826 115.465 81.3436L108.276 66.6989C107.909 65.9684 104.686 67.2972 104.932 67.7842Z" fill="#4E5567"/>
<path d="M103.122 84.175C105.098 83.4028 106.967 82.4322 108.643 81.1208C108.881 80.9365 109.148 81.3191 108.913 81.5069C107.203 82.8427 105.295 83.8306 103.284 84.6168C103.004 84.7281 102.841 84.2863 103.122 84.175Z" fill="#4E5567"/>
<path d="M102.526 82.2966C103.783 81.7087 105.157 81.1661 106.268 80.3173C106.507 80.133 106.777 80.5191 106.538 80.7034C105.399 81.5731 103.977 82.1366 102.689 82.7384C102.415 82.8636 102.256 82.4218 102.526 82.2966Z" fill="#4E5567"/>
<path d="M91.1658 55.4214C90.2763 55.1396 89.1963 55.2614 88.7048 55.0735C87.604 54.6526 87.0502 54.4405 86.8667 54.6005C86.1295 55.244 89.0855 56.0684 88.9851 56.7398C88.8086 56.9937 87.874 57.1259 87.2129 57.1433C86.4202 57.1641 84.1426 56.6145 84.1322 57.0911C84.1253 57.4911 85.7764 57.9399 86.3441 57.992C85.7522 57.9399 83.2011 57.425 83.3499 58.0755C83.4607 58.5521 86.4064 58.8791 86.801 58.9104C86.6106 58.9034 83.793 58.4895 83.9384 58.966C84.1045 59.5156 86.6625 59.6861 87.0537 59.7174C86.8114 59.7104 84.4057 59.2826 84.6099 59.867C84.738 60.2287 87.0744 60.6253 87.4656 60.6601C89.1963 60.8062 93.5404 59.6304 94.0527 59.3869L94.3988 56.6876C94.3988 56.6876 93.3292 56.1867 92.7962 56.0162C92.135 55.8075 91.5016 55.5258 91.1658 55.4214Z" fill="#FDBCA0"/>
<path d="M93.9729 60.3018C96.8147 60.674 109.92 67.5093 113.869 58.2147C119.394 45.2188 109.276 31.6699 100.785 32.8318L104.039 44.9823C102.744 47.1286 103.488 50.788 103.173 51.7133C102.384 54.03 103.277 55.3205 93.8102 55.1849C92.7268 55.1744 93.0314 60.1801 93.9729 60.3018Z" fill="#8E97FD"/>
<path d="M94.0524 14.5834C93.8274 13.2963 105.181 9.90129 108.559 20.7717C109.764 24.6538 118.715 24.5425 114.575 32.0213C113.267 34.3833 122.557 36.4913 114.496 42.5822C106.953 48.28 95.4301 43.2883 96.4685 39.3193C97.6177 34.9259 101.564 37.267 98.9815 31.6735C97.6696 28.828 99.2134 27.134 99.5319 26.1809C99.5942 25.9826 99.6565 25.7843 99.7188 25.5826C99.9092 24.9042 99.9888 24.2711 99.7188 23.652C98.9088 21.8014 93.3844 22.925 94.5647 18.5768C95.6793 14.4686 94.0524 14.5834 94.0524 14.5834Z" fill="#3F414E"/>
<path d="M101.27 54.8197C104.835 53.9605 102.405 46.9477 104.254 44.6693C104.357 44.5406 104.174 44.3527 104.07 44.4849C102.197 46.7912 104.399 53.797 101.201 54.5692C101.038 54.6075 101.107 54.8614 101.27 54.8197Z" fill="#5863E3"/>
<path d="M97.9536 61.6516C101.581 62.8795 106.406 64.0379 110.062 62.4273C110.214 62.3612 110.083 62.1351 109.93 62.2012C106.351 63.7805 101.585 62.6047 98.0229 61.3976C97.8636 61.3455 97.7944 61.5994 97.9536 61.6516Z" fill="#5863E3"/>
<path d="M106.971 17.975C107.587 19.1299 108.345 20.0969 109.394 20.8796C110.487 21.697 111.491 22.2953 112.128 23.572C112.204 23.7216 112.433 23.5998 112.36 23.4502C111.886 22.5006 111.228 21.8536 110.377 21.2448C109.016 20.2778 108.005 19.3595 107.202 17.8498C107.119 17.7037 106.891 17.8254 106.971 17.975Z" fill="#002869"/>
<path d="M85.3298 31.2004C85.6725 32.4771 84.6548 33.8754 84.6271 35.1695C84.596 36.5226 85.5652 37.1001 86.7836 37.3227C86.9463 37.354 87.019 37.1001 86.8528 37.0687C83.0729 36.3765 86.1709 33.3258 85.5825 31.1274C85.5375 30.9709 85.2848 31.0404 85.3298 31.2004Z" fill="#002869"/>
</svg>
