<svg width="177" height="123" viewBox="0 0 177 123" fill="none" xmlns="http://www.w3.org/2000/svg">
<mask id="mask0_3_747" style="mask-type:alpha" maskUnits="userSpaceOnUse" x="0" y="0" width="177" height="123">
<rect width="177" height="122.927" rx="10" fill="#AFDBC5"/>
</mask>
<g mask="url(#mask0_3_747)">
<path d="M176.998 -3.71509H-6.69287V178.367H176.998V-3.71509Z" fill="#4C53B4"/>
<path d="M150.223 102.719C165.549 71.3086 148.839 31.8774 112.9 14.647C76.9611 -2.58339 35.4022 8.91172 20.0757 40.3221C4.74917 71.7324 21.459 111.164 57.3981 128.394C93.3372 145.624 134.896 134.129 150.223 102.719Z" fill="#5F65BF"/>
<path d="M166.119 16.0189C164.854 14.7571 163.133 14.2017 161.575 14.5331C162.567 13.4096 162.712 11.5961 161.88 10.2942C161.033 8.96867 159.262 8.26584 157.67 8.62454C156.364 8.91769 155.263 9.78986 154.69 10.9352C154.824 10.0029 154.815 8.86124 154.361 7.74508C153.81 6.39039 152.668 5.37802 151.376 5.10308C149.802 4.76805 147.971 5.57103 146.92 7.05863C146.246 8.01274 145.796 9.23451 145.632 10.5018C145.382 9.62963 144.797 8.82847 143.992 8.34777C142.796 7.63401 141.178 7.61216 139.868 8.28951C138.648 8.92133 137.693 10.1431 137.313 11.5615C136.988 12.7778 137.065 14.1034 137.535 15.4144C136.402 14.4493 135.212 13.5244 133.615 13.8048C132.546 13.9923 131.663 14.6442 131.192 15.5928C130.724 16.536 130.742 17.6194 131.24 18.5662C132.081 20.1649 133.803 21.1627 136.499 21.6161C138.366 21.9293 140.287 21.9493 142.144 21.9675C142.489 21.9711 142.833 21.9748 143.178 21.9802C143.45 21.9839 143.691 21.9893 143.913 21.9966C145.436 22.044 146.96 22.0749 148.443 22.0877C149.08 22.0931 149.714 22.0968 150.349 22.0968C152.655 22.0968 154.936 22.0567 157.157 21.9784C157.706 21.9584 158.265 21.9293 158.805 21.9019C159.602 21.8601 160.425 21.8182 161.235 21.8054C162.598 21.7818 163.816 21.7217 164.925 21.2301C165.884 20.804 167.166 20.0738 167.253 18.6518C167.308 17.7505 166.895 16.7909 166.119 16.0189Z" fill="#93A1ED"/>
<path d="M174.913 44.7826C174.035 43.9086 172.845 43.5244 171.765 43.7538C172.452 42.9745 172.553 41.7199 171.976 40.8168C171.39 39.8991 170.163 39.4111 169.061 39.6588C168.155 39.8627 167.395 40.4654 166.996 41.2593C167.088 40.6129 167.082 39.8226 166.768 39.0488C166.388 38.1111 165.594 37.4101 164.7 37.2189C163.611 36.9858 162.341 37.543 161.614 38.5736C161.147 39.2345 160.835 40.0812 160.721 40.9588C160.548 40.3543 160.143 39.799 159.586 39.4676C158.758 38.9741 157.637 38.9578 156.73 39.4275C155.885 39.8645 155.223 40.7112 154.961 41.6944C154.735 42.5375 154.788 43.4552 155.115 44.3638C154.331 43.6955 153.506 43.0546 152.4 43.2494C151.66 43.3787 151.048 43.8303 150.721 44.4876C150.398 45.1413 150.409 45.8914 150.754 46.5469C151.336 47.654 152.529 48.3459 154.397 48.6591C155.69 48.8758 157.02 48.8903 158.307 48.9031C158.546 48.9049 158.785 48.9085 159.024 48.9122C159.213 48.9158 159.378 48.9194 159.533 48.9231C160.587 48.9559 161.643 48.9777 162.67 48.9868C163.111 48.9905 163.552 48.9923 163.991 48.9923C165.587 48.9923 167.169 48.965 168.706 48.9103C169.086 48.8976 169.474 48.8776 169.847 48.8575C170.398 48.8284 170.969 48.7993 171.53 48.7902C172.474 48.7738 173.317 48.7319 174.085 48.3914C174.748 48.0964 175.637 47.5902 175.697 46.6052C175.736 45.9806 175.449 45.3161 174.913 44.7826Z" fill="#93A1ED"/>
<path d="M13.8676 81.6613C13.2136 81.0113 12.3264 80.7236 11.5237 80.8948C12.0362 80.3139 12.1097 79.3799 11.6817 78.708C11.2445 78.0233 10.3315 77.661 9.51043 77.8467C8.83629 77.9979 8.26868 78.4476 7.97294 79.0394C8.04274 78.5587 8.03723 77.9687 7.80395 77.3933C7.51923 76.6941 6.92958 76.1716 6.26462 76.0295C5.45271 75.8566 4.5067 76.2717 3.96481 77.0383C3.61764 77.5299 3.38435 78.1617 3.29985 78.8154C3.17127 78.3657 2.86818 77.9523 2.45304 77.7047C1.83584 77.3369 1.00188 77.326 0.3259 77.6756C-0.30416 78.0015 -0.79645 78.6315 -0.992999 79.3635C-1.16199 79.9898 -1.12158 80.6745 -0.877274 81.3518C-1.46141 80.8547 -2.07677 80.3758 -2.89971 80.5215C-3.45078 80.618 -3.90633 80.9549 -4.15064 81.4447C-4.39128 81.9308 -4.38393 82.4898 -4.12676 82.9778C-3.69325 83.8026 -2.80603 84.3179 -1.41365 84.551C-0.451112 84.713 0.540818 84.7221 1.49968 84.7331C1.67786 84.7349 1.85604 84.7367 2.03239 84.7385C2.17383 84.7403 2.2969 84.744 2.41079 84.7476C3.19699 84.7713 3.98318 84.7877 4.74733 84.795C5.07614 84.7986 5.40311 84.8004 5.73008 84.8004C6.91856 84.8004 8.09602 84.7804 9.24225 84.7385C9.52513 84.7276 9.81352 84.713 10.0927 84.6985C10.5042 84.6766 10.9285 84.6548 11.3455 84.6475C12.049 84.6347 12.6773 84.6056 13.2485 84.3507C13.7427 84.1304 14.4058 83.7535 14.4499 83.0215C14.4793 82.5554 14.2662 82.0601 13.8676 81.6613Z" fill="#93A1ED"/>
<path d="M175.163 90.4175C174.534 89.7929 173.682 89.5162 172.91 89.6818C173.403 89.1247 173.474 88.227 173.061 87.5806C172.642 86.9233 171.764 86.5755 170.976 86.7521C170.328 86.8978 169.784 87.3294 169.499 87.8974C169.565 87.435 169.562 86.8687 169.336 86.317C169.064 85.6451 168.496 85.1444 167.857 85.0078C167.078 84.8421 166.169 85.239 165.649 85.9765C165.315 86.4499 165.093 87.0544 165.01 87.6826C164.887 87.2511 164.597 86.8523 164.198 86.6156C163.607 86.2623 162.804 86.2514 162.155 86.5865C161.551 86.8996 161.077 87.506 160.89 88.207C160.728 88.8097 160.767 89.467 161 90.117C160.438 89.64 159.848 89.1811 159.058 89.3195C158.529 89.4124 158.09 89.7347 157.857 90.2062C157.626 90.6742 157.633 91.2095 157.881 91.6793C158.298 92.4713 159.15 92.9666 160.487 93.1906C161.411 93.3453 162.365 93.3563 163.285 93.3654C163.456 93.3672 163.627 93.369 163.798 93.3708C163.933 93.3727 164.051 93.3763 164.161 93.3781C164.916 93.4018 165.671 93.4164 166.406 93.4236C166.722 93.4273 167.036 93.4273 167.35 93.4273C168.493 93.4273 169.622 93.4072 170.723 93.369C170.995 93.3599 171.272 93.3453 171.54 93.3308C171.935 93.3107 172.343 93.2889 172.743 93.2834C173.419 93.2725 174.022 93.2416 174.571 92.9976C175.045 92.7864 175.682 92.424 175.725 91.7193C175.752 91.2751 175.546 90.8016 175.163 90.4175Z" fill="#93A1ED"/>
<path d="M16.6469 43.6444C15.9801 42.9816 15.0745 42.6885 14.2552 42.8633C14.7769 42.2715 14.8541 41.3174 14.4169 40.6328C13.9723 39.9354 13.0392 39.5658 12.2016 39.7533C11.5146 39.9081 10.9359 40.3669 10.6328 40.9696C10.7026 40.478 10.699 39.8771 10.4602 39.2908C10.1699 38.5789 9.56928 38.0454 8.88962 37.8997C8.06118 37.7231 7.0968 38.1455 6.54389 38.9285C6.18937 39.431 5.95241 40.0738 5.86607 40.7402C5.73565 40.2813 5.42705 39.8589 5.00273 39.6058C4.37451 39.2307 3.52218 39.218 2.83334 39.5749C2.19226 39.9063 1.68895 40.5508 1.48873 41.2974C1.31789 41.9365 1.35831 42.6357 1.60629 43.3258C1.00929 42.8177 0.382908 42.3316 -0.456558 42.4791C-1.01865 42.5774 -1.48339 42.9215 -1.73137 43.4204C-1.97752 43.9157 -1.96833 44.4874 -1.70565 44.9845C-1.26296 45.8257 -0.357365 46.3501 1.06256 46.5905C2.04531 46.7562 3.05561 46.7653 4.03284 46.7762C4.21469 46.778 4.39471 46.7798 4.57657 46.7817C4.71984 46.7835 4.84659 46.7871 4.96415 46.7908C5.76504 46.8163 6.56777 46.8308 7.34846 46.8399C7.68277 46.8436 8.01709 46.8454 8.35141 46.8454C9.56377 46.8454 10.7651 46.8235 11.9334 46.7835C12.2218 46.7726 12.5157 46.758 12.8004 46.7434C13.2192 46.7216 13.6527 46.6997 14.0789 46.6924C14.7953 46.6797 15.4382 46.6487 16.0205 46.3902C16.5238 46.1662 17.1998 45.782 17.2457 45.0337C17.2733 44.5548 17.0547 44.0504 16.6469 43.6444Z" fill="#93A1ED"/>
<path d="M36.9685 125.521C35.5798 124.137 33.6915 123.527 31.9832 123.892C33.0706 122.659 33.2304 120.669 32.3193 119.239C31.3917 117.785 29.4482 117.014 27.7013 117.406C26.2667 117.728 25.0617 118.684 24.4316 119.942C24.5786 118.919 24.5676 117.666 24.0716 116.443C23.4673 114.957 22.2126 113.846 20.7964 113.544C19.0697 113.176 17.0601 114.057 15.9065 115.689C15.1663 116.736 14.674 118.076 14.4921 119.467C14.2184 118.509 13.5755 117.63 12.692 117.104C11.3804 116.321 9.60412 116.297 8.16765 117.04C6.83039 117.732 5.78151 119.074 5.36453 120.63C5.00634 121.965 5.09267 123.42 5.60884 124.858C4.36526 123.8 3.05922 122.784 1.30864 123.092C0.134861 123.298 -0.833189 124.014 -1.34936 125.053C-1.86369 126.087 -1.84349 127.276 -1.29793 128.316C-0.375799 130.07 1.51254 131.164 4.47364 131.663C6.52179 132.007 8.62872 132.029 10.6677 132.049C11.0461 132.052 11.4245 132.056 11.8011 132.062C12.1005 132.065 12.3631 132.072 12.6075 132.08C14.2772 132.131 15.9506 132.165 17.5781 132.18C18.2762 132.187 18.9742 132.189 19.6685 132.189C22.1979 132.189 24.7017 132.145 27.1374 132.058C27.7399 132.036 28.3534 132.005 28.9449 131.974C29.8193 131.929 30.723 131.883 31.6103 131.867C33.1055 131.841 34.4428 131.776 35.6588 131.235C36.7095 130.767 38.1184 129.966 38.2121 128.407C38.2727 127.42 37.819 126.37 36.9685 125.521Z" fill="#93A1ED"/>
<path d="M31.4376 9.91196C30.1995 8.67927 28.5187 8.13485 26.9959 8.45895C27.9658 7.35918 28.1073 5.58752 27.2953 4.31477C26.4687 3.01835 24.7365 2.3319 23.1807 2.6815C21.9022 2.96919 20.8276 3.81951 20.2673 4.94113C20.3978 4.0289 20.3886 2.91274 19.9459 1.82207C19.4077 0.49834 18.289 -0.492185 17.027 -0.759845C15.4896 -1.08759 13.6967 -0.302819 12.6699 1.15201C12.0105 2.08427 11.5714 3.27873 11.4098 4.51688C11.1655 3.66474 10.5924 2.87997 9.80616 2.41202C8.63789 1.71465 7.05448 1.6928 5.77415 2.35557C4.582 2.97283 3.64885 4.16911 3.27596 5.55475C2.95817 6.74374 3.03349 8.04016 3.49455 9.32202C2.3869 8.37884 1.2223 7.47389 -0.337237 7.74883C-1.38244 7.93274 -2.24578 8.57002 -2.70501 9.49682C-3.1624 10.4182 -3.14587 11.4779 -2.65909 12.4028C-1.83615 13.9651 -0.155382 14.9411 2.48242 15.3853C4.30646 15.6931 6.18562 15.7113 8.00048 15.7295C8.33664 15.7331 8.67463 15.7368 9.01078 15.7404C9.27713 15.744 9.51226 15.7495 9.72901 15.7568C11.2169 15.8023 12.7066 15.8333 14.1578 15.846C14.7805 15.8515 15.4014 15.8551 16.0204 15.8551C18.2725 15.8551 20.5043 15.8169 22.6755 15.7386C23.2119 15.7185 23.7593 15.6912 24.2865 15.6639C25.0653 15.6239 25.8699 15.582 26.6616 15.5692C27.9934 15.5456 29.1855 15.4873 30.2693 15.0066C31.2061 14.5896 32.4607 13.8759 32.5452 12.4866C32.6003 11.6035 32.1962 10.6658 31.4376 9.91196Z" fill="#93A1ED"/>
<path d="M133.195 73.5861C129.312 69.7187 124.036 68.0126 119.26 69.0304C122.302 65.5836 122.745 60.0229 120.197 56.0298C117.602 51.9639 112.173 49.8081 107.289 50.9078C103.281 51.8091 99.9103 54.4803 98.1505 57.9945C98.5601 55.1358 98.5326 51.6325 97.1421 48.213C95.4539 44.0598 91.9473 40.9553 87.9869 40.1122C83.1614 39.0835 77.5423 41.5488 74.3222 46.1064C72.2538 49.0324 70.8743 52.7796 70.371 56.6634C69.6068 53.9887 67.8085 51.5306 65.3415 50.0593C61.6751 47.8725 56.7117 47.8034 52.6963 49.8827C48.9563 51.8183 46.0283 55.5691 44.8619 59.9154C43.8626 63.6445 44.0995 67.7122 45.5452 71.7307C42.0698 68.7737 38.4198 65.935 33.5263 66.7945C30.2474 67.3698 27.5398 69.3691 26.096 72.2769C24.6614 75.1684 24.7147 78.4914 26.243 81.3938C28.822 86.2954 34.0976 89.3544 42.371 90.7473C48.093 91.7105 53.9839 91.7688 59.682 91.8252C60.7382 91.8362 61.7963 91.8471 62.8507 91.8616C63.6865 91.8744 64.4231 91.8908 65.1046 91.9108C69.774 92.0546 74.4471 92.1493 78.9953 92.193C80.9479 92.2112 82.8968 92.2203 84.8403 92.2203C91.9069 92.2203 98.9073 92.0984 105.717 91.8544C107.401 91.7943 109.113 91.7069 110.77 91.6213C113.213 91.4957 115.739 91.3664 118.221 91.3227C122.4 91.2517 126.138 91.0678 129.536 89.5565C132.473 88.2491 136.41 86.0077 136.672 81.6505C136.841 78.8938 135.574 75.9532 133.195 73.5861Z" fill="#74C7E5"/>
<path d="M72.0153 66.7928C71.6608 66.8328 71.4073 67.1515 71.4477 67.5011C71.5744 68.5954 71.0123 69.7771 70.0773 70.3743C69.1442 70.9715 67.8253 70.9934 66.8719 70.4271C65.9186 69.8608 65.3161 68.6992 65.4079 67.6012C65.4373 67.2498 65.1728 66.9403 64.8183 66.9111C64.4601 66.8802 64.1515 67.1442 64.1221 67.4956C64.0615 68.2185 64.2048 68.9468 64.506 69.6041C64.1956 70.0575 63.7915 70.449 63.3249 70.7367C63.2238 70.7986 63.1926 70.9297 63.2551 71.0298C63.2955 71.0954 63.3653 71.13 63.4388 71.13C63.4773 71.13 63.5178 71.119 63.5527 71.0972C64.0045 70.8186 64.405 70.4508 64.7283 70.0284C65.0479 70.5655 65.4832 71.0353 66.0031 71.3903C65.8176 71.7927 65.509 72.1423 65.1214 72.3608C65.0185 72.4191 64.9818 72.5484 65.0405 72.6522C65.0791 72.7214 65.1526 72.7596 65.2279 72.7596C65.2646 72.7596 65.2995 72.7505 65.3344 72.7323C65.7863 72.4792 66.1482 72.0786 66.3741 71.6143C67.0042 71.9511 67.7169 72.1205 68.4315 72.1205C69.2562 72.1205 70.0829 71.8965 70.779 71.4504C72.131 70.5855 72.9154 68.9413 72.7317 67.3554C72.6913 67.004 72.3698 66.7527 72.0153 66.7928Z" fill="#231F20"/>
<path d="M99.3314 70.7367C98.8648 70.449 98.4607 70.0575 98.1502 69.6041C98.4515 68.9468 98.5948 68.2185 98.5341 67.4974C98.5048 67.146 98.198 66.8856 97.838 66.9111C97.4834 66.9403 97.2189 67.248 97.2483 67.6012C97.3383 68.6992 96.7358 69.8608 95.7843 70.4271C94.8309 70.9934 93.5139 70.9715 92.5789 70.3743C91.6457 69.7771 91.0818 68.5954 91.2086 67.5011C91.249 67.1496 90.9955 66.8328 90.641 66.7928C90.2883 66.7527 89.9668 67.004 89.9264 67.3554C89.7427 68.9395 90.5271 70.5855 91.879 71.4504C92.5771 71.8965 93.4018 72.1205 94.2266 72.1205C94.9412 72.1205 95.652 71.9511 96.2839 71.6143C96.5099 72.0786 96.8717 72.4792 97.3236 72.7323C97.3567 72.7505 97.3934 72.7596 97.4302 72.7596C97.5055 72.7596 97.579 72.7214 97.6175 72.6522C97.6763 72.5502 97.6396 72.4191 97.5367 72.3608C97.1491 72.1442 96.8405 71.7946 96.655 71.3903C97.1748 71.0371 97.6102 70.5673 97.9298 70.0284C98.2531 70.4526 98.6535 70.8186 99.1073 71.0972C99.1422 71.119 99.1826 71.13 99.2212 71.13C99.2928 71.13 99.3626 71.0935 99.4048 71.0298C99.4618 70.9315 99.4324 70.8004 99.3314 70.7367Z" fill="#231F20"/>
<path d="M76.1776 81.938C75.498 81.1824 74.3003 80.9275 73.3323 81.3353C72.333 81.7541 71.7066 82.8211 71.8756 83.8171C72.0611 84.9114 73.1357 85.505 74.1203 85.607C74.2342 85.6179 74.3444 85.6252 74.4546 85.6252C75.2371 85.6252 75.9186 85.3302 76.3209 84.804C76.9473 83.9846 76.8848 82.7264 76.1776 81.938Z" fill="#91D9F2"/>
<path d="M67.4228 75.0263C66.3464 74.3909 64.8162 74.3435 63.6039 74.3599C62.2409 74.3781 60.7144 74.562 59.4616 75.1228C58.5175 75.5453 57.9793 76.4702 58.444 77.468C58.9638 78.586 60.4095 78.932 61.5263 79.0685C63.3485 79.2907 67.241 79.4109 68.2127 77.4426C68.6609 76.5303 68.2862 75.5362 67.4228 75.0263Z" fill="#57B6DC"/>
<path d="M105.417 75.0263C104.341 74.3909 102.811 74.3435 101.598 74.3599C100.236 74.3781 98.709 74.562 97.4563 75.1228C96.5121 75.5453 95.9739 76.4702 96.4386 77.468C96.9585 78.586 98.4041 78.932 99.5209 79.0685C101.343 79.2907 105.236 79.4109 106.207 77.4426C106.654 76.5303 106.281 75.5362 105.417 75.0263Z" fill="#57B6DC"/>
<path d="M30.3209 69.4693C27.9531 70.4507 26.4064 73.0927 26.7224 75.6164C27.0383 78.1401 29.1893 80.3287 31.7261 80.7056C31.7849 80.7147 31.8437 80.7183 31.9043 80.7183C32.4847 80.7183 32.9862 80.2886 33.0726 79.7205C33.1203 79.411 33.0413 79.1014 32.854 78.8483C32.6666 78.5971 32.3911 78.4314 32.0788 78.3859C30.5542 78.1583 29.261 76.8436 29.0699 75.3269C28.8807 73.8102 29.8102 72.2206 31.232 71.6325C32.6556 71.0425 34.4484 71.5032 35.4036 72.7031C35.6001 72.9489 35.8812 73.1037 36.1935 73.1401C36.5076 73.1765 36.8162 73.0891 37.0642 72.8961C37.3121 72.7013 37.4683 72.4227 37.5068 72.1132C37.5454 71.8036 37.4554 71.4959 37.2607 71.2501C35.6718 69.2526 32.6868 68.4879 30.3209 69.4693Z" fill="#57B6DC"/>
<path d="M55.075 50.3271C51.899 50.8715 48.993 53.1676 47.4885 56.3194C46.1954 59.0306 45.8868 62.3791 46.6197 65.7458C46.7372 66.2811 47.2222 66.6707 47.7751 66.6707C47.8596 66.6707 47.9441 66.6616 48.0249 66.6434C48.3335 66.5779 48.598 66.3958 48.7689 66.1318C48.9397 65.8678 48.9985 65.5546 48.9305 65.2487C48.306 62.3827 48.5521 59.5677 49.6249 57.319C50.8042 54.8464 53.047 53.051 55.4736 52.6341C58.0012 52.2025 60.7271 53.4352 61.8164 55.5037C61.9634 55.7823 62.2095 55.9862 62.5108 56.0809C62.812 56.1755 63.1335 56.1464 63.4127 56.0026C63.9913 55.704 64.2173 54.9938 63.9142 54.4203C62.3491 51.4414 58.6294 49.7189 55.075 50.3271Z" fill="#57B6DC"/>
<path d="M91.5061 46.1592C90.5491 43.1658 87.2555 40.9972 83.8462 41.121C80.8741 41.2266 77.9241 42.8963 75.9512 45.5875C74.377 47.736 73.3832 50.5164 72.9993 53.8522C72.9258 54.4949 73.3924 55.0776 74.0427 55.1504C74.0886 55.1559 74.1327 55.1577 74.1768 55.1577C74.7774 55.1577 75.2826 54.7116 75.3506 54.118C75.6885 51.1901 76.5354 48.783 77.8671 46.964C79.4138 44.8519 81.6805 43.5427 83.9307 43.4644C86.3169 43.3788 88.6038 44.8428 89.2504 46.8657C89.3459 47.1643 89.5535 47.4101 89.8346 47.554C90.1156 47.6978 90.4352 47.7251 90.7346 47.6304C91.3574 47.4356 91.7027 46.7765 91.5061 46.1592Z" fill="#57B6DC"/>
<path d="M120.199 56.0298C122.746 60.0229 122.302 65.5818 119.262 69.0305C120.7 68.7246 122.182 68.6663 123.657 68.8375C130.261 63.6882 134.648 55.6984 135.458 47.2462C136.354 37.9036 133.58 28.1677 128.217 21.8385C122.75 15.3874 115.285 11.5017 106.029 10.2891C100.639 9.58261 94.2486 10.4256 89.7464 12.4322C85.2331 14.4442 81.168 18.1277 78.3024 22.8036C75.7914 26.9004 74.0923 31.8221 73.2546 37.4284C73.2399 37.5249 73.2932 37.6177 73.3832 37.656C73.4732 37.6942 73.5779 37.6651 73.6385 37.5886C75.5857 35.0504 78.9692 33.1713 83.1684 32.2937C87.2702 31.4379 91.4235 31.7529 94.8658 33.1822C98.6499 34.7518 101.695 37.7798 103.016 41.2812C104.442 45.0631 103.83 49.4203 101.457 52.3809C101.413 52.4374 101.398 52.512 101.42 52.5794C101.442 52.6468 101.497 52.6996 101.567 52.7196C101.92 52.8179 102.25 52.8926 102.573 52.9636C103.979 52.0022 105.575 51.2902 107.291 50.9042C112.173 49.8099 117.603 51.964 120.199 56.0298Z" fill="#F5C371"/>
<path d="M107.552 29.6534C107.401 28.9123 107.089 28.2277 106.81 27.645C106.655 27.3264 106.271 27.1898 105.95 27.3428C105.628 27.4957 105.493 27.8763 105.645 28.1949C105.893 28.7084 106.167 29.3074 106.288 29.9047C106.371 30.3162 106.418 30.9189 106.167 31.456C105.851 32.1315 105.068 32.6013 104.22 32.625C103.424 32.6486 102.559 32.2972 101.855 31.6636C101.591 31.425 101.183 31.4451 100.944 31.7055C100.704 31.9676 100.724 32.3719 100.987 32.6086C101.903 33.4352 103.049 33.9032 104.148 33.9032C104.183 33.9032 104.22 33.9032 104.254 33.9014C105.581 33.8649 106.819 33.0966 107.337 31.9913C107.651 31.3213 107.724 30.5128 107.552 29.6534Z" fill="#231F20"/>
<path d="M86.1679 22.4429C84.2575 21.7983 82.0367 23.7703 82.3325 25.7204C82.45 26.4888 82.8817 27.2681 83.4732 27.7779C84.5863 28.7357 86.4232 28.1512 87.3398 27.2043C88.7083 25.7896 88.0324 23.0729 86.1679 22.4429Z" fill="#FFEAA3"/>
<path d="M99.1292 26.4635C98.444 24.8757 96.7871 24.3295 95.279 25.0578C94.4249 25.4711 93.6093 26.234 93.5101 27.2155C93.3393 28.9125 94.6857 30.9336 96.5942 30.3236C98.1023 29.8393 99.8547 28.1423 99.1292 26.4635Z" fill="#FFEAA3"/>
<path d="M106.328 14.0473C106.045 13.8543 105.737 13.6977 105.417 13.5866C104.056 13.1132 102.572 13.3845 101.635 14.5007C99.7962 16.6929 101.336 20.3928 104.429 19.7155C105.707 19.4351 107.239 18.6594 107.662 17.3302C108.079 16.021 107.388 14.7738 106.328 14.0473Z" fill="#FFEAA3"/>
<path d="M127.453 24.2875C127.201 23.5665 126.576 23.0166 125.864 22.7617C124.177 22.1572 122.467 23.2588 122.017 24.9175C121.736 25.9536 122.06 27.199 123.094 27.7161C124.328 28.3334 125.788 27.6597 126.679 26.7529C127.346 26.0774 127.785 25.2416 127.453 24.2875Z" fill="#FFEAA3"/>
<path d="M129.126 34.4168C126.747 34.3349 124.537 36.0992 124.728 38.5665C124.73 38.5901 124.736 38.612 124.741 38.6356C124.741 38.9343 124.804 39.2402 124.954 39.5497C125.417 40.5038 126.359 41.2485 127.338 41.6291C129.519 42.4812 131.958 41.6746 132.324 39.2238C132.664 36.9459 131.754 34.506 129.126 34.4168Z" fill="#FFEAA3"/>
<path d="M115.152 43.3385C113.861 43.1764 112.608 44.3145 112.055 45.3796C111.512 46.4266 111.842 47.7085 112.746 48.4477C114.153 49.6003 116.308 48.9339 117.127 47.55C118.2 46.168 117.199 43.5934 115.152 43.3385Z" fill="#FFEAA3"/>
<path d="M129.115 52.33C128.131 50.7787 126.314 50.786 124.925 51.8584C123.876 52.6687 123.195 54.0926 123.702 55.3835C124.177 56.598 125.484 57.2553 126.747 57.2845C129.523 57.3482 130.405 54.362 129.115 52.33Z" fill="#FFEAA3"/>
<path d="M115.741 28.3077C113.446 28.3987 111.892 30.4326 110.73 32.2024C110.43 32.5829 110.212 33.0163 110.166 33.5207C110.087 34.3801 110.55 35.1794 111.362 35.5035C113.184 36.2319 115.436 34.1161 116.373 32.7869C117.179 31.6416 118.182 28.2112 115.741 28.3077Z" fill="#FFEAA3"/>
<path d="M97.6049 13.3152C97.4065 12.596 96.4917 12.4285 95.9645 12.3939C87.9666 11.864 80.7292 19.3822 77.3915 26.5926C76.846 27.7725 76.4566 28.9579 76.238 30.1196L76.2251 30.1851C76.091 30.8879 75.9404 31.6855 75.8853 32.3938C75.8632 32.6742 75.922 32.9436 76.0506 33.153C76.102 33.2368 76.1645 33.3115 76.2361 33.3715C76.3812 33.4954 76.5411 33.5573 76.7156 33.5573C76.7633 33.5573 76.8111 33.5518 76.8607 33.5427C77.4834 33.4243 78.0822 32.5722 78.3118 32.1388C78.7674 31.2776 79.0907 30.3435 79.403 29.4422C79.5242 29.0926 79.6454 28.743 79.774 28.3971C81.1627 24.6607 83.2843 21.6145 86.0801 19.344C88.6114 17.2883 91.7415 16.1102 94.7466 15.1433C94.8458 15.1106 94.9891 15.0741 95.1581 15.0304C95.9112 14.8338 97.1714 14.5024 97.5332 13.8833C97.6343 13.7049 97.66 13.5137 97.6049 13.3152Z" fill="#FFF4D1"/>
<path d="M99.9118 11.58C99.5903 11.3943 99.2101 11.407 98.8703 11.5345C98.6829 11.6055 98.5249 11.7002 98.4202 11.8786C98.0106 12.5741 99.0191 13.521 99.7153 13.3516C100.055 13.2697 100.332 13.0075 100.415 12.6688C100.523 12.2318 100.29 11.7985 99.9118 11.58Z" fill="#FFF4D1"/>
<path d="M135.535 46.3139C135.556 46.0116 135.574 45.7075 135.587 45.4053C135.425 45.5746 135.289 45.784 135.196 46.0407C133.676 50.1267 131.34 53.9231 128.346 57.1113C127.056 58.4842 125.66 59.7369 124.202 60.9186C124.435 60.7293 123.507 58.5279 123.377 58.2147C122.989 57.2843 122.503 56.3939 121.929 55.56C120.803 53.9231 119.345 52.5083 117.66 51.4413C114.135 49.2071 110.054 48.8102 106.117 50.1103C105.07 50.4562 104.119 50.9205 103.252 51.6197C102.791 51.6707 102.333 51.7344 101.881 51.8109C101.747 52.0076 101.604 52.1987 101.455 52.3845C101.411 52.4409 101.397 52.5156 101.419 52.5829C101.441 52.6503 101.496 52.7031 101.566 52.7231C101.918 52.8215 102.249 52.8961 102.572 52.9671C103.977 52.0057 105.574 51.2938 107.289 50.9078C112.174 49.8098 117.602 51.9639 120.197 56.0297C122.332 59.3746 122.365 63.8192 120.532 67.2023C120.532 67.2023 120.532 67.2041 120.53 67.2041C120.462 67.3279 120.392 67.4499 120.32 67.5719C120.315 67.5792 120.311 67.5883 120.306 67.5956C120.238 67.7085 120.168 67.8177 120.096 67.927C120.085 67.9434 120.076 67.9598 120.065 67.9743C119.999 68.0745 119.929 68.1746 119.857 68.2729C119.841 68.2948 119.826 68.3185 119.81 68.3403C119.742 68.435 119.67 68.526 119.598 68.6171C119.578 68.6426 119.56 68.668 119.541 68.6917C119.45 68.8064 119.356 68.9193 119.259 69.0286C120.697 68.7227 122.179 68.6644 123.654 68.8356C130.258 63.6863 134.645 55.6965 135.455 47.2443C135.484 46.9384 135.51 46.6325 135.53 46.3266C135.535 46.323 135.535 46.3175 135.535 46.3139Z" fill="#EBCE72"/>
<path d="M38.1588 40.6967C38.0339 40.4782 37.7528 40.4017 37.5324 40.5255L31.8435 43.7265L35.7396 36.558C35.8296 36.3904 35.8075 36.1865 35.6808 36.0427C35.5559 35.9006 35.3538 35.8497 35.1738 35.9152C32.5911 36.873 30.1076 38.1111 27.7949 39.5969C27.5819 39.7335 27.5212 40.0157 27.659 40.2269C27.7968 40.4381 28.0815 40.4982 28.2946 40.3617C30.205 39.1362 32.2329 38.082 34.3362 37.2207L30.2766 44.6879C30.1792 44.8664 30.2141 45.0867 30.3593 45.2287C30.4474 45.3143 30.5632 45.358 30.6807 45.358C30.7579 45.358 30.8369 45.3379 30.9067 45.2979L37.9843 41.3139C38.2065 41.1919 38.2837 40.9152 38.1588 40.6967Z" fill="#F7E9BC"/>
<path d="M43.3518 53.0089C43.2526 52.7777 42.9825 52.6703 42.7493 52.7686C41.5534 53.273 40.3154 53.6936 39.0552 54.025C40.1666 52.3261 41.0813 50.5053 41.783 48.6026C41.8418 48.4423 41.8051 48.2621 41.6894 48.1364C41.5718 48.0108 41.3936 47.9616 41.2283 48.0072C39.0956 48.6007 37.0567 49.482 35.1665 50.6273C34.9497 50.7584 34.8818 51.0388 35.014 51.2537C35.1463 51.4685 35.4292 51.5359 35.6459 51.4048C37.1981 50.4634 38.8569 49.7078 40.5872 49.1506C39.8157 51.0334 38.8256 52.8214 37.6353 54.4783C37.5251 54.6313 37.5214 54.837 37.6261 54.9936C37.7125 55.1229 37.8576 55.1976 38.01 55.1976C38.0431 55.1976 38.0762 55.1939 38.1074 55.1866C39.8176 54.817 41.5002 54.2835 43.1111 53.6043C43.3426 53.5078 43.451 53.2402 43.3518 53.0089Z" fill="#F7E9BC"/>
<path d="M33.2432 30.0538C33.1293 29.8298 32.8519 29.7388 32.626 29.8517L23.2504 34.5421C25.0083 30.9023 27.1263 27.4264 29.5602 24.1944C29.6777 24.0378 29.6814 23.823 29.5694 23.6627C29.4573 23.5025 29.2534 23.4297 29.0642 23.4843C25.9047 24.3929 22.9436 25.8113 20.2636 27.7031C20.0578 27.8488 20.0083 28.1328 20.1552 28.3386C20.3022 28.5425 20.5887 28.5917 20.7963 28.446C23.0134 26.8801 25.4308 25.6474 27.997 24.7734C25.6127 28.091 23.5498 31.6434 21.8562 35.3506C21.7754 35.5272 21.8158 35.7329 21.9572 35.8677C22.0454 35.9514 22.1593 35.9951 22.275 35.9951C22.3448 35.9951 22.4164 35.9787 22.4826 35.946L33.0411 30.6638C33.2652 30.5527 33.3571 30.2778 33.2432 30.0538Z" fill="#F7E9BC"/>
<path d="M48.5244 40.0249C47.7254 40.0249 47.7235 41.2558 48.5244 41.2558C49.3235 41.2558 49.3253 40.0249 48.5244 40.0249Z" fill="#ADB9D1"/>
<path d="M51.2801 24.6663C50.751 24.6663 50.751 25.4802 51.2801 25.4802C51.8091 25.4802 51.8091 24.6663 51.2801 24.6663Z" fill="#ADB9D1"/>
<path d="M70.0144 11.7859C68.7194 11.7859 68.7176 13.7815 70.0144 13.7815C71.3095 13.7815 71.3131 11.7859 70.0144 11.7859Z" fill="#ADB9D1"/>
<path d="M51.0049 13.186C50.8171 13.186 50.8171 13.4737 51.0049 13.4737C51.1927 13.4737 51.1927 13.186 51.0049 13.186Z" fill="#ADB9D1"/>
<path d="M6.92075 30.9023C6.6869 30.9023 6.6869 31.2611 6.92075 31.2611C7.15459 31.2611 7.15459 30.9023 6.92075 30.9023Z" fill="#ADB9D1"/>
<path d="M19.3198 37.6177H19.0442C18.7448 37.6177 18.4601 37.8781 18.473 38.184C18.4876 38.4898 18.7246 38.7502 19.0442 38.7502H19.3198C19.6192 38.7502 19.9039 38.4898 19.891 38.184C19.8764 37.8762 19.6394 37.6177 19.3198 37.6177Z" fill="#ADB9D1"/>
<path d="M6.3695 62.6941C5.21776 62.6941 5.21592 64.4694 6.3695 64.4694C7.52124 64.4694 7.52308 62.6941 6.3695 62.6941Z" fill="#ADB9D1"/>
<path d="M19.5951 70.436C18.5646 70.436 18.5628 72.0238 19.5951 72.0238C20.6256 72.022 20.6274 70.436 19.5951 70.436Z" fill="#ADB9D1"/>
<path d="M20.6975 77.6174C20.4821 77.6174 20.4803 77.9488 20.6975 77.9488C20.913 77.9488 20.913 77.6174 20.6975 77.6174Z" fill="#ADB9D1"/>
<path d="M5.79796 99.4163C5.41956 99.4163 5.41956 99.9989 5.79796 99.9989C6.17637 99.9989 6.17637 99.4163 5.79796 99.4163Z" fill="#ADB9D1"/>
<path d="M20.6773 103.914C19.5201 103.914 19.5183 105.696 20.6773 105.696C21.8346 105.698 21.8364 103.914 20.6773 103.914Z" fill="#ADB9D1"/>
<path d="M39.5972 105.787C38.98 105.787 38.98 106.738 39.5972 106.738C40.2144 106.738 40.2144 105.787 39.5972 105.787Z" fill="#ADB9D1"/>
<path d="M56.6677 110.452C56.6585 110.267 56.5979 110.075 56.4564 109.946C56.4068 109.91 56.3591 109.871 56.3095 109.835C56.1974 109.769 56.0762 109.738 55.9458 109.737C55.7437 109.711 55.5178 109.828 55.38 109.968C55.2349 110.115 55.1541 110.318 55.1541 110.525C55.1522 110.94 55.4994 111.343 55.9403 111.317C56.1313 111.306 56.3113 111.244 56.4509 111.108C56.5758 110.984 56.6695 110.78 56.6622 110.602C56.6622 110.589 56.6585 110.576 56.6585 110.565C56.664 110.525 56.6695 110.489 56.6677 110.452Z" fill="#ADB9D1"/>
<path d="M7.63519 112.105C6.71123 112.105 6.70939 113.529 7.63519 113.529C8.55916 113.529 8.56099 112.105 7.63519 112.105Z" fill="#ADB9D1"/>
<path d="M113.808 113.56C113.417 113.578 113.088 113.873 113.088 114.274V114.456C113.088 114.829 113.419 115.188 113.808 115.17C114.199 115.152 114.528 114.857 114.528 114.456V114.274C114.528 113.901 114.198 113.542 113.808 113.56Z" fill="#ADB9D1"/>
<path d="M124.83 115.47H124.646C124.545 115.47 124.545 115.627 124.646 115.627H124.83C124.932 115.627 124.932 115.47 124.83 115.47Z" fill="#ADB9D1"/>
<path d="M170.201 121.104C168.902 121.104 168.901 123.103 170.201 123.103C171.5 123.103 171.502 121.104 170.201 121.104Z" fill="#ADB9D1"/>
<path d="M169.65 106.994C168.71 106.994 168.708 108.444 169.65 108.444C170.591 108.444 170.593 106.994 169.65 106.994Z" fill="#ADB9D1"/>
<path d="M132.728 110.749C132.17 110.749 132.168 111.61 132.728 111.61C133.287 111.608 133.289 110.749 132.728 110.749Z" fill="#ADB9D1"/>
<path d="M129.133 102.725C129.073 102.665 129.01 102.603 128.95 102.543C128.788 102.383 128.548 102.284 128.32 102.284C128.101 102.284 127.84 102.381 127.69 102.543C127.534 102.71 127.418 102.932 127.429 103.167C127.44 103.402 127.519 103.622 127.69 103.792L127.873 103.974C128.035 104.134 128.276 104.232 128.503 104.232C128.722 104.232 128.983 104.136 129.133 103.974C129.29 103.806 129.405 103.584 129.394 103.349C129.383 103.114 129.304 102.894 129.133 102.725Z" fill="#ADB9D1"/>
<path d="M161.384 100.951C160.872 100.951 160.872 101.74 161.384 101.74C161.896 101.742 161.896 100.951 161.384 100.951Z" fill="#ADB9D1"/>
<path d="M149.077 89.3743C148.664 89.3743 148.664 90.0116 149.077 90.0116C149.49 90.0116 149.49 89.3743 149.077 89.3743Z" fill="#ADB9D1"/>
<path d="M139.342 78.719H139.158C139.095 78.719 139.095 78.8155 139.158 78.8155H139.342C139.404 78.8173 139.404 78.719 139.342 78.719Z" fill="#ADB9D1"/>
<path d="M141.957 67.2533C141.792 67.104 141.589 67.0093 141.362 67.0093H141.178C140.963 67.0093 140.735 67.1021 140.583 67.2533C140.438 67.3971 140.328 67.6356 140.337 67.8432C140.346 68.0581 140.418 68.282 140.583 68.4332C140.748 68.5825 140.95 68.6771 141.178 68.6771H141.362C141.577 68.6771 141.804 68.5843 141.957 68.4332C142.102 68.2893 142.212 68.0508 142.203 67.8432C142.192 67.6284 142.12 67.4044 141.957 67.2533Z" fill="#ADB9D1"/>
<path d="M144.409 53.8229V54.005C144.409 54.1015 144.562 54.1015 144.562 54.005V53.8229C144.56 53.7264 144.409 53.7264 144.409 53.8229Z" fill="#ADB9D1"/>
<path d="M158.078 80.3306H157.964C157.156 80.3306 157.154 81.576 157.964 81.576H158.078C158.886 81.576 158.888 80.3306 158.078 80.3306Z" fill="#ADB9D1"/>
<path d="M151.281 62.8523C150.003 62.8523 149.999 64.8224 151.281 64.8224C152.56 64.8224 152.563 62.8523 151.281 62.8523Z" fill="#ADB9D1"/>
<path d="M167.078 54.5005C166.538 54.5005 166.538 55.3326 167.078 55.3326C167.619 55.3308 167.619 54.5005 167.078 54.5005Z" fill="#ADB9D1"/>
<path d="M140.443 42.1846H140.259C140.028 42.1846 139.785 42.2847 139.62 42.4468C139.464 42.6015 139.346 42.8564 139.356 43.0804C139.378 43.5647 139.752 43.9762 140.259 43.9762H140.443C140.674 43.9762 140.917 43.8761 141.082 43.714C141.238 43.5593 141.356 43.3044 141.347 43.0804C141.325 42.5961 140.95 42.1846 140.443 42.1846Z" fill="#ADB9D1"/>
<path d="M160.649 31.0647H160.282C159.9 31.0647 159.532 31.3979 159.549 31.7912C159.567 32.1845 159.87 32.5177 160.282 32.5177H160.649C161.031 32.5177 161.399 32.1845 161.382 31.7912C161.364 31.3979 161.059 31.0647 160.649 31.0647Z" fill="#ADB9D1"/>
<path d="M171.671 34.344C170.495 34.344 170.493 36.1557 171.671 36.1557C172.846 36.1575 172.848 34.344 171.671 34.344Z" fill="#ADB9D1"/>
<path d="M172.038 25.7261C171.728 25.7261 171.728 26.2031 172.038 26.2031C172.349 26.2031 172.349 25.7261 172.038 25.7261Z" fill="#ADB9D1"/>
<path d="M165.747 2.88559C165.578 2.71807 165.3 2.59244 165.058 2.60154C164.806 2.61246 164.544 2.6944 164.369 2.88559C164.195 3.07495 164.083 3.30802 164.083 3.56839V3.75048C164.083 3.99811 164.191 4.25848 164.369 4.43328C164.538 4.6008 164.815 4.72644 165.058 4.71733C165.31 4.70641 165.572 4.62447 165.747 4.43328C165.921 4.24392 166.033 4.01085 166.033 3.75048V3.56839C166.033 3.32076 165.925 3.06039 165.747 2.88559Z" fill="#ADB9D1"/>
<path d="M153.599 0.137939H153.485C152.106 0.137939 152.102 2.26465 153.485 2.26465H153.599C154.979 2.26465 154.983 0.137939 153.599 0.137939Z" fill="#ADB9D1"/>
<path d="M127.034 8.55005C125.703 8.55005 125.699 10.6021 127.034 10.6021C128.366 10.6039 128.37 8.55005 127.034 8.55005Z" fill="#ADB9D1"/>
<path d="M105.175 1.54004C104.433 1.54004 104.431 2.68351 105.175 2.68351C105.917 2.68351 105.919 1.54004 105.175 1.54004Z" fill="#ADB9D1"/>
<path d="M75.0497 0.545898C73.9622 0.545898 73.9604 2.22105 75.0497 2.22105C76.1371 2.22105 76.139 0.545898 75.0497 0.545898Z" fill="#ADB9D1"/>
<path d="M64.3954 39.4768C63.9711 39.4768 63.9711 40.1287 64.3954 40.1287C64.8197 40.1287 64.8197 39.4768 64.3954 39.4768Z" fill="#ADB9D1"/>
<path d="M36.401 22.6123C36.3956 22.6123 36.3956 22.6196 36.401 22.6196C36.4065 22.6196 36.4065 22.6123 36.401 22.6123Z" fill="#515763"/>
<path d="M57.6209 2.12796L57.3454 1.85484C57.1984 1.70917 56.9302 1.69825 56.7851 1.85484C56.64 2.01143 56.629 2.25542 56.7851 2.41019C56.877 2.50123 56.9688 2.59227 57.0607 2.68331C57.2076 2.82898 57.4758 2.8399 57.6209 2.68331C57.766 2.52672 57.7789 2.28273 57.6209 2.12796Z" fill="#515763"/>
<path d="M1.96101 21.0024H1.68548C1.40994 21.0024 1.14726 21.2428 1.16012 21.5232C1.17298 21.8054 1.39157 22.044 1.68548 22.044H1.96101C2.23655 22.044 2.49923 21.8036 2.48637 21.5232C2.47351 21.241 2.25676 21.0024 1.96101 21.0024Z" fill="#515763"/>
<path d="M13.5333 52.4697C12.5818 52.4697 12.5799 53.9373 13.5333 53.9373C14.4848 53.9373 14.4866 52.4697 13.5333 52.4697Z" fill="#515763"/>
<path d="M-0.188335 89.2959H-0.263648C-1.25007 89.2959 -1.2519 90.8163 -0.263648 90.8163H-0.188335C0.799921 90.8181 0.801757 89.2959 -0.188335 89.2959Z" fill="#515763"/>
<path d="M45.8425 121.015H45.6588C45.4678 121.015 45.2859 121.18 45.2951 121.375C45.3043 121.572 45.4549 121.736 45.6588 121.736H45.8425C46.0336 121.736 46.2154 121.57 46.2062 121.375C46.1989 121.179 46.0464 121.015 45.8425 121.015Z" fill="#515763"/>
<path d="M144.485 118.436C144.451 118.436 144.451 118.485 144.485 118.485C144.518 118.486 144.518 118.436 144.485 118.436Z" fill="#515763"/>
<path d="M157.71 110.179C156.885 110.179 156.883 111.448 157.71 111.448C158.535 111.45 158.537 110.179 157.71 110.179Z" fill="#515763"/>
<path d="M172.957 78.5349C172.18 78.5349 172.18 79.7312 172.957 79.7312C173.734 79.7294 173.734 78.5349 172.957 78.5349Z" fill="#515763"/>
<path d="M157.526 53.5552C157.181 53.5697 156.889 53.8319 156.889 54.187V54.3691C156.889 54.6987 157.181 55.0155 157.526 55.0009C157.872 54.9864 158.164 54.7241 158.164 54.3691V54.187C158.164 53.8574 157.87 53.5406 157.526 53.5552Z" fill="#515763"/>
<path d="M139.892 24.3074C139.633 24.3074 139.633 24.7061 139.892 24.7061C140.152 24.708 140.152 24.3074 139.892 24.3074Z" fill="#515763"/>
<path d="M173.692 7.17529C173.647 7.17529 173.647 7.24231 173.692 7.24231C173.737 7.24412 173.737 7.17529 173.692 7.17529Z" fill="#515763"/>
<path d="M111.236 7.0188C111.224 7.0188 111.224 7.03794 111.236 7.03794C111.248 7.0362 111.248 7.0188 111.236 7.0188Z" fill="#515763"/>
<path d="M98.0111 5.8369C97.6584 5.85329 97.3608 6.11913 97.3608 6.48147V6.66355C97.3608 7.0004 97.6602 7.32269 98.0111 7.30812C98.3638 7.29173 98.6613 7.02589 98.6613 6.66355V6.48147C98.6613 6.14462 98.3619 5.82233 98.0111 5.8369Z" fill="#515763"/>
<path d="M65.8833 24.9375C64.6415 24.9375 64.6397 26.8494 65.8833 26.8494C67.1232 26.8494 67.1269 24.9375 65.8833 24.9375Z" fill="#F2E3B5"/>
<path d="M38.5169 21.8839C38.335 21.7036 38.0393 21.5689 37.7785 21.5816C37.5084 21.5944 37.2292 21.6818 37.04 21.8839C36.8527 22.086 36.7351 22.3355 36.7351 22.6159V22.889C36.7351 23.1548 36.8508 23.4334 37.04 23.621C37.2219 23.8012 37.5176 23.936 37.7785 23.9232C38.0485 23.9105 38.3277 23.8231 38.5169 23.621C38.7043 23.4189 38.8218 23.1694 38.8218 22.889V22.6159C38.8218 22.35 38.7061 22.0714 38.5169 21.8839Z" fill="#F2E3B5"/>
<path d="M38.3301 7.698C38.111 7.698 38.1091 8.03667 38.3301 8.03667C38.551 8.03667 38.551 7.698 38.3301 7.698Z" fill="#F2E3B5"/>
<path d="M18.4928 19.4421H18.2173C17.984 19.4421 17.7617 19.6461 17.7727 19.8828C17.7838 20.1213 17.9693 20.3252 18.2173 20.3252H18.4928C18.7261 20.3252 18.9483 20.1213 18.9373 19.8828C18.9263 19.6461 18.7426 19.4421 18.4928 19.4421Z" fill="#F2E3B5"/>
<path d="M0.0322126 53.7065C-0.733777 53.7065 -0.735614 54.8864 0.0322126 54.8864C0.798202 54.8864 0.800039 53.7065 0.0322126 53.7065Z" fill="#F2E3B5"/>
<path d="M26.208 54.9917H25.9325C25.7231 54.9917 25.521 55.1738 25.532 55.3886C25.5412 55.6035 25.7084 55.7856 25.9325 55.7856H26.208C26.4174 55.7856 26.6195 55.6035 26.6085 55.3886C26.5993 55.1738 26.4321 54.9917 26.208 54.9917Z" fill="#F2E3B5"/>
<path d="M23.4523 86.7595C22.6955 86.7595 22.6937 87.9249 23.4523 87.9249C24.2091 87.9249 24.211 86.7595 23.4523 86.7595Z" fill="#F2E3B5"/>
<path d="M13.2576 91.7051C12.5394 91.7051 12.5376 92.8122 13.2576 92.8122C13.9759 92.8122 13.9777 91.7051 13.2576 91.7051Z" fill="#F2E3B5"/>
<path d="M0.967015 106.96C0.895375 106.743 0.759444 106.526 0.5482 106.419C0.3939 106.341 0.232253 106.279 0.05591 106.286C-0.184725 106.297 -0.436381 106.381 -0.605376 106.559C-0.794578 106.759 -0.884586 106.996 -0.89377 107.266C-0.902955 107.515 -0.789066 107.803 -0.603539 107.972C-0.27657 108.269 0.160613 108.32 0.550037 108.112C0.748423 108.007 0.91007 107.783 0.968851 107.571C0.992731 107.486 0.998242 107.389 0.994568 107.293C1.00743 107.18 1.00192 107.067 0.967015 106.96Z" fill="#F2E3B5"/>
<path d="M35.1886 93.6096C34.5989 93.6096 34.5989 94.5164 35.1886 94.5164C35.7782 94.5164 35.7782 93.6096 35.1886 93.6096Z" fill="#F2E3B5"/>
<path d="M130.891 119.864C129.875 119.864 129.874 121.428 130.891 121.428C131.907 121.43 131.909 119.864 130.891 119.864Z" fill="#F2E3B5"/>
<path d="M144.564 120.022C144.503 119.962 144.441 119.9 144.38 119.84C144.218 119.68 143.979 119.582 143.75 119.582C143.531 119.582 143.27 119.678 143.12 119.84C142.964 120.008 142.848 120.23 142.859 120.465C142.87 120.698 142.949 120.92 143.12 121.089C143.18 121.15 143.243 121.211 143.304 121.272C143.465 121.432 143.704 121.53 143.934 121.53C144.152 121.53 144.413 121.434 144.564 121.272C144.72 121.104 144.835 120.882 144.824 120.647C144.813 120.414 144.733 120.192 144.564 120.022Z" fill="#F2E3B5"/>
<path d="M156.608 118.965C156.077 118.965 156.077 119.782 156.608 119.782C157.139 119.78 157.139 118.965 156.608 118.965Z" fill="#F2E3B5"/>
<path d="M147.607 101.556C147.424 101.563 147.267 101.703 147.267 101.892V102.075C147.267 102.251 147.424 102.419 147.607 102.411C147.791 102.404 147.947 102.264 147.947 102.075V101.892C147.947 101.716 147.791 101.548 147.607 101.556Z" fill="#F2E3B5"/>
<path d="M137.137 93.3201C136.409 93.3201 136.407 94.4399 137.137 94.4399C137.864 94.4417 137.866 93.3201 137.137 93.3201Z" fill="#F2E3B5"/>
<path d="M175.161 95.8928C174.463 95.8928 174.463 96.9671 175.161 96.9671C175.859 96.9671 175.859 95.8928 175.161 95.8928Z" fill="#F2E3B5"/>
<path d="M147.5 78.1454C147.44 78.0853 147.377 78.0234 147.317 77.9633C147.181 77.8286 146.931 77.8177 146.797 77.9633C146.663 78.109 146.652 78.3348 146.797 78.4786L146.98 78.6607C147.116 78.7955 147.366 78.8064 147.5 78.6607C147.634 78.5169 147.645 78.2911 147.5 78.1454Z" fill="#F2E3B5"/>
<path d="M162.118 69.5784C161.771 69.5784 161.769 70.1137 162.118 70.1137C162.466 70.1137 162.467 69.5784 162.118 69.5784Z" fill="#F2E3B5"/>
<path d="M169.65 64.7604C169.358 64.7732 169.112 64.9953 169.112 65.2939V65.476C169.112 65.7546 169.36 66.0223 169.65 66.0095C169.942 65.9968 170.189 65.7746 170.189 65.476V65.2939C170.189 65.0154 169.941 64.7477 169.65 64.7604Z" fill="#F2E3B5"/>
<path d="M147.423 35.6694C147.231 35.6785 147.065 35.8242 147.065 36.0245V36.1155C147.065 36.3012 147.229 36.4778 147.423 36.4706C147.616 36.4615 147.782 36.3158 147.782 36.1155V36.0245C147.782 35.8387 147.616 35.6621 147.423 35.6694Z" fill="#F2E3B5"/>
<path d="M136.954 31.7893C136.713 31.7893 136.713 32.1589 136.954 32.1589C137.195 32.1571 137.195 31.7893 136.954 31.7893Z" fill="#F2E3B5"/>
<path d="M171.487 15.6785H171.303C171.064 15.6785 170.833 15.8879 170.846 16.1319C170.857 16.3777 171.048 16.5852 171.303 16.5852H171.487C171.726 16.5852 171.957 16.3758 171.944 16.1319C171.933 15.886 171.744 15.6785 171.487 15.6785Z" fill="#F2E3B5"/>
<path d="M174.426 9.25293C173.296 9.25293 173.295 10.9936 174.426 10.9936C175.556 10.9936 175.558 9.25293 174.426 9.25293Z" fill="#F2E3B5"/>
<path d="M134.853 0.665983C134.806 0.622283 134.747 0.594971 134.681 0.594971H134.635C134.572 0.594971 134.506 0.622283 134.462 0.665983C134.42 0.707861 134.387 0.777053 134.391 0.83714C134.394 0.900868 134.414 0.964597 134.462 1.0083C134.51 1.052 134.569 1.07931 134.635 1.07931H134.681C134.743 1.07931 134.809 1.052 134.853 1.0083C134.896 0.966418 134.929 0.897227 134.925 0.83714C134.921 0.773411 134.901 0.709682 134.853 0.665983Z" fill="#F2E3B5"/>
<path d="M120.421 -1.24243C119.378 -1.24243 119.376 0.36535 120.421 0.36535C121.464 0.367171 121.466 -1.24243 120.421 -1.24243Z" fill="#F2E3B5"/>
<path d="M110.318 7.33545C109.299 7.33545 109.297 8.90499 110.318 8.90499C111.338 8.90499 111.339 7.33545 110.318 7.33545Z" fill="#F2E3B5"/>
<path d="M87.357 7.55396C87.0937 7.55396 87.0918 7.96 87.357 7.96C87.6203 7.95818 87.6222 7.55396 87.357 7.55396Z" fill="#F2E3B5"/>
<path d="M66.0484 42.104C65.964 42.104 65.964 42.2326 66.0484 42.2326C66.1329 42.2344 66.1329 42.104 66.0484 42.104Z" fill="#F2E3B5"/>
</g>
</svg>
