<svg width="70" height="35" viewBox="0 0 70 35" fill="none" xmlns="http://www.w3.org/2000/svg">
<rect width="70" height="35" rx="17.5" fill="#3F414E"/>
<path d="M15.396 19.144H16.896C16.896 19.768 17.108 20.24 17.532 20.56C17.908 20.84 18.42 20.98 19.068 20.98C19.684 20.98 20.152 20.844 20.472 20.572C20.744 20.34 20.88 20.044 20.88 19.684C20.88 19.156 20.644 18.804 20.172 18.628C20.108 18.604 19.256 18.368 17.616 17.92C16.352 17.576 15.72 16.852 15.72 15.748C15.72 14.94 16.048 14.304 16.704 13.84C17.288 13.432 18.004 13.228 18.852 13.228C19.788 13.228 20.56 13.46 21.168 13.924C21.816 14.428 22.14 15.108 22.14 15.964H20.64C20.576 14.956 19.96 14.452 18.792 14.452C18.376 14.452 18.028 14.528 17.748 14.68C17.396 14.88 17.22 15.176 17.22 15.568C17.22 16.12 17.56 16.488 18.24 16.672C18.92 16.848 19.744 17.068 20.712 17.332C21.248 17.492 21.668 17.788 21.972 18.22C22.244 18.612 22.38 19.044 22.38 19.516C22.38 20.412 22.024 21.1 21.312 21.58C20.696 21.996 19.916 22.204 18.972 22.204C17.932 22.204 17.096 21.96 16.464 21.472C15.768 20.936 15.412 20.16 15.396 19.144ZM23.4773 14.728V13.432H30.4133V14.728H27.6893V22H26.1893V14.728H23.4773ZM35.0665 14.908L33.7705 18.592H36.3865L35.1025 14.908H35.0665ZM31.0105 22L34.2985 13.432H35.8945L39.1945 22H37.5865L36.7825 19.732H33.3625L32.5585 22H31.0105ZM42.1104 14.656V17.332H44.5704C45.5464 17.332 46.0344 16.876 46.0344 15.964C46.0344 15.092 45.5384 14.656 44.5464 14.656H42.1104ZM40.6104 22V13.432H44.7024C45.6304 13.432 46.3344 13.636 46.8144 14.044C47.2944 14.444 47.5344 15.012 47.5344 15.748C47.5344 16.86 47.0624 17.58 46.1184 17.908V17.932C46.9664 18.052 47.3904 18.656 47.3904 19.744C47.3904 20.912 47.5464 21.664 47.8584 22H46.2504C46.0984 21.752 46.0224 21.332 46.0224 20.74C46.0224 19.916 45.9104 19.34 45.6864 19.012C45.4384 18.652 44.9824 18.472 44.3184 18.472H42.1104V22H40.6104ZM48.8437 14.728V13.432H55.7797V14.728H53.0557V22H51.5557V14.728H48.8437Z" fill="#FEFFFE"/>
</svg>
