<svg width="134" height="105" viewBox="0 0 134 105" fill="none" xmlns="http://www.w3.org/2000/svg">
<path d="M72.6539 1.81243C72.1361 -0.160358 69.375 -0.205923 67.3797 0.209224C58.0643 2.14489 47.6475 5.52175 38.5766 8.39909C33.1979 10.1744 27.9659 12.3953 22.9514 15.033C21.4402 15.8278 19.6995 17.4294 20.5479 18.9128C21.1602 19.9844 22.6697 20.008 23.8976 19.8797C36.777 18.5314 49.4674 15.3857 61.4882 10.5626C64.875 9.20406 68.2669 7.67511 71.006 5.26355C72.013 4.3725 72.9963 3.11356 72.6539 1.81243Z" fill="#D196A8"/>
<path d="M121.046 74.2572C121.196 76.981 120.847 79.8735 119.514 82.523C119.489 82.5736 119.462 82.6243 119.435 82.6749C119.422 82.7036 119.406 82.7306 119.391 82.7593C119.307 82.9213 119.217 83.0833 119.123 83.2419C118.659 84.0385 118.099 84.808 117.43 85.5387C116.6 86.445 115.571 87.2618 114.397 87.9976C114.249 88.0921 114.098 88.1832 113.945 88.2726C113.608 88.4734 113.259 88.6675 112.899 88.8548C105.751 92.5979 94.7019 93.9615 88.5169 94.4509C86.9837 94.4779 85.4523 94.5656 83.9275 94.7108H83.9208H83.9191C81.2592 94.9622 78.6162 95.3875 76.0137 95.9866C67.0727 98.0404 58.6749 102.089 49.7052 104.018C41.6801 105.744 32.616 105.462 25.9064 100.99C24.4964 100.05 23.3697 98.739 22.609 97.2236C21.7438 95.4989 21.0185 93.9632 20.2713 92.5118C20.1549 92.2857 20.0386 92.063 19.9205 91.8402C19.9019 91.8064 19.8851 91.7727 19.8665 91.7389C18.9422 90.0092 17.9404 88.3722 16.5674 86.639C16.3616 86.3792 16.1474 86.1159 15.9231 85.8509L15.9214 85.8493C15.8101 85.7159 15.6954 85.5809 15.5757 85.4442C15.5402 85.402 15.5031 85.3598 15.466 85.3177C15.1219 84.9261 14.7576 84.5279 14.3697 84.1212C13.0271 82.7154 11.58 81.4126 10.1885 80.0541C10.0653 79.9342 9.94221 79.8128 9.81909 79.6912C9.72126 79.5951 9.62512 79.4972 9.5273 79.3993C9.15117 79.0213 8.78179 78.6365 8.42085 78.2433C1.77035 70.9749 -1.25383 60.5354 0.481741 50.8335C2.21731 41.1332 8.67216 32.3915 17.431 27.8823C19.0401 27.0537 20.7031 26.3685 22.4049 25.7863C22.6293 25.7087 22.8536 25.6344 23.0796 25.5602C28.7164 23.7308 34.7462 22.9731 40.6124 21.8964C52.5236 19.7144 64.17 16.0911 75.2176 11.1313C77.0561 10.3061 78.8844 9.44204 80.7178 8.58137C80.9421 8.47505 81.1682 8.37042 81.3925 8.26579C87.284 5.50827 93.2227 2.85369 99.6016 1.76351C102.344 1.29605 105.179 1.12898 107.89 1.7517C115.1 3.41229 120.177 10.8427 120.179 18.2462C120.182 26.7044 114.648 34.4605 114.81 42.917C114.868 45.9243 115.645 48.8219 116.817 51.5963C117.919 54.207 119.369 56.708 120.897 59.0892C120.995 59.2411 121.093 59.3913 121.193 59.5431C122.226 61.1413 123.303 62.7225 124.345 64.319L120.843 72.2068C120.94 72.8751 121.009 73.5602 121.046 74.2572Z" fill="#D196A8"/>
<path d="M119.514 82.523C119.489 82.5736 119.462 82.6242 119.435 82.6749L42.0967 90.5829L42.036 90.5896L15.5757 85.4442C15.5403 85.402 15.5032 85.3598 15.4661 85.3176C15.122 84.9261 14.7577 84.5278 14.3698 84.1211C13.0272 82.7154 11.58 81.4126 10.1885 80.0541C10.0654 79.9342 9.94228 79.8127 9.81915 79.6912L79.4664 76.3532L111.806 74.804L119.902 74.3247L121.046 74.2572C121.196 76.981 120.847 79.8735 119.514 82.523Z" fill="#B29EEF"/>
<path d="M81.3925 8.26575V54.509C81.3925 54.6947 81.2407 54.8465 81.0551 54.8465C80.8679 54.8465 80.7178 54.6947 80.7178 54.509V8.58133C80.9421 8.47501 81.1681 8.37038 81.3925 8.26575Z" fill="#D9A5B5"/>
<path d="M119.391 82.7592C119.307 82.9212 119.217 83.0832 119.123 83.2419C118.659 84.0384 118.099 84.8079 117.43 85.5387C116.6 86.4449 115.571 87.2617 114.397 87.9975C114.249 88.092 114.098 88.1831 113.945 88.2726L52.6636 95.3182L43.0226 96.427L42.8557 93.3606L42.7309 91.0807L42.746 91.079L47.8178 90.5289L119.391 82.7592Z" fill="white"/>
<path d="M23.0796 25.5602V74.4664C23.0796 74.6538 22.9295 74.8039 22.7423 74.8039C22.5567 74.8039 22.4049 74.6538 22.4049 74.4664V25.7863C22.6293 25.7087 22.8536 25.6344 23.0796 25.5602Z" fill="#D9A5B5"/>
<path d="M48.9934 49.2978C48.0573 47.4702 46.2391 46.2888 43.5657 45.7623C43.564 45.7606 43.5623 45.7606 43.559 45.7606C41.9195 45.4366 39.9596 45.3573 37.681 45.5261C27.1731 46.3074 19.4431 48.3781 14.707 51.679C11.4737 53.9336 10.1075 58.1374 11.3876 61.9041L17.2488 79.1529L17.4478 79.7402L32.6935 78.6669L36.2422 78.4171L36.3148 78.4121L36.3603 78.3564C36.362 78.353 36.3755 78.3378 36.3991 78.3091C36.8393 77.7792 40.8519 72.892 44.3298 67.1187C49.2767 58.9103 50.8453 52.9143 48.9934 49.2978ZM36.1478 78.0847L24.0646 78.9369L18.5121 79.3267H18.5104L17.6839 79.3858L17.6013 79.1411L11.7064 61.7944C10.4752 58.1711 11.7891 54.1243 14.9009 51.9558C18.3974 49.5172 23.5586 47.757 30.2951 46.6989C30.3069 46.6972 30.3204 46.6956 30.3356 46.6922C32.6125 46.3361 35.0717 46.061 37.7063 45.8636C38.4804 45.8062 39.2175 45.7775 39.9175 45.7775C44.4951 45.7775 47.4417 47.0094 48.6932 49.4531C52.8778 57.6261 37.121 76.9084 36.1478 78.0847Z" fill="#FEECD6"/>
<path d="M18.5897 79.5631L12.5717 61.8484C11.3151 58.1509 12.6273 54.0484 15.8286 51.8174C19.5494 49.2236 26.3365 46.6146 38.7183 45.6949C66.2665 43.6478 37.2559 78.2484 37.2559 78.2484L18.5897 79.5631Z" fill="#FEECD6"/>
<path d="M68.9618 16.7223C69.0934 16.2025 69.1237 15.73 69.1136 15.2659C69.1018 14.8035 69.0428 14.3411 69.009 13.8365C68.9635 13.5209 68.8927 13.2071 68.7965 12.8999C68.417 11.6663 67.6614 10.5204 66.6781 9.68338C64.7114 8.01098 62.0398 7.39501 59.4609 7.31063C55.595 7.18237 51.4054 8.33162 49.0997 11.4385C47.1314 14.088 46.8953 17.588 46.003 20.7658C44.5373 25.9922 41.196 30.5166 37.3639 34.3576C35.119 36.6088 32.5502 38.9023 31.9599 42.0277C31.3814 45.094 32.9871 48.3004 35.4546 50.2074C36.3536 50.9027 37.3741 51.4596 38.4771 51.733C39.5988 52.0114 40.7794 51.9895 41.9179 51.7954C45.4127 51.1997 48.4132 49.0615 51.3683 47.1039C51.6634 46.9082 51.962 46.7124 52.2588 46.4964C54.4043 44.8814 54.5729 42.0125 56.2596 39.9874C56.5548 39.5857 56.8583 39.3022 57.1653 39.1132C61.1509 38.9748 67.7289 36.781 68.7594 42.404C68.8674 42.7145 68.9753 43.0234 69.0951 43.3187C69.5758 44.4983 70.2437 45.4653 71.7448 45.5412C72.0045 45.5615 72.2677 45.5699 72.5325 45.5665C73.8531 45.548 75.1907 45.2088 76.1065 44.284C77.0797 43.3018 77.3985 41.8387 77.4086 40.4565C77.4238 38.531 76.9178 36.6038 75.9598 34.9347C75.5904 34.2901 75.1603 33.691 74.6914 33.1189C74.4569 32.8337 74.2141 32.5536 73.9628 32.2852C70.4275 29.8619 68.0662 25.8116 68.5418 21.4492C68.5469 21.0273 68.5654 20.6071 68.5941 20.1835C68.6818 18.9179 68.8674 17.6404 69.0664 16.3814L68.9618 16.7223Z" fill="#3F4553"/>
<path d="M67.3459 17.4142C66.5498 19.7819 67.5854 22.2255 69.0966 24.065C70.9789 26.3567 73.4111 28.0494 75.0269 30.5808C76.6427 33.1138 77.9449 36.327 77.2871 39.3799C77.0172 40.6354 76.3273 41.1468 75.1366 41.4708C74.1364 41.7425 73.2053 42.0327 72.3434 42.6318C72.1444 42.7702 72.3333 43.0993 72.5357 42.9592C73.5359 42.2639 74.6154 42.0665 75.7421 41.6902C76.4471 41.4539 77.0256 41.0691 77.3613 40.3857C78.4981 38.0669 77.6058 34.8807 76.609 32.6886C75.3558 29.9311 73.4415 27.8621 71.2792 25.7965C69.0679 23.6853 66.6071 20.8046 67.7136 17.5155C67.7911 17.2826 67.4235 17.183 67.3459 17.4142Z" fill="#4E5567"/>
<path d="M54.6251 36.9935L56.5817 35.5608L59.0847 34.3795L66.7741 36.9935L70.0581 71.7764L61.5708 73.9112L55.7198 56.2759L54.6251 36.9935Z" fill="white"/>
<path d="M70.2504 32.0338C73.4415 32.6717 76.4505 34.4757 78.1389 37.3176C79.8947 40.2726 79.9251 44.1372 77.9803 47.0061C77.8437 47.2086 78.1709 47.3993 78.3076 47.1984C80.2759 44.2924 80.2877 40.3874 78.5926 37.348C76.8958 34.3036 73.7114 32.3409 70.3499 31.6693C70.1121 31.6187 70.0109 31.9849 70.2504 32.0338Z" fill="#4E5567"/>
<path d="M44.4024 27.5363C41.9078 29.5024 39.5195 31.6 37.0283 33.5711C35.0634 35.1254 32.8606 36.5075 31.4809 38.6592C28.7536 42.9119 30.7337 48.1603 34.4916 51.0225C36.6016 52.6307 39.4639 53.9082 42.1338 53.0897C42.3666 53.0189 42.2671 52.651 42.0326 52.7235C39.5836 53.4745 36.9676 52.354 34.9891 50.9212C33.0208 49.4969 31.4269 47.4752 30.8214 45.0923C30.2328 42.7735 30.7135 40.3097 32.1286 38.3858C33.5015 36.5193 35.5036 35.2587 37.2965 33.8411C39.7877 31.8717 42.176 29.7724 44.6706 27.8063C44.8628 27.6544 44.593 27.3861 44.4024 27.5363Z" fill="#4E5567"/>
<path d="M77.331 81.3822L51.8186 80.7696C51.8186 80.0828 52.3348 79.5073 53.0179 79.4347L79.3668 76.5878L77.331 81.3822Z" fill="#400F58"/>
<path d="M48.2193 18.2309C47.9191 21.1657 47.3068 24.1054 46.0418 26.787C44.7869 29.4483 42.8136 31.5241 40.798 33.6201C38.9966 35.4933 37.1835 37.4711 36.3031 39.9671C35.5677 42.0462 35.7228 44.3008 36.7062 46.2719C37.6895 48.2413 39.4891 49.6808 41.7543 49.6336C41.9989 49.6285 41.9989 49.2488 41.7543 49.2539C39.4588 49.3011 37.735 47.7215 36.8613 45.7015C35.8156 43.2832 36.1462 40.7147 37.4129 38.4432C38.7015 36.1329 40.685 34.3238 42.4796 32.4168C44.1983 30.5908 45.6724 28.6383 46.6659 26.3196C47.7656 23.7527 48.3171 20.9986 48.5988 18.2309C48.6224 17.9879 48.2429 17.9896 48.2193 18.2309Z" fill="#4E5567"/>
<path d="M67.1233 25.2564C67.1081 28.5388 69.8169 30.6989 71.8308 32.9231C73.0216 34.2395 74.0858 35.7667 74.2005 37.5961C74.3135 39.3984 73.5647 41.1501 72.2373 42.3568C72.0568 42.5221 72.325 42.7888 72.5055 42.6251C74.882 40.465 75.1687 37.0206 73.4517 34.3711C71.5103 31.3739 67.4843 29.2307 67.5028 25.2564C67.5045 25.0117 67.125 25.0117 67.1233 25.2564Z" fill="#4E5567"/>
<path d="M65.6829 36.6577C66.4166 38.2221 65.7689 40.0599 66.0168 41.7711C67.4606 51.7498 67.1013 61.9665 67.2565 72.0245C67.2801 73.5517 67.3459 75.2056 68.3056 76.3953C68.4878 76.6215 68.7104 76.8324 68.9887 76.9202C69.208 76.9893 69.4441 76.9758 69.6752 76.9623C72.9355 76.7649 76.1958 76.5675 79.4561 76.37C78.3969 70.1057 77.3377 63.8397 76.2784 57.5754C78.8219 60.7328 81.3637 63.8903 83.9072 67.0478C84.9833 64.2295 86.0577 61.4112 87.1338 58.5913C87.2619 58.2538 87.3935 57.8994 87.3446 57.5416C87.3007 57.2243 87.1203 56.9459 86.9432 56.6792C84.4587 52.9379 81.8495 49.2809 79.1053 45.7251C77.4405 43.5667 75.6982 41.4201 73.4853 39.8304C71.1932 38.1799 68.3748 37.3074 65.6829 36.6577Z" fill="#FB7C85"/>
<path d="M78.1507 75.0537C78.1558 75.2714 77.9888 75.4553 77.8083 75.5751C77.476 75.7928 77.0763 75.8755 76.6833 75.9295C74.9039 76.1709 73.057 75.8874 71.431 75.1263C72.0922 76.0173 72.7517 76.9067 73.4129 77.7977C73.5006 77.9158 73.5933 78.0576 73.5546 78.1994C73.5242 78.3141 73.4179 78.3884 73.3184 78.4508C73.1835 78.5335 73.0418 78.6077 72.8984 78.6736C72.1361 79.028 71.2725 79.163 70.4393 79.0516C68.6616 78.8136 67.1587 77.5176 65.3793 77.2813C64.4803 77.1598 63.5695 77.3201 62.6621 77.3724C61.7547 77.4231 60.7882 77.3488 60.0461 76.8257C59.8673 76.7008 59.7003 76.5455 59.6194 76.343C59.4119 75.8334 59.8049 75.2967 60.1237 74.8478C60.2232 74.7077 60.316 74.5643 60.4037 74.4175C60.8641 73.6581 61.1778 72.8126 61.3246 71.9367C62.3045 71.8776 63.5476 71.5469 64.4938 71.2921C65.8718 70.9225 67.3544 70.3538 68.6649 70.9157C68.9702 71.0474 69.2485 71.2347 69.5251 71.4203C71.8156 72.9611 74.3152 74.5035 77.0763 74.5018C77.5266 74.5018 78.1423 74.6031 78.1507 75.0537Z" fill="#FFB9A3"/>
<path d="M72.8984 78.6737C72.1361 79.0281 71.2725 79.1631 70.4393 79.0517C68.6616 78.8138 67.1587 77.5177 65.3793 77.2814C64.4803 77.1599 63.5695 77.3203 62.6621 77.3726C61.7547 77.4232 60.7882 77.3489 60.0461 76.8258C59.8673 76.7009 59.7003 76.5457 59.6194 76.3431C59.4119 75.8335 59.8049 75.2968 60.1237 74.8479C60.2232 74.7079 60.316 74.5644 60.4037 74.4176C61.0514 74.8834 62.4057 75.4538 64.988 75.1348C69.0782 74.6286 68.2348 76.9912 71.1443 77.835C72.0804 78.1067 72.61 78.4003 72.8984 78.6737Z" fill="#FF9B8D"/>
<path d="M68.2247 12.1388C66.4875 6.52078 59.9449 5.24328 54.8495 6.54272C52.387 7.1705 50.0661 8.47838 48.4453 10.463C46.5309 12.807 45.7719 15.8278 45.33 18.7609C45.0416 20.6729 44.8915 22.6102 44.4462 24.4953C44.1864 25.5956 43.6062 26.5659 43.2132 27.6207C43.1272 27.8502 43.4949 27.9498 43.5793 27.7219C43.8744 26.9288 44.3096 26.193 44.5896 25.3981C45.0129 24.1999 45.1597 22.8752 45.3283 21.6213C45.7281 18.6478 46.0333 15.5882 47.3725 12.856C49.7322 8.04299 55.2037 5.94869 60.3362 6.57141C63.7821 6.98824 66.7911 8.79227 67.857 12.24C67.9312 12.4729 68.2972 12.3733 68.2247 12.1388Z" fill="#4E5567"/>
<path d="M55.7535 20.894C53.996 20.3641 53.1173 21.0763 52.9065 22.3167C52.6939 23.5554 53.8189 24.8413 55.0738 24.7974C55.1953 26.3264 55.4128 27.8705 56.0302 29.2746C56.6458 30.6787 57.705 31.9427 59.1218 32.5266C60.7005 33.1797 62.63 32.8776 63.9355 31.7756C64.4584 31.3334 64.8784 30.7833 65.2747 30.2247C66.4857 28.5169 67.5365 26.6521 67.997 24.6084C68.4574 22.5647 68.2753 20.3169 67.1671 18.5398C67.0474 18.3475 66.9074 18.1534 66.705 18.0504C66.4166 17.9036 66.0708 17.9745 65.7588 18.0555C62.3888 18.9432 59.2365 20.9041 55.7535 20.894Z" fill="#FFB9A3"/>
<path d="M68.8218 13.4568C69.0731 14.3496 69.3261 15.2592 69.2907 16.1856C69.2553 17.1121 68.8809 18.0741 68.1117 18.5921C67.4978 19.0056 66.7253 19.0849 66.0254 19.3229C64.6069 19.8038 63.5105 20.9143 62.4041 21.9251C61.3567 22.882 60.0411 23.8355 58.6513 23.557C57.3728 23.3005 56.5278 22.0838 56.0066 20.8873C55.7266 20.246 55.4972 19.5338 55.6608 18.8537C55.7553 18.4622 55.9746 18.1112 56.2174 17.7905C57.6157 15.9544 59.8842 14.9436 62.1629 14.5926C64.4433 14.2415 66.7675 14.4778 69.0613 14.7158L68.8218 13.4568Z" fill="#3F4553"/>
<path d="M56.0385 20.9564C56.531 23.8507 59.8369 25.2885 62.2657 23.5857C63.4194 22.7773 64.1632 21.5471 65.1701 20.5835C66.2394 19.5608 68.1049 19.1187 68.4017 17.48C68.4456 17.2404 68.0796 17.1391 68.0357 17.3788C67.7692 18.8419 66.064 19.2638 65.074 20.1531C64.2762 20.8704 63.6605 21.7614 62.91 22.5259C61.9081 23.5469 60.6161 24.1915 59.1589 23.8743C57.6746 23.5503 56.6525 22.3183 56.4029 20.8552C56.3641 20.6155 55.9981 20.7185 56.0385 20.9564Z" fill="#4E5567"/>
<path d="M119.514 82.523C119.489 82.5736 119.462 82.6243 119.435 82.6749C119.422 82.7036 119.406 82.7306 119.391 82.7593C119.307 82.9213 119.217 83.0833 119.123 83.2419L47.8178 90.5289L42.7443 91.047L42.746 91.0791L42.8556 93.3607L43.0041 96.4642L52.6636 95.3183L114.397 87.9975C114.249 88.092 114.098 88.1832 113.945 88.2726C113.608 88.4734 113.258 88.6675 112.899 88.8548L42.7241 97.1763C42.7123 97.178 42.6988 97.1797 42.6853 97.1797C42.606 97.1797 42.5284 97.151 42.4677 97.0987C42.3952 97.0396 42.353 96.9519 42.348 96.8574L42.0562 90.7601C42.0528 90.696 42.068 90.6352 42.0967 90.5829C42.1473 90.4884 42.2434 90.4192 42.3581 90.4074L119.514 82.523Z" fill="#6737C3"/>
<path d="M42.7241 90.809C42.692 90.9694 42.5503 91.0807 42.3935 91.0807C42.3716 91.0807 42.3496 91.079 42.3277 91.0757L42.1034 91.0318L16.2469 85.915V85.9134L15.923 85.8509L15.9214 85.8492C15.7746 85.6737 15.6228 85.4965 15.466 85.3176C15.5317 85.1894 15.6768 85.1134 15.8286 85.1438L42.4576 90.4125C42.6414 90.4496 42.7595 90.6268 42.7241 90.809Z" fill="#6737C3"/>
<path d="M43.016 96.9114C42.9822 97.07 42.8422 97.1797 42.6854 97.1797C42.6634 97.1797 42.6398 97.1763 42.6162 97.1729L20.2714 92.5118C20.155 92.2857 20.0386 92.0629 19.9205 91.8402C19.902 91.8064 19.8851 91.7726 19.8666 91.7389L42.316 96.4203L42.7545 96.5114C42.9367 96.5502 43.0531 96.7291 43.016 96.9114Z" fill="#6737C3"/>
<path d="M32.9837 78.9908C32.9888 79.1765 32.8437 79.3334 32.6565 79.3385L10.1885 80.054C9.96586 79.838 9.74659 79.6203 9.52733 79.3992L17.2489 79.1529L17.6014 79.141L18.4396 79.1157L24.0646 78.9368L30.312 78.7377L32.6362 78.6635C32.6565 78.6635 32.675 78.6635 32.6936 78.6668C32.8521 78.6888 32.9769 78.8238 32.9837 78.9908Z" fill="#6737C3"/>
<path d="M101.627 37.252C101.857 36.2816 101.257 35.3084 100.287 35.0782C99.3174 34.8481 98.3447 35.4481 98.1147 36.4184C97.8846 37.3888 98.4843 38.362 99.4541 38.5922C100.424 38.8223 101.397 38.2223 101.627 37.252Z" fill="#D9A5B5"/>
<path d="M99.8715 40.6995C97.7429 40.6995 96.0107 38.9664 96.0107 36.8366C96.0107 34.7069 97.7429 32.9738 99.8715 32.9738C102 32.9738 103.732 34.7069 103.732 36.8366C103.734 38.9664 102.002 40.6995 99.8715 40.6995ZM99.8715 33.1408C97.8357 33.1408 96.1794 34.798 96.1794 36.835C96.1794 38.8719 97.8357 40.5291 99.8715 40.5291C101.907 40.5291 103.564 38.8719 103.564 36.835C103.565 34.798 101.909 33.1408 99.8715 33.1408Z" fill="#D9A5B5"/>
<path d="M75.7118 17.1509C76.0844 17.1509 76.3865 16.8487 76.3865 16.4759C76.3865 16.1031 76.0844 15.8009 75.7118 15.8009C75.3392 15.8009 75.0371 16.1031 75.0371 16.4759C75.0371 16.8487 75.3392 17.1509 75.7118 17.1509Z" fill="#D9A5B5"/>
<path d="M11.3152 44.9877C9.93886 44.9877 8.81892 43.8672 8.81892 42.4901C8.81892 41.113 9.93886 39.9925 11.3152 39.9925C12.6915 39.9925 13.8114 41.113 13.8114 42.4901C13.8114 43.8672 12.6915 44.9877 11.3152 44.9877ZM11.3152 40.33C10.1244 40.33 9.15626 41.2987 9.15626 42.4901C9.15626 43.6815 10.1244 44.6502 11.3152 44.6502C12.506 44.6502 13.4741 43.6815 13.4741 42.4901C13.4741 41.2987 12.506 40.33 11.3152 40.33Z" fill="#D9A5B5"/>
<path d="M32.3664 15.8009C32.3664 16.3645 31.9093 16.8219 31.3459 16.8219C30.7826 16.8219 30.3255 16.3645 30.3255 15.8009C30.3255 15.2372 30.7826 14.7799 31.3459 14.7799C31.911 14.7816 32.3664 15.2372 32.3664 15.8009Z" fill="#D9A5B5"/>
<path d="M127.642 56.8953L124.345 64.319L120.843 72.2068L119.902 74.3247L117.242 80.314L77.3327 81.3822L79.4663 76.3532L88.7311 54.5192C89.2355 53.3328 90.3621 52.5295 91.6474 52.4384C96.257 52.1178 107.586 51.4191 116.817 51.5963C119.87 51.6537 122.695 51.8089 124.969 52.1042C125.772 52.2089 126.458 52.5785 126.968 53.1067C127.899 54.0652 128.243 55.5452 127.642 56.8953Z" fill="#FEECD6"/>
<path d="M76.0896 81.443L75.7759 81.3198L77.9095 75.901L87.176 53.8476C87.7073 52.5853 88.8795 51.7398 90.2356 51.6436C94.7272 51.328 106.173 50.6142 115.421 50.7931C118.718 50.8555 121.466 51.0293 123.591 51.3078C124.402 51.4141 125.128 51.782 125.689 52.3709C126.72 53.4426 126.998 55.0171 126.396 56.3823L118.656 73.9839L118.347 73.8472L126.087 56.2457C126.634 55.007 126.381 53.5776 125.445 52.6038C124.935 52.0706 124.279 51.7381 123.545 51.6419C121.434 51.3651 118.696 51.193 115.412 51.1306C106.178 50.9517 94.7441 51.6655 90.2576 51.9811C89.0297 52.0689 87.9671 52.835 87.4847 53.9792L78.2199 76.0292L76.0896 81.443Z" fill="#FEECD6"/>
<path d="M106.68 67.8498C108.341 66.3197 108.859 64.1787 107.837 63.0679C106.815 61.9571 104.64 62.297 102.978 63.8272C101.317 65.3574 100.799 67.4983 101.821 68.6092C102.843 69.72 105.019 69.38 106.68 67.8498Z" fill="#B29EEF"/>
<path d="M76.7778 58.156C75.9851 56.5866 74.9343 55.1504 74.3052 53.5C74.1905 53.1979 73.7013 53.3295 73.8177 53.635C74.4654 55.3293 75.528 56.8009 76.3426 58.4125C76.4877 58.7028 76.9245 58.4463 76.7778 58.156Z" fill="white"/>
<path d="M69.8406 73.6784C70.8998 76.036 74.4856 76.4359 76.6817 76.1811C77.0021 76.144 77.0055 75.6377 76.6817 75.6748C74.6594 75.9094 71.2624 75.6174 70.2774 73.4236C70.1442 73.1266 69.7073 73.3848 69.8406 73.6784Z" fill="white"/>
<path d="M61.5709 71.6786C61.296 67.0731 60.8625 62.4778 60.2705 57.9028C59.7915 54.1968 59.3395 50.474 58.4371 46.8407C57.9868 45.0282 57.4234 43.2427 56.7049 41.5163C56.0252 39.881 54.9153 38.0973 55.6052 36.273C53.7971 37.5724 52.6063 38.104 50.5334 38.9141C48.8636 39.5671 47.1297 40.0498 45.4751 40.7417C44.5137 41.1434 43.5709 41.6209 42.7866 42.3061C41.8994 43.0807 41.2483 44.0865 40.6395 45.094C39.9513 46.2331 39.2986 47.3959 38.7386 48.6042C37.8396 50.5432 37.1852 52.5835 36.438 54.585C35.1022 58.1593 33.4644 61.6172 31.6732 64.9873C30.5431 67.1136 29.3287 69.2721 29.0116 71.66C28.6945 74.0479 29.5058 76.765 31.5973 77.9564C32.5519 78.4998 33.6702 78.6753 34.7665 78.758C42.7731 79.3571 50.3631 78.2568 59.412 77.0805C59.1809 77.175 59.6599 77.0485 59.412 77.0805C59.6785 76.9725 59.832 76.7008 59.9585 76.4426C60.6888 74.9508 61.4646 73.3391 61.5709 71.6786Z" fill="#FB7C85"/>
<path d="M48.5044 58.0951C47.2664 61.1952 46.2459 64.373 45.4431 67.6131C45.4093 67.7498 45.4869 67.8832 45.6202 67.9253C49.8807 69.2619 54.3604 69.4492 58.7154 70.3319C59.3074 70.4517 61.1459 70.612 61.2791 71.2718C61.3719 71.7342 61.1712 72.3721 61.0767 72.821C60.7461 74.3989 60.1794 76.0393 59.0747 77.2459C58.8554 77.4855 59.2113 77.845 59.4322 77.6037C60.5758 76.3532 61.1914 74.6808 61.5439 73.0472C61.7345 72.1663 62.1832 70.8904 61.1526 70.423C60.0563 69.9251 58.6564 69.7918 57.4774 69.5893C56.2023 69.3699 54.9204 69.1944 53.6386 69.0155C50.9787 68.6443 48.3222 68.2443 45.7534 67.4376C45.8125 67.5406 45.8715 67.6452 45.9305 67.7498C46.7317 64.508 47.7538 61.3319 48.9918 58.2318C49.1116 57.9281 48.6224 57.7964 48.5044 58.0951Z" fill="white"/>
<path d="M45.6522 67.4361C44.2523 67.647 42.9148 68.047 41.6245 68.6241C41.3276 68.7574 41.584 69.1928 41.8792 69.0612C43.1307 68.5009 44.4311 68.128 45.7872 67.9238C46.1076 67.8765 45.971 67.3871 45.6522 67.4361Z" fill="white"/>
<path d="M63.1326 41.4185C61.9452 41.8488 60.6296 41.7172 59.3899 41.4691C58.1604 41.2227 56.8313 40.7806 56.2005 39.6955C55.4044 38.3302 56.047 36.6257 56.4265 35.0917C56.9139 33.1324 56.9325 31.0584 56.4838 29.0906L61.1457 29.9901L62.7278 30.2956C62.6857 32.3291 63.2052 34.3711 64.2155 36.1363C64.3116 36.3034 64.4111 36.4688 64.5089 36.6359C64.8766 37.2552 65.2308 37.888 65.2679 38.5968C65.3354 39.8592 64.3217 40.9881 63.1326 41.4185Z" fill="#FFB9A3"/>
<path d="M64.5091 36.6358C60.1457 36.3151 58.4826 33.2792 57.9328 31.8211C58.2937 32.1097 58.6918 32.3493 59.1219 32.5265C60.3194 33.021 61.7176 32.967 62.8916 32.4337C63.1125 33.7331 63.5612 34.9921 64.2156 36.1363C64.3117 36.3033 64.4112 36.4687 64.5091 36.6358Z" fill="#FF9B8D"/>
<mask id="path-43-inside-1_1_3118" fill="white">
<path d="M99.8715 24.578C94.5316 24.578 90.1868 20.2308 90.1868 14.8879C90.1868 9.54498 94.5316 5.19775 99.8715 5.19775C105.212 5.19775 109.556 9.54498 109.556 14.8879C109.556 20.2308 105.213 24.578 99.8715 24.578ZM99.8715 5.36651C94.6244 5.36651 90.3554 9.6378 90.3554 14.8879C90.3554 20.138 94.6244 24.4092 99.8715 24.4092C105.119 24.4092 109.388 20.138 109.388 14.8879C109.388 9.6378 105.119 5.36651 99.8715 5.36651Z"/>
</mask>
<path d="M99.8715 24.578C94.5316 24.578 90.1868 20.2308 90.1868 14.8879C90.1868 9.54498 94.5316 5.19775 99.8715 5.19775C105.212 5.19775 109.556 9.54498 109.556 14.8879C109.556 20.2308 105.213 24.578 99.8715 24.578ZM99.8715 5.36651C94.6244 5.36651 90.3554 9.6378 90.3554 14.8879C90.3554 20.138 94.6244 24.4092 99.8715 24.4092C105.119 24.4092 109.388 20.138 109.388 14.8879C109.388 9.6378 105.119 5.36651 99.8715 5.36651Z" fill="#F9F7F1"/>
<path d="M99.8715 19.578C97.2956 19.578 95.1868 17.472 95.1868 14.8879H85.1868C85.1868 22.9896 91.7676 29.578 99.8715 29.578V19.578ZM95.1868 14.8879C95.1868 12.3038 97.2956 10.1978 99.8715 10.1978V0.197754C91.7676 0.197754 85.1868 6.78615 85.1868 14.8879H95.1868ZM99.8715 10.1978C102.447 10.1978 104.556 12.3038 104.556 14.8879H114.556C114.556 6.78615 107.976 0.197754 99.8715 0.197754V10.1978ZM104.556 14.8879C104.556 17.4725 102.449 19.578 99.8715 19.578V29.578C107.978 29.578 114.556 22.989 114.556 14.8879H104.556ZM99.8715 0.366513C91.8603 0.366513 85.3554 6.87897 85.3554 14.8879H95.3554C95.3554 12.3966 97.3884 10.3665 99.8715 10.3665V0.366513ZM85.3554 14.8879C85.3554 22.8968 91.8603 29.4092 99.8715 29.4092V19.4092C97.3884 19.4092 95.3554 17.3791 95.3554 14.8879H85.3554ZM99.8715 29.4092C107.883 29.4092 114.388 22.8968 114.388 14.8879H104.388C104.388 17.3791 102.355 19.4092 99.8715 19.4092V29.4092ZM114.388 14.8879C114.388 6.87897 107.883 0.366513 99.8715 0.366513V10.3665C102.355 10.3665 104.388 12.3966 104.388 14.8879H114.388Z" fill="#F9F7F1" mask="url(#path-43-inside-1_1_3118)"/>
<mask id="path-45-inside-2_1_3118" fill="white">
<path d="M99.7703 14.9858L101.042 7.50977L101.209 7.53845L99.9761 14.79C101.592 14.5858 103.952 14.2686 104.115 14.1892L104.145 14.2534L104.159 14.2551L104.221 14.1926L104.243 14.2837C104.223 14.3445 104.194 14.4289 99.885 14.9706L99.7703 14.9858Z"/>
</mask>
<path d="M99.7703 14.9858L101.042 7.50977L101.209 7.53845L99.9761 14.79C101.592 14.5858 103.952 14.2686 104.115 14.1892L104.145 14.2534L104.159 14.2551L104.221 14.1926L104.243 14.2837C104.223 14.3445 104.194 14.4289 99.885 14.9706L99.7703 14.9858Z" fill="#F9F7F1"/>
<path d="M99.7703 14.9858L94.8411 14.1473L93.7038 20.8328L100.427 19.9425L99.7703 14.9858ZM101.042 7.50977L101.889 2.58197L96.9527 1.73391L96.1129 6.67127L101.042 7.50977ZM101.209 7.53845L106.138 8.37655L106.975 3.45584L102.056 2.61066L101.209 7.53845ZM99.9761 14.79L95.0468 13.9519L93.9173 20.5955L100.603 19.7506L99.9761 14.79ZM104.115 14.1892L108.634 12.0498L106.475 7.48857L101.934 9.69009L104.115 14.1892ZM104.145 14.2534L99.6263 16.3928L100.801 18.874L103.525 19.2147L104.145 14.2534ZM104.159 14.2551L103.538 19.2164L105.966 19.52L107.696 17.7896L104.159 14.2551ZM104.221 14.1926L109.083 13.0229L106.995 4.34478L100.685 10.6581L104.221 14.1926ZM104.243 14.2837L108.987 15.8641L109.439 14.5059L109.105 13.114L104.243 14.2837ZM99.885 14.9706L99.2614 10.0096L99.245 10.0117L99.2286 10.0139L99.885 14.9706ZM104.7 15.8243L105.971 8.34826L96.1129 6.67127L94.8411 14.1473L104.7 15.8243ZM100.195 12.4376L100.362 12.4663L102.056 2.61066L101.889 2.58197L100.195 12.4376ZM96.2798 6.70036L95.0468 13.9519L104.905 15.6281L106.138 8.37655L96.2798 6.70036ZM100.603 19.7506C101.425 19.6467 102.445 19.513 103.29 19.3936C103.708 19.3346 104.111 19.2751 104.434 19.2222C104.59 19.1966 104.769 19.166 104.937 19.1324C105.018 19.1163 105.143 19.0903 105.283 19.0548C105.291 19.0529 105.771 18.9433 106.296 18.6884L101.934 9.69009C102.252 9.53565 102.513 9.45284 102.592 9.42827C102.704 9.39277 102.792 9.36986 102.836 9.35887C102.884 9.34657 102.921 9.33834 102.94 9.33422C102.96 9.3298 102.973 9.32722 102.976 9.32652C102.978 9.32624 102.932 9.33498 102.819 9.35346C102.604 9.38875 102.285 9.43627 101.891 9.49195C101.111 9.6021 100.143 9.72913 99.3492 9.82947L100.603 19.7506ZM99.596 16.3286L99.6263 16.3928L108.665 12.114L108.634 12.0498L99.596 16.3286ZM103.525 19.2147L103.538 19.2164L104.779 9.29371L104.766 9.29202L103.525 19.2147ZM107.696 17.7896L107.758 17.7271L100.685 10.6581L100.622 10.7205L107.696 17.7896ZM99.3601 15.3623L99.3821 15.4534L109.105 13.114L109.083 13.0229L99.3601 15.3623ZM99.4996 12.7034C99.4899 12.7326 99.6273 12.2792 99.9147 11.7845C100.233 11.2364 100.63 10.7936 101.047 10.4501C101.428 10.1357 101.781 9.94175 102.007 9.83124C102.237 9.71864 102.429 9.64819 102.542 9.60949C102.661 9.56883 102.754 9.54285 102.805 9.52918C102.859 9.51482 102.895 9.50661 102.907 9.50408C102.926 9.49975 102.901 9.50574 102.807 9.52232C102.394 9.59487 101.422 9.73799 99.2614 10.0096L100.509 19.9315C102.657 19.6615 103.854 19.4915 104.538 19.3713C104.804 19.3245 105.295 19.2366 105.778 19.0715C105.98 19.0025 106.689 18.7588 107.407 18.1669C107.835 17.8142 108.239 17.3628 108.562 16.8066C108.713 16.5466 108.817 16.3141 108.887 16.1386C108.921 16.0538 108.946 15.9834 108.962 15.9375C108.97 15.9145 108.976 15.8956 108.98 15.8837C108.982 15.8776 108.984 15.8727 108.985 15.8695C108.986 15.8683 108.986 15.8664 108.986 15.8657C108.987 15.865 108.987 15.8643 108.987 15.8641L99.4996 12.7034ZM99.2286 10.0139L99.1139 10.0291L100.427 19.9425L100.541 19.9273L99.2286 10.0139Z" fill="#F9F7F1" mask="url(#path-45-inside-2_1_3118)"/>
<path d="M132.633 28.2418C132.243 27.0841 131.758 25.9095 130.859 25.0826C129.152 23.5115 126.32 23.6853 124.422 25.0219C122.525 26.3584 121.44 28.5894 120.874 30.839C120.354 34.4217 120.486 36.9599 121.565 40.7299C122.092 42.566 122.901 44.3886 124.315 45.6746C125.728 46.9605 127.845 47.6001 129.609 46.8694C131.292 46.1724 132.304 44.4359 132.918 42.7213C134.578 38.0905 134.2 32.9029 132.633 28.2418Z" fill="#D196A8"/>
<path d="M46.9171 56.9594C47.2089 57.1923 47.4214 57.5012 47.6997 57.7475C47.9645 57.9821 48.2715 58.1593 48.5785 58.3331C48.8635 58.4935 49.1182 58.0564 48.8332 57.8961C48.5329 57.7273 48.2294 57.5585 47.9797 57.3189C47.7368 57.0843 47.5395 56.8126 47.2747 56.6017C47.0217 56.4008 46.6625 56.7569 46.9171 56.9594Z" fill="white"/>
<path d="M74.2882 53.7361C74.6373 53.24 74.9747 52.7354 75.3002 52.2241C75.4756 51.949 75.0388 51.6941 74.8634 51.9692C74.5378 52.4806 74.2005 52.9852 73.8513 53.4813C73.6641 53.748 74.1027 54.0011 74.2882 53.7361Z" fill="white"/>
<path d="M55.0384 24.9678C55.2408 27.4452 55.8396 30.9318 58.1722 32.3207C59.2348 32.9535 60.6584 33.4058 61.8998 33.1999C63.1597 32.9906 64.0772 32.0574 64.843 31.1056C64.9948 30.9166 64.7283 30.6466 64.5748 30.8373C63.8529 31.7351 63.0113 32.6261 61.8222 32.8185C60.6027 33.0159 59.1336 32.5299 58.1267 31.8448C56.1331 30.4879 55.6018 27.1921 55.4196 24.9695C55.3977 24.7248 55.0182 24.7231 55.0384 24.9678Z" fill="#FF9B8D"/>
<path d="M46.3082 84.5919H38.8869L37.3386 74.5322H48.0202L46.3082 84.5919Z" fill="white"/>
<path d="M42.5874 85.8391C44.6424 85.8391 46.3082 85.2807 46.3082 84.592C46.3082 83.9032 44.6424 83.3448 42.5874 83.3448C40.5325 83.3448 38.8667 83.9032 38.8667 84.592C38.8667 85.2807 40.5325 85.8391 42.5874 85.8391Z" fill="white"/>
<path d="M42.6802 75.7794C45.6303 75.7794 48.0219 75.2211 48.0219 74.5323C48.0219 73.8435 45.6303 73.2852 42.6802 73.2852C39.7301 73.2852 37.3386 73.8435 37.3386 74.5323C37.3386 75.2211 39.7301 75.7794 42.6802 75.7794Z" fill="white"/>
<path d="M42.6802 75.5702C45.1338 75.5702 47.1229 75.1055 47.1229 74.5323C47.1229 73.9591 45.1338 73.4944 42.6802 73.4944C40.2266 73.4944 38.2375 73.9591 38.2375 74.5323C38.2375 75.1055 40.2266 75.5702 42.6802 75.5702Z" fill="#400F58"/>
<path d="M38.0385 75.5988C36.2844 75.8452 34.5286 76.0916 32.7745 76.3397C32.3764 76.3953 32.3157 76.9404 32.5518 77.1851C33.7561 78.4491 34.957 79.7165 36.1663 80.9755C37.2087 82.0623 38.2814 83.1052 39.5919 83.8629C40.157 84.1903 40.6663 83.3162 40.103 82.9888C38.7807 82.2226 37.7282 81.1442 36.6808 80.0473C35.5423 78.8558 34.4055 77.661 33.2687 76.4679C33.1944 76.7497 33.1202 77.0316 33.046 77.3134C34.8001 77.067 36.556 76.8206 38.3101 76.5725C38.9493 76.4848 38.6761 75.5094 38.0385 75.5988Z" fill="white"/>
<path d="M41.3073 74.507C41.1487 74.3112 41.0003 74.1019 40.8738 73.8826C40.6815 73.5535 40.641 73.5045 40.7692 73.1316C40.8974 72.7569 41.1959 72.6388 41.4101 72.3317C41.6412 72.0026 41.7222 71.606 41.4692 71.2651C41.1774 70.8736 40.5803 70.774 40.13 70.8314C40.022 70.8449 39.9191 70.8787 39.8163 70.9074C39.4874 70.9968 38.8869 70.931 38.6626 70.607C38.3269 70.1226 39.1804 69.4088 39.5025 69.1202C39.6847 68.9565 39.4165 68.6882 39.2344 68.8519C38.7317 69.3025 38.1532 69.7682 38.2578 70.5141C38.3421 71.1166 38.7334 71.5048 39.3457 71.4339C39.8028 71.3799 41.7492 70.7892 41.1099 72.0515C40.9126 72.4414 40.4369 72.5797 40.2851 73.0016C40.0625 73.621 40.6832 74.3348 41.0391 74.7753C41.1926 74.966 41.4591 74.696 41.3073 74.507Z" fill="white"/>
<path d="M42.9856 73.8472C42.7815 73.616 42.4577 73.297 42.4155 72.9679C42.3295 72.2929 42.7984 72.2743 43.107 71.9841C43.2656 71.8356 43.3769 71.6938 43.3988 71.4744C43.468 70.7505 42.6381 70.6762 42.1777 70.4146C40.8132 69.6383 41.4895 68.1819 42.1305 67.2065C42.574 66.5332 42.9637 65.8834 42.9131 65.0498C42.8979 64.8068 42.5184 64.8051 42.5336 65.0498C42.6483 66.8943 39.9665 68.317 41.3951 70.2206C41.6346 70.5395 41.9162 70.7083 42.2738 70.8635C42.7528 71.0728 43.0176 71.3884 42.596 71.8811C42.5032 71.9891 42.343 72.0364 42.2435 72.1545C41.6869 72.8178 42.2553 73.5957 42.7157 74.1155C42.8793 74.2978 43.1475 74.0294 42.9856 73.8472Z" fill="white"/>
<path d="M44.5474 74.1408C44.4057 73.837 44.2067 73.4945 44.5254 73.2076C44.6115 73.1316 44.7397 73.108 44.8392 73.0574C45.0382 72.9544 45.1883 72.8312 45.2591 72.6119C45.4042 72.163 45.109 71.7546 44.6857 71.6297C44.4512 71.5605 44.35 71.9267 44.5845 71.9959C44.8813 72.0836 45.0449 72.4515 44.7481 72.681C44.6789 72.7351 44.5136 72.7772 44.4293 72.8262C44.2876 72.9055 44.1628 72.9949 44.0785 73.1367C43.8423 73.5248 44.0464 73.9653 44.2185 74.3349C44.323 74.5526 44.6503 74.3602 44.5474 74.1408Z" fill="white"/>
</svg>
