<svg width="27" height="25" viewBox="0 0 27 25" fill="none" xmlns="http://www.w3.org/2000/svg">
<g clip-path="url(#clip0_1_1418)">
<path d="M23.6645 13.5546C23.0904 19.7329 17.6236 24.2761 11.4454 23.7019C5.26714 23.1278 0.723952 17.661 1.29809 11.4828C1.79734 6.09085 6.06594 1.83473 11.4454 1.33548C8.57467 5.21716 9.39844 10.684 13.2801 13.5546C16.363 15.8262 20.5817 15.8262 23.6645 13.5546Z" stroke="white" stroke-width="2" stroke-linecap="round" stroke-linejoin="round"/>
<path d="M19.5706 8.63704C19.4458 8.53719 19.296 8.49975 19.1463 8.51223H16.8372L19.009 6.09086L19.2211 5.8662L19.346 5.70394C19.3834 5.65402 19.4084 5.59161 19.4333 5.54168C19.4583 5.47928 19.4708 5.41687 19.4708 5.34198C19.4833 5.17973 19.4084 5.02995 19.2711 4.94258C19.0963 4.85521 18.8966 4.81777 18.6969 4.83025H15.976C15.8387 4.81777 15.6889 4.8677 15.5766 4.95506C15.4768 5.02995 15.4268 5.15476 15.4268 5.27958C15.4268 5.4668 15.4892 5.57913 15.6141 5.62905C15.7888 5.67898 15.976 5.70394 16.1632 5.69146H17.9231C17.8482 5.79131 17.7608 5.91612 17.636 6.05342L17.1867 6.56515L16.5876 7.23914L15.9011 8.02546C15.6515 8.30005 15.4892 8.48727 15.4144 8.58712C15.2521 8.7993 15.2771 9.08637 15.4643 9.27359C15.6141 9.38592 15.7888 9.43584 15.9635 9.42336H19.1587C19.3085 9.43584 19.4583 9.38592 19.5831 9.29855C19.6705 9.21118 19.7204 9.09885 19.7204 8.97404C19.7204 8.83674 19.6705 8.72441 19.5706 8.63704Z" fill="white"/>
<path d="M26.7849 4.76785C26.6351 4.64304 26.4479 4.59312 26.2606 4.6056H23.3525L26.0734 1.57265L26.3231 1.28558L26.4853 1.08588C26.5352 1.02347 26.5727 0.948583 26.5976 0.873695C26.6351 0.798808 26.6476 0.711439 26.6476 0.62407C26.6725 0.424369 26.5727 0.224669 26.3979 0.124819C26.1608 0.0374497 25.9112 -0.0124754 25.6615 5.8444e-06H22.2542C22.0794 -0.0124754 21.8922 0.0374497 21.7549 0.149781C21.6426 0.249631 21.5677 0.399407 21.5802 0.561663C21.5802 0.798808 21.6551 0.936102 21.8173 0.986027C22.042 1.04843 22.2666 1.0734 22.5038 1.0734H24.7005C24.6131 1.19821 24.4883 1.34798 24.3385 1.52272L23.7644 2.17175L23.0155 2.99551L22.1293 3.98153C21.8173 4.33101 21.6176 4.55567 21.5302 4.668C21.3181 4.93011 21.343 5.31703 21.5926 5.55417C21.7799 5.69147 22.0045 5.75387 22.2292 5.74139H26.2357C26.4354 5.76636 26.6226 5.71643 26.7849 5.6041C26.8972 5.50425 26.9721 5.35447 26.9596 5.19222C26.9721 5.02996 26.9097 4.88019 26.7849 4.76785Z" fill="white"/>
</g>
<defs>
<clipPath id="clip0_1_1418">
<rect width="26.972" height="25" fill="white"/>
</clipPath>
</defs>
</svg>
