<svg width="374" height="95" viewBox="0 0 374 95" fill="none" xmlns="http://www.w3.org/2000/svg">
<rect width="374" height="95" rx="10" fill="#333242"/>
<mask id="mask0_1_159" style="mask-type:alpha" maskUnits="userSpaceOnUse" x="0" y="0" width="374" height="95">
<rect width="374" height="95" rx="10" fill="#333242"/>
</mask>
<g mask="url(#mask0_1_159)">
<path d="M57.9519 40.4455C57.9519 23.0704 82.4519 6.58416 98 0H0V95H89.048C92.8173 79.4802 84.3363 67.7228 75.3846 62.0792C66.4329 56.4356 57.9519 54.5 57.9519 40.4455Z" fill="#444359"/>
<path d="M199.55 32.7186C183.704 16.6279 191.094 2.20173 196.77 -3H374V43.4688C333.341 87.1633 306.235 55.2594 303.803 47.2834C301.37 39.3074 298.938 12.2584 260.712 35.4928C222.485 58.7272 219.358 52.8319 199.55 32.7186Z" fill="#9B9DB4" fill-opacity="0.49"/>
<path d="M246 97.9998C246 115.673 231.673 130 214 130C196.327 130 182 115.673 182 97.9998C178.364 64.0664 190.721 70.278 204.304 77.3438C210.264 80.4442 217.183 79.3984 223.194 76.3997C243.288 66.3768 246 82.4416 246 97.9998Z" fill="#6C71A1"/>
</g>
<path d="M31.242 43V30.148H36.786C38.526 30.148 39.912 30.676 40.944 31.732C42.06 32.848 42.618 34.438 42.618 36.502C42.618 38.446 42.138 39.994 41.178 41.146C40.146 42.382 38.682 43 36.786 43H31.242ZM34.068 32.524V40.624H36.588C37.5 40.624 38.238 40.336 38.802 39.76C39.462 39.088 39.792 38.092 39.792 36.772C39.792 35.392 39.528 34.36 39 33.676C38.4 32.908 37.428 32.524 36.084 32.524H34.068ZM50.1098 39.4V38.446C49.9058 38.626 49.4618 38.764 48.7778 38.86C47.9978 38.98 47.4818 39.094 47.2298 39.202C46.7258 39.43 46.4738 39.814 46.4738 40.354C46.4738 41.146 46.9958 41.542 48.0398 41.542C49.4198 41.542 50.1098 40.828 50.1098 39.4ZM46.7618 36.556H44.2058C44.2778 35.452 44.7638 34.636 45.6638 34.108C46.4078 33.664 47.3798 33.442 48.5798 33.442C51.3038 33.442 52.6658 34.324 52.6658 36.088V40.93C52.6658 41.962 52.7738 42.652 52.9898 43H50.3978C50.2898 42.664 50.2298 42.364 50.2178 42.1C49.4858 42.868 48.4418 43.252 47.0858 43.252C46.1498 43.252 45.3998 43.024 44.8358 42.568C44.2238 42.076 43.9178 41.374 43.9178 40.462C43.9178 39.514 44.2478 38.806 44.9078 38.338C45.3878 38.014 46.1138 37.78 47.0858 37.636C48.4658 37.444 49.1678 37.342 49.1918 37.33C49.8038 37.174 50.1098 36.868 50.1098 36.412C50.1098 35.908 49.9418 35.56 49.6058 35.368C49.3658 35.224 48.9818 35.152 48.4538 35.152C47.4098 35.152 46.8458 35.62 46.7618 36.556ZM54.7217 43V33.694H57.2777V43H54.7217ZM57.2777 30.148V32.254H54.7217V30.148H57.2777ZM59.3624 43V30.148H61.9184V43H59.3624ZM72.409 33.694L68.521 44.17C68.245 44.926 67.861 45.466 67.369 45.79C66.877 46.114 66.193 46.276 65.317 46.276C64.849 46.276 64.327 46.246 63.751 46.186V44.08C64.651 44.152 65.149 44.182 65.245 44.17C65.905 44.122 66.235 43.732 66.235 43C66.235 42.796 66.199 42.604 66.127 42.424L62.851 33.694H65.587L67.693 40.066H67.729L69.763 33.694H72.409ZM81.3887 43V32.524H77.5367V30.148H88.0667V32.524H84.2147V43H81.3887ZM89.2786 43V30.148H91.8346V34.99H91.8886C92.2006 34.486 92.6146 34.096 93.1306 33.82C93.6106 33.568 94.1026 33.442 94.6066 33.442C95.8906 33.442 96.7966 33.79 97.3246 34.486C97.7806 35.086 98.0086 36.016 98.0086 37.276V43H95.4526V37.744C95.4526 36.22 94.9066 35.458 93.8146 35.458C93.1186 35.458 92.6146 35.668 92.3026 36.088C91.9906 36.508 91.8346 37.186 91.8346 38.122V43H89.2786ZM99.6606 38.356C99.6606 36.868 100.099 35.68 100.975 34.792C101.851 33.892 103.015 33.442 104.467 33.442C105.931 33.442 107.101 33.892 107.977 34.792C108.853 35.68 109.291 36.868 109.291 38.356C109.291 39.832 108.853 41.02 107.977 41.92C107.101 42.808 105.931 43.252 104.467 43.252C103.015 43.252 101.851 42.808 100.975 41.92C100.099 41.02 99.6606 39.832 99.6606 38.356ZM102.217 38.356C102.217 39.208 102.379 39.886 102.703 40.39C103.087 41.014 103.675 41.326 104.467 41.326C105.979 41.326 106.735 40.336 106.735 38.356C106.735 36.364 105.979 35.368 104.467 35.368C102.967 35.368 102.217 36.364 102.217 38.356ZM119.682 33.694V43H117.252V41.704H117.198C116.562 42.736 115.614 43.252 114.354 43.252C113.07 43.252 112.164 42.898 111.636 42.19C111.18 41.602 110.952 40.678 110.952 39.418V33.694H113.508V38.95C113.508 40.474 114.054 41.236 115.146 41.236C115.842 41.236 116.346 41.026 116.658 40.606C116.97 40.186 117.126 39.508 117.126 38.572V33.694H119.682ZM130.568 33.694V42.406C130.568 45.154 128.96 46.528 125.744 46.528C124.7 46.528 123.8 46.294 123.044 45.826C122.168 45.286 121.7 44.524 121.64 43.54H124.178C124.382 44.392 125.018 44.818 126.086 44.818C127.454 44.818 128.138 44.05 128.138 42.514V41.29H128.102C127.55 42.25 126.62 42.73 125.312 42.73C123.992 42.73 122.978 42.268 122.27 41.344C121.646 40.516 121.334 39.418 121.334 38.05C121.334 36.766 121.676 35.698 122.36 34.846C123.092 33.91 124.082 33.442 125.33 33.442C126.614 33.442 127.538 33.94 128.102 34.936H128.138V33.694H130.568ZM125.96 40.804C126.656 40.804 127.202 40.54 127.598 40.012C127.958 39.544 128.138 38.95 128.138 38.23C128.138 36.322 127.412 35.368 125.96 35.368C125.276 35.368 124.754 35.638 124.394 36.178C124.058 36.646 123.89 37.258 123.89 38.014C123.89 38.782 124.04 39.412 124.34 39.904C124.7 40.504 125.24 40.804 125.96 40.804ZM132.626 43V30.148H135.182V34.99H135.236C135.548 34.486 135.962 34.096 136.478 33.82C136.958 33.568 137.45 33.442 137.954 33.442C139.238 33.442 140.144 33.79 140.672 34.486C141.128 35.086 141.356 36.016 141.356 37.276V43H138.8V37.744C138.8 36.22 138.254 35.458 137.162 35.458C136.466 35.458 135.962 35.668 135.65 36.088C135.338 36.508 135.182 37.186 135.182 38.122V43H132.626ZM146.536 30.904V33.694H148.408V35.404H146.536V40.012C146.536 40.444 146.608 40.732 146.752 40.876C146.896 41.02 147.184 41.092 147.616 41.092C147.904 41.092 148.168 41.068 148.408 41.02V43.018C148.048 43.078 147.55 43.108 146.914 43.108C144.958 43.108 143.98 42.37 143.98 40.894V35.404H142.432V33.694H143.98V30.904H146.536Z" fill="white"/>
<path d="M30.814 66V58.146H32.75L34.917 64.295H34.939L37.051 58.146H38.965V66H37.656V59.939H37.634L35.456 66H34.323L32.145 59.939H32.123V66H30.814ZM41.1614 66V58.146H46.8154V59.334H42.5364V61.391H46.4964V62.513H42.5364V64.812H46.8924V66H41.1614ZM50.0151 59.268V64.878H51.3681C52.3654 64.878 53.0731 64.6067 53.4911 64.064C53.8211 63.624 53.9861 62.9603 53.9861 62.073C53.9861 61.1857 53.8211 60.522 53.4911 60.082C53.0731 59.5393 52.3654 59.268 51.3681 59.268H50.0151ZM48.6401 66V58.146H51.8961C53.0474 58.146 53.9274 58.531 54.5361 59.301C55.0861 59.9903 55.3611 60.9143 55.3611 62.073C55.3611 63.2317 55.0861 64.1557 54.5361 64.845C53.9274 65.615 53.0474 66 51.8961 66H48.6401ZM57.1286 66V58.146H58.5036V66H57.1286ZM59.9921 59.334V58.146H66.3501V59.334H63.8531V66H62.4781V59.334H59.9921ZM70.6156 59.499L69.4276 62.876H71.8256L70.6486 59.499H70.6156ZM66.8976 66L69.9116 58.146H71.3746L74.3996 66H72.9256L72.1886 63.921H69.0536L68.3166 66H66.8976ZM74.9495 59.334V58.146H81.3075V59.334H78.8105V66H77.4355V59.334H74.9495ZM82.768 66V58.146H84.143V66H82.768ZM89.7236 57.959C90.8676 57.959 91.7879 58.3623 92.4846 59.169C93.1519 59.9463 93.4856 60.9143 93.4856 62.073C93.4856 63.2317 93.1519 64.196 92.4846 64.966C91.7879 65.78 90.8676 66.187 89.7236 66.187C88.5796 66.187 87.6592 65.78 86.9626 64.966C86.2952 64.196 85.9616 63.2317 85.9616 62.073C85.9616 60.9143 86.2952 59.9463 86.9626 59.169C87.6592 58.3623 88.5796 57.959 89.7236 57.959ZM89.7236 59.081C88.9389 59.081 88.3302 59.3927 87.8976 60.016C87.5236 60.5587 87.3366 61.2443 87.3366 62.073C87.3366 62.9017 87.5236 63.5873 87.8976 64.13C88.3302 64.7533 88.9389 65.065 89.7236 65.065C90.5082 65.065 91.1169 64.7533 91.5496 64.13C91.9236 63.5873 92.1106 62.9017 92.1106 62.073C92.1106 61.2443 91.9236 60.5587 91.5496 60.016C91.1169 59.3927 90.5082 59.081 89.7236 59.081ZM95.232 66V58.146H96.684L100.27 63.932H100.292V58.146H101.601V66H100.149L96.574 60.225H96.541V66H95.232Z" fill="#EBEAEC"/>
<path d="M118.508 62.425V61.49C118.985 61.512 119.373 61.4313 119.674 61.248C120.033 61.0427 120.213 60.72 120.213 60.28C120.213 59.9573 120.099 59.697 119.872 59.499C119.652 59.2937 119.366 59.191 119.014 59.191C118.603 59.191 118.284 59.3487 118.057 59.664C117.83 59.972 117.723 60.3387 117.738 60.764H116.484C116.521 59.994 116.759 59.3707 117.199 58.894C117.668 58.3953 118.281 58.146 119.036 58.146C119.689 58.146 120.242 58.3183 120.697 58.663C121.21 59.0443 121.467 59.5577 121.467 60.203C121.467 61.0463 121.104 61.5963 120.378 61.853V61.875C120.811 61.963 121.152 62.183 121.401 62.535C121.65 62.8797 121.775 63.3013 121.775 63.8C121.775 64.504 121.504 65.076 120.961 65.516C120.448 65.9413 119.81 66.154 119.047 66.154C118.182 66.154 117.511 65.9083 117.034 65.417C116.587 64.9477 116.356 64.2987 116.341 63.47H117.595C117.58 63.954 117.698 64.3427 117.947 64.636C118.204 64.9513 118.57 65.109 119.047 65.109C119.48 65.109 119.832 64.988 120.103 64.746C120.382 64.4967 120.521 64.1593 120.521 63.734C120.521 62.8027 119.85 62.3663 118.508 62.425ZM123.201 63.602V62.414H126.402V63.602H123.201ZM128.071 60.566V59.576C128.643 59.5833 129.127 59.488 129.523 59.29C129.963 59.0627 130.227 58.7327 130.315 58.3H131.338V66H129.963V60.566H128.071ZM137.208 65.109C138.147 65.109 138.616 64.1227 138.616 62.15C138.616 60.1773 138.147 59.191 137.208 59.191C136.269 59.191 135.8 60.1773 135.8 62.15C135.8 64.1227 136.269 65.109 137.208 65.109ZM137.208 58.146C138.205 58.146 138.924 58.5933 139.364 59.488C139.701 60.1627 139.87 61.05 139.87 62.15C139.87 63.25 139.701 64.1373 139.364 64.812C138.924 65.7067 138.205 66.154 137.208 66.154C136.211 66.154 135.492 65.7067 135.052 64.812C134.715 64.1373 134.546 63.25 134.546 62.15C134.546 61.05 134.715 60.1627 135.052 59.488C135.492 58.5933 136.211 58.146 137.208 58.146ZM145.238 66V58.146H147.174L149.341 64.295H149.363L151.475 58.146H153.389V66H152.08V59.939H152.058L149.88 66H148.747L146.569 59.939H146.547V66H145.238ZM155.585 66V58.146H156.96V66H155.585ZM159.142 66V58.146H160.594L164.18 63.932H164.202V58.146H165.511V66H164.059L160.484 60.225H160.451V66H159.142Z" fill="#EBEAEC"/>
<circle cx="109.5" cy="61.5" r="1.5" fill="#EBEAEC"/>
<circle cx="324" cy="48" r="20" fill="white"/>
<path d="M329.164 46.5735L321.506 42.222C320.392 41.5906 319 42.3813 319 43.6441V52.3528C319 53.6213 320.392 54.4119 321.506 53.7749L329.164 49.4233C330.279 48.7919 330.279 47.2106 329.164 46.5735Z" fill="#3F414E"/>
</svg>
